<svg width="551" height="396" viewBox="0 0 551 396" fill="none" xmlns="http://www.w3.org/2000/svg">
<g clip-path="url(#clip0_356_2557)">
<path d="M500.572 225.068C500.572 100.767 399.805 0 275.501 0C151.197 0 50.4282 100.767 50.4282 225.068C50.4282 286.433 74.9987 342.05 114.825 382.652H436.177C476.003 342.05 500.572 286.433 500.572 225.068Z" fill="#FFD553"/>
<path d="M502.901 286.272C502.906 290.307 502.017 294.294 500.297 297.944C498.578 301.595 496.071 304.82 492.956 307.386C492.946 307.386 492.935 307.389 492.927 307.396C487.569 311.828 480.719 314.046 473.78 313.594C459.616 312.721 448.318 300.807 448.144 286.623C448.054 280.528 450.009 274.579 453.699 269.728C455.417 267.471 456.467 264.778 456.73 261.954C456.993 259.131 456.458 256.29 455.186 253.755C453.268 249.848 452.512 245.473 453.007 241.149C454.161 230.772 462.509 222.415 472.886 221.239C476.96 220.765 481.086 221.404 484.825 223.09C488.563 224.775 491.775 227.443 494.117 230.81C496.459 234.176 497.844 238.115 498.124 242.206C498.405 246.297 497.57 250.388 495.709 254.043C493.147 259.041 493.77 265.102 497.205 269.551C500.248 273.486 502.156 278.18 502.721 283.122V283.133C502.842 284.175 502.902 285.223 502.901 286.272Z" fill="#8AC457"/>
<g opacity="0.3">
<path d="M502.901 286.272C502.909 290.791 501.79 295.241 499.647 299.22C499.527 299.44 499.405 299.662 499.285 299.873C498.962 300.453 498.61 301.016 498.23 301.56C498.06 301.811 497.888 302.063 497.708 302.303C497.54 302.557 497.358 302.802 497.165 303.037C497.009 303.228 496.863 303.419 496.704 303.609C496.282 304.131 495.84 304.643 495.367 305.126C495.226 305.282 495.086 305.427 494.936 305.568C494.695 305.829 494.444 306.071 494.183 306.312C494.09 306.404 493.993 306.491 493.891 306.572C493.639 306.804 493.378 307.041 493.11 307.255C493.06 307.302 493.008 307.346 492.953 307.386H492.944C487.582 311.828 480.724 314.049 473.777 313.594C459.613 312.721 448.314 300.807 448.141 286.623C448.05 280.528 450.006 274.579 453.696 269.728C455.414 267.471 456.464 264.778 456.726 261.954C456.989 259.131 456.455 256.29 455.183 253.755C452.876 249.07 452.259 243.731 453.438 238.644C454.617 233.556 457.519 229.032 461.652 225.839C460.526 228.129 459.809 230.597 459.532 233.133C459.04 237.461 459.799 241.84 461.719 245.75C462.991 248.282 463.525 251.121 463.263 253.943C463 256.765 461.949 259.457 460.232 261.711C456.544 266.564 454.588 272.512 454.677 278.606C454.714 281.368 455.175 284.108 456.044 286.729C456.044 286.739 456.044 286.739 456.053 286.75C461.247 302.741 497.993 307.513 502.724 283.133C502.844 284.175 502.903 285.223 502.901 286.272Z" fill="#000072"/>
</g>
<g opacity="0.55">
<path d="M497.634 301.201C499.377 296.79 499.946 292.003 499.284 287.307C498.622 282.611 496.751 278.167 493.856 274.411C490.412 269.96 489.795 263.903 492.36 258.901C494.33 255.027 495.145 250.667 494.706 246.343C494.268 242.018 492.596 237.911 489.889 234.511C486.524 236.098 481.742 232.121 482.647 228.514C478.615 226.409 474.042 225.569 469.525 226.104C462.866 226.847 457.059 230.563 453.435 235.868C456.328 228.042 463.5 222.206 472.038 221.242C476.111 220.771 480.236 221.412 483.974 223.098C487.711 224.784 490.922 227.451 493.265 230.816C495.607 234.182 496.993 238.119 497.276 242.209C497.559 246.3 496.728 250.39 494.872 254.046C492.3 259.045 492.922 265.106 496.368 269.556C499.833 274.048 501.815 279.507 502.042 285.175C502.268 290.844 500.728 296.443 497.634 301.197V301.201Z" fill="white"/>
</g>
<path d="M475.544 315.872C474.913 315.872 474.279 315.852 473.643 315.812C458.292 314.864 446.115 302.053 445.92 286.65C445.812 280.055 447.929 273.617 451.931 268.373C453.396 266.446 454.291 264.147 454.515 261.737C454.738 259.326 454.281 256.901 453.194 254.738C451.088 250.449 450.255 245.646 450.797 240.898C452.062 229.512 461.244 220.313 472.632 219.029C476.12 218.623 479.654 218.959 483.002 220.016C486.35 221.072 489.437 222.825 492.06 225.16C494.683 227.494 496.782 230.357 498.22 233.56C499.658 236.763 500.402 240.235 500.403 243.746C500.415 247.678 499.484 251.557 497.688 255.055C495.543 259.249 496.045 264.406 498.968 268.192C502.979 273.361 505.146 279.723 505.124 286.266C505.117 290.307 504.286 294.304 502.682 298.013C501.078 301.722 498.735 305.065 495.795 307.838C490.326 313.017 483.075 315.893 475.544 315.872ZM475.544 223.315C474.736 223.315 473.929 223.361 473.127 223.453C463.786 224.509 456.256 232.055 455.214 241.396C454.767 245.299 455.449 249.248 457.179 252.774C460.147 258.771 459.487 265.783 455.47 271.071C452.072 275.524 450.273 280.993 450.365 286.594C450.53 299.681 460.874 310.565 473.913 311.371C478.74 311.682 483.554 310.593 487.778 308.237C492.002 305.881 495.457 302.357 497.729 298.087C500.001 293.817 500.993 288.983 500.587 284.163C500.181 279.343 498.394 274.743 495.44 270.913C491.471 265.771 490.796 258.751 493.722 253.031C495.196 250.159 495.959 246.976 495.948 243.749C495.946 240.871 495.337 238.026 494.16 235.399C492.983 232.773 491.266 230.424 489.12 228.506C485.396 225.153 480.559 223.303 475.548 223.315H475.544Z" fill="#000072"/>
<path d="M475.52 372.633C474.93 372.633 474.364 372.398 473.947 371.981C473.53 371.564 473.296 370.998 473.296 370.408V276.645C473.296 276.055 473.53 275.489 473.947 275.072C474.364 274.655 474.93 274.42 475.52 274.42C476.11 274.42 476.676 274.655 477.093 275.072C477.51 275.489 477.745 276.055 477.745 276.645V370.405C477.745 370.698 477.688 370.987 477.576 371.258C477.464 371.528 477.301 371.773 477.094 371.98C476.888 372.187 476.642 372.351 476.372 372.463C476.102 372.575 475.812 372.633 475.52 372.633Z" fill="#000072"/>
<path d="M475.522 295.465C475.059 295.465 474.607 295.321 474.23 295.053C473.852 294.784 473.568 294.405 473.417 293.967C473.265 293.529 473.254 293.055 473.385 292.611C473.516 292.167 473.783 291.775 474.147 291.489L483.749 283.957C483.979 283.776 484.242 283.643 484.524 283.565C484.805 283.486 485.099 283.463 485.389 283.498C485.679 283.533 485.96 283.625 486.214 283.769C486.469 283.912 486.693 284.104 486.873 284.334C487.053 284.564 487.186 284.827 487.265 285.108C487.344 285.39 487.366 285.684 487.331 285.974C487.296 286.264 487.204 286.544 487.061 286.799C486.918 287.053 486.726 287.277 486.496 287.457L476.893 294.99C476.503 295.298 476.019 295.465 475.522 295.465Z" fill="#000072"/>
<path d="M475.522 345.532C475.016 345.533 474.524 345.361 474.129 345.045C473.734 344.729 473.459 344.287 473.348 343.794C473.238 343.3 473.299 342.783 473.522 342.329C473.744 341.874 474.115 341.509 474.574 341.294L483.759 336.975C484.293 336.724 484.905 336.696 485.46 336.896C486.015 337.096 486.467 337.509 486.718 338.043C486.969 338.577 486.997 339.189 486.797 339.744C486.597 340.299 486.184 340.751 485.65 341.002L476.467 345.321C476.171 345.461 475.848 345.533 475.522 345.532Z" fill="#000072"/>
<path d="M499.497 382.177L499.488 382.166H399.005C396.053 378.905 394.42 374.662 394.423 370.263C394.422 368.828 394.598 367.398 394.946 366.005C395.076 365.472 395.228 364.949 395.407 364.443C395.59 363.891 395.808 363.35 396.06 362.826V362.817C397.284 360.167 399.141 357.861 401.469 356.101C403.797 354.341 406.523 353.183 409.405 352.728C412.288 352.274 415.238 352.537 417.994 353.495C420.751 354.453 423.228 356.075 425.208 358.22C425.495 358.537 425.853 358.782 426.253 358.935C426.653 359.088 427.083 359.145 427.509 359.101C427.935 359.057 428.344 358.914 428.704 358.682C429.065 358.451 429.365 358.137 429.582 357.768C430.567 356.104 431.938 354.701 433.579 353.677C435.22 352.653 437.083 352.039 439.011 351.886C440.939 351.732 442.875 352.045 444.657 352.797C446.439 353.549 448.015 354.718 449.25 356.206C450.305 357.481 452.164 357.752 453.42 356.687C455.698 354.784 458.358 353.391 461.22 352.602C464.082 351.813 467.08 351.647 470.012 352.115C472.944 352.582 475.741 353.673 478.216 355.313C480.691 356.953 482.785 359.104 484.359 361.622C485.921 364.121 488.719 365.46 491.662 365.589C492.191 365.612 492.719 365.672 493.239 365.771C495.115 366.138 496.849 367.029 498.238 368.342V368.353C498.43 368.523 498.61 368.714 498.791 368.906C500.187 370.389 501.104 372.258 501.423 374.27C501.484 374.625 501.521 374.984 501.534 375.345C501.689 377.792 500.967 380.214 499.497 382.177Z" fill="#8AC457"/>
<g opacity="0.3">
<path d="M501.537 375.437C501.672 377.854 500.949 380.24 499.497 382.177L499.488 382.166H399.005C396.801 379.733 395.316 376.735 394.715 373.507C394.521 372.437 394.423 371.351 394.423 370.263C394.423 369.699 394.453 369.136 394.514 368.576C394.725 368.193 394.946 367.782 395.178 367.37C396.634 364.779 398.352 361.845 398.352 361.845C398.753 369.077 402.66 373.789 412.606 374.131C413.387 374.16 414.203 374.16 415.057 374.131H486.247C492.677 373.506 494.817 370.936 493.952 367.019C493.952 367.019 498.554 367.37 499.81 367.873C501.066 368.376 502.903 374.573 502.903 375.074C502.903 375.185 502.376 375.316 501.537 375.437Z" fill="#000072"/>
</g>
<g opacity="0.55">
<path d="M485.886 363.393C485.293 363.935 484.48 364.708 483.776 365.452C481.419 362.302 478.203 359.898 474.514 358.53C473.118 361.514 467.352 360.208 466.9 357.124H466.744C461.866 357.115 457.142 358.831 453.405 361.967C452.156 363.032 450.29 362.76 449.236 361.486C448 359.998 446.425 358.829 444.643 358.077C442.861 357.325 440.925 357.012 438.997 357.165C437.068 357.318 435.205 357.933 433.564 358.957C431.924 359.98 430.553 361.383 429.567 363.048C429.351 363.417 429.05 363.73 428.69 363.962C428.33 364.194 427.921 364.337 427.495 364.381C427.069 364.425 426.639 364.368 426.239 364.215C425.839 364.062 425.481 363.817 425.194 363.499C422.924 361.043 420.008 359.278 416.779 358.407C413.55 357.536 410.142 357.594 406.945 358.576C403.748 359.557 400.894 361.422 398.711 363.955C396.527 366.488 395.104 369.586 394.604 372.892C394.475 372.024 394.411 371.147 394.414 370.269C394.414 366.701 395.49 363.215 397.502 360.268C399.514 357.32 402.368 355.048 405.691 353.747C409.014 352.447 412.652 352.178 416.13 352.977C419.608 353.776 422.765 355.605 425.187 358.226C425.475 358.543 425.833 358.788 426.233 358.941C426.632 359.095 427.063 359.151 427.489 359.108C427.914 359.064 428.324 358.92 428.684 358.688C429.044 358.457 429.345 358.144 429.561 357.774C430.546 356.11 431.917 354.707 433.558 353.683C435.199 352.659 437.062 352.045 438.99 351.892C440.918 351.739 442.855 352.051 444.637 352.803C446.419 353.555 447.994 354.724 449.23 356.212C450.284 357.487 452.143 357.759 453.399 356.693C455.677 354.786 458.338 353.39 461.202 352.599C464.066 351.807 467.067 351.64 470.001 352.107C472.936 352.574 475.736 353.665 478.212 355.306C480.689 356.948 482.785 359.101 484.359 361.622C484.771 362.289 485.287 362.887 485.886 363.393Z" fill="white"/>
</g>
<path d="M499.494 384.398C499.423 384.398 499.353 384.395 499.283 384.389H398.995C398.684 384.389 398.376 384.323 398.092 384.197C397.807 384.07 397.552 383.885 397.344 383.653C394.026 379.982 392.189 375.21 392.189 370.262C392.189 359.247 401.145 350.286 412.155 350.286C414.913 350.288 417.641 350.86 420.168 351.966C422.695 353.072 424.966 354.689 426.838 356.714C426.893 356.775 426.961 356.823 427.038 356.853C427.115 356.883 427.197 356.894 427.279 356.885C427.358 356.878 427.434 356.851 427.5 356.807C427.567 356.764 427.621 356.705 427.66 356.635C428.826 354.664 430.45 353.001 432.394 351.788C434.338 350.576 436.545 349.848 438.829 349.668C441.113 349.488 443.407 349.859 445.517 350.752C447.627 351.644 449.491 353.031 450.953 354.795C451.1 354.979 451.314 355.097 451.548 355.125C451.625 355.133 451.703 355.125 451.777 355.102C451.851 355.08 451.919 355.043 451.979 354.994C454.5 352.881 457.444 351.334 460.614 350.456C463.784 349.579 467.105 349.392 470.353 349.908C473.601 350.424 476.701 351.631 479.442 353.447C482.184 355.264 484.504 357.648 486.246 360.438C487.32 362.156 489.381 363.249 491.76 363.359C492.396 363.387 493.03 363.462 493.655 363.584C496.175 364.075 498.484 365.33 500.268 367.178C502.051 369.026 503.224 371.377 503.626 373.914C503.901 375.589 503.834 377.303 503.429 378.953C503.024 380.602 502.29 382.152 501.27 383.51C501.079 383.765 500.836 383.976 500.556 384.129C500.276 384.281 499.967 384.372 499.649 384.394C499.599 384.397 499.546 384.398 499.494 384.398ZM400.031 379.939H498.302C498.93 378.818 499.284 377.565 499.337 376.281C499.389 374.998 499.138 373.72 498.603 372.552C498.068 371.384 497.266 370.358 496.26 369.559C495.255 368.759 494.075 368.209 492.816 367.951C492.403 367.872 491.986 367.823 491.566 367.803C487.723 367.631 484.327 365.76 482.476 362.796C481.072 360.547 479.202 358.624 476.992 357.159C474.781 355.694 472.282 354.72 469.663 354.304C467.044 353.887 464.366 354.037 461.811 354.744C459.255 355.451 456.88 356.698 454.847 358.401C454.339 358.829 453.751 359.152 453.116 359.35C452.482 359.548 451.814 359.618 451.153 359.555C449.738 359.42 448.435 358.729 447.53 357.634C446.524 356.419 445.24 355.464 443.788 354.85C442.335 354.236 440.756 353.98 439.183 354.104C437.611 354.229 436.092 354.73 434.754 355.565C433.415 356.4 432.298 357.544 431.495 358.902C431.101 359.569 430.557 360.134 429.905 360.553C429.253 360.971 428.513 361.231 427.742 361.312C426.972 361.392 426.193 361.291 425.469 361.016C424.745 360.742 424.095 360.301 423.572 359.73C420.847 356.772 417.079 354.988 413.064 354.753C409.048 354.518 405.099 355.851 402.047 358.471C398.995 361.091 397.08 364.794 396.704 368.798C396.329 372.803 397.523 376.797 400.034 379.939H400.031Z" fill="#000072"/>
<path d="M48.0991 286.272C48.0944 290.307 48.9837 294.293 50.7032 297.944C52.4226 301.595 54.9295 304.82 58.0436 307.386C58.0547 307.386 58.0657 307.389 58.0748 307.396C63.432 311.829 70.2812 314.046 77.2201 313.594C91.3853 312.721 102.683 300.807 102.856 286.623C102.948 280.528 100.992 274.579 97.3011 269.728C95.5833 267.471 94.5333 264.778 94.2704 261.954C94.0075 259.131 94.5423 256.29 95.8139 253.755C97.7338 249.849 98.4928 245.474 98.0009 241.149C96.8449 230.773 88.4986 222.415 78.1214 221.239C74.0479 220.765 69.9221 221.405 66.1834 223.09C62.4448 224.776 59.2333 227.444 56.8912 230.81C54.549 234.176 53.1638 238.115 52.8831 242.206C52.6024 246.297 53.4368 250.388 55.2974 254.043C57.8592 259.041 57.2375 265.102 53.8009 269.551C50.7583 273.487 48.8513 278.18 48.2866 283.123V283.133C48.1628 284.175 48.1002 285.223 48.0991 286.272Z" fill="#8AC457"/>
<g opacity="0.3">
<path d="M48.0992 286.272C48.0909 290.791 49.2098 295.241 51.3546 299.22C51.4749 299.44 51.5952 299.662 51.7155 299.873C52.0384 300.452 52.3903 301.015 52.7699 301.56C52.9417 301.811 53.112 302.063 53.2932 302.303C53.4744 302.544 53.6447 302.795 53.8353 303.037C53.9915 303.228 54.1367 303.419 54.3039 303.609C54.7257 304.131 55.1677 304.643 55.6395 305.126C55.7801 305.282 55.9207 305.427 56.0722 305.568C56.3128 305.829 56.5643 306.071 56.8251 306.312C56.9171 306.404 57.0141 306.491 57.1157 306.572C57.3672 306.804 57.6281 307.041 57.8967 307.255C57.946 307.302 57.9982 307.346 58.053 307.386H58.0639C63.4249 311.828 70.2825 314.049 77.2295 313.594C91.3947 312.721 102.692 300.807 102.865 286.623C102.957 280.528 101.001 274.579 97.3105 269.728C95.5927 267.471 94.5427 264.778 94.2798 261.954C94.0169 259.131 94.5517 256.29 95.8233 253.755C98.1318 249.07 98.7487 243.731 97.5694 238.643C96.3901 233.555 93.4872 229.031 89.3531 225.839C90.4782 228.129 91.1956 230.597 91.4728 233.133C91.9662 237.46 91.21 241.838 89.2937 245.75C88.0219 248.282 87.4868 251.121 87.7495 253.943C88.0121 256.765 89.0619 259.456 90.7793 261.711C93.454 265.23 95.233 269.346 95.9629 273.705C96.6928 278.065 96.3516 282.536 94.9689 286.734C94.9689 286.743 94.9689 286.743 94.9579 286.754C89.7655 302.745 53.0198 307.517 48.2882 283.138C48.1641 284.178 48.1009 285.224 48.0992 286.272Z" fill="#000072"/>
</g>
<g opacity="0.55">
<path d="M53.3664 301.2C51.6228 296.79 51.0542 292.003 51.7163 287.307C52.3784 282.611 54.2485 278.167 57.1436 274.411C60.5896 269.96 61.2129 263.903 58.6401 258.901C56.6711 255.026 55.8572 250.667 56.2954 246.343C56.7335 242.019 58.4052 237.912 61.1114 234.511C64.4762 236.098 69.2578 232.121 68.3549 228.514C72.3867 226.408 76.9599 225.568 81.4767 226.103C88.1375 226.847 93.9423 230.563 97.5665 235.868C94.6734 228.042 87.5002 222.206 78.9617 221.242C74.8886 220.77 70.7638 221.412 67.026 223.097C63.2883 224.783 60.0775 227.451 57.7352 230.816C55.3928 234.181 54.0066 238.119 53.7239 242.209C53.4412 246.3 54.2727 250.39 56.1298 254.046C58.701 259.045 58.0778 265.105 54.6317 269.556C51.1674 274.048 49.1848 279.506 48.9581 285.175C48.7315 290.844 50.2719 296.442 53.3664 301.197V301.2Z" fill="white"/>
</g>
<path d="M75.4501 315.871C67.9193 315.895 60.6684 313.019 55.2004 307.841C52.2607 305.068 49.9171 301.725 48.3131 298.016C46.7091 294.307 45.8783 290.309 45.8715 286.268C45.8499 279.726 48.0163 273.365 52.0262 268.195C54.9489 264.409 55.4519 259.251 53.3056 255.056C51.51 251.558 50.5795 247.681 50.5922 243.749C50.5931 240.237 51.3368 236.766 52.7746 233.563C54.2124 230.359 56.3117 227.496 58.9346 225.162C61.5574 222.828 64.6445 221.075 67.9931 220.018C71.3416 218.962 74.8758 218.625 78.3635 219.032C89.7497 220.319 98.9318 229.518 100.197 240.901C100.74 245.649 99.9077 250.452 97.7993 254.741C96.7131 256.904 96.2557 259.329 96.4791 261.74C96.7025 264.15 97.5978 266.449 99.0631 268.376C103.065 273.619 105.183 280.058 105.074 286.653C104.88 302.056 92.7037 314.867 77.3512 315.815C76.7201 315.853 76.0864 315.871 75.4501 315.871ZM75.4501 223.315C70.4379 223.301 65.5996 225.151 61.8754 228.506C59.729 230.423 58.0114 232.772 56.8346 235.399C55.6577 238.025 55.0482 240.87 55.0458 243.749C55.0354 246.976 55.7988 250.159 57.2718 253.03C60.1977 258.751 59.5244 265.769 55.5535 270.913C51.7401 275.862 49.9044 282.053 50.4036 288.28C50.9028 294.508 53.7013 300.327 58.2544 304.606C63.3609 309.407 70.0483 311.81 77.0841 311.377C90.1231 310.571 100.466 299.687 100.631 286.6C100.722 280.999 98.9237 275.531 95.5264 271.077C93.5584 268.493 92.3547 265.408 92.0524 262.174C91.75 258.939 92.361 255.685 93.8159 252.78C95.5464 249.254 96.2284 245.305 95.7811 241.402C94.7438 232.061 87.2097 224.515 77.8699 223.459C77.0666 223.365 76.2588 223.317 75.4501 223.315Z" fill="#000072"/>
<path d="M75.4798 372.633C74.8913 372.63 74.3278 372.395 73.9124 371.978C73.497 371.561 73.2636 370.997 73.2632 370.408V276.645C73.2632 276.055 73.4975 275.489 73.9147 275.072C74.3319 274.655 74.8977 274.42 75.4876 274.42C76.0776 274.42 76.6434 274.655 77.0606 275.072C77.4777 275.489 77.7121 276.055 77.7121 276.645V370.405C77.7125 370.698 77.655 370.989 77.5429 371.259C77.4308 371.53 77.2663 371.776 77.0589 371.983C76.8515 372.19 76.6052 372.354 76.3342 372.465C76.0632 372.577 75.7729 372.634 75.4798 372.633Z" fill="#000072"/>
<path d="M75.4783 295.464C74.9814 295.467 74.4984 295.302 74.1067 294.996L64.5044 287.463C64.0402 287.099 63.7396 286.566 63.6689 285.98C63.5981 285.394 63.763 284.804 64.1272 284.34C64.4913 283.876 65.025 283.575 65.6107 283.505C66.1965 283.434 66.7864 283.599 67.2506 283.963L76.856 291.484C77.2206 291.77 77.487 292.162 77.6179 292.606C77.7489 293.051 77.738 293.525 77.5866 293.962C77.4353 294.4 77.1511 294.78 76.7737 295.048C76.3963 295.316 75.9445 295.46 75.4814 295.46L75.4783 295.464Z" fill="#000072"/>
<path d="M75.4782 345.532C75.1515 345.532 74.8288 345.46 74.5332 345.321L65.3495 341.002C65.0815 340.88 64.8405 340.706 64.6403 340.49C64.4401 340.274 64.2847 340.021 64.1832 339.745C64.0817 339.468 64.0361 339.174 64.049 338.88C64.0619 338.586 64.1331 338.298 64.2584 338.031C64.3837 337.765 64.5606 337.526 64.779 337.328C64.9973 337.131 65.2527 336.979 65.5303 336.88C65.8079 336.782 66.1022 336.74 66.3962 336.757C66.6901 336.773 66.9779 336.848 67.2428 336.977L76.4264 341.294C76.8845 341.509 77.2556 341.874 77.4784 342.329C77.7011 342.783 77.7623 343.3 77.6518 343.794C77.5414 344.287 77.2658 344.729 76.8706 345.045C76.4754 345.361 75.9843 345.533 75.4782 345.532Z" fill="#000072"/>
<path d="M51.503 382.177L51.5139 382.166H151.994C153.943 380.012 155.334 377.411 156.042 374.593C156.75 371.774 156.755 368.825 156.055 366.005C155.924 365.472 155.774 364.949 155.587 364.443C155.405 363.89 155.187 363.35 154.934 362.826V362.817C153.71 360.169 151.852 357.864 149.524 356.105C147.197 354.347 144.471 353.189 141.59 352.735C138.708 352.281 135.759 352.545 133.004 353.503C130.248 354.46 127.771 356.083 125.792 358.226C125.505 358.543 125.147 358.788 124.747 358.941C124.347 359.095 123.917 359.152 123.491 359.108C123.065 359.064 122.656 358.92 122.296 358.688C121.936 358.457 121.635 358.144 121.419 357.774C120.433 356.11 119.062 354.707 117.421 353.683C115.78 352.659 113.917 352.045 111.989 351.892C110.06 351.739 108.124 352.051 106.342 352.803C104.559 353.555 102.984 354.724 101.748 356.212C100.694 357.487 98.8366 357.759 97.5807 356.693C95.3027 354.79 92.6431 353.396 89.7812 352.607C86.9193 351.818 83.9215 351.651 80.9897 352.118C78.058 352.585 75.2603 353.675 72.7853 355.315C70.3102 356.954 68.2152 359.105 66.6415 361.622C65.0793 364.121 62.2816 365.46 59.3386 365.589C58.809 365.612 58.2817 365.672 57.7608 365.771C55.885 366.138 54.1518 367.03 52.7621 368.342V368.353C52.5715 368.523 52.3903 368.714 52.2091 368.906C50.8135 370.389 49.8969 372.258 49.5785 374.27C49.5165 374.625 49.4795 374.984 49.4676 375.345C49.3119 377.792 50.0336 380.214 51.503 382.177Z" fill="#8AC457"/>
<g opacity="0.3">
<path d="M49.4643 375.437C49.3293 377.853 50.0512 380.24 51.5028 382.177L51.5138 382.166H151.994C154.196 379.732 155.681 376.735 156.283 373.507C156.477 372.437 156.574 371.351 156.574 370.263C156.575 369.699 156.544 369.136 156.483 368.576C156.272 368.193 156.052 367.782 155.821 367.37C154.363 364.779 152.647 361.845 152.647 361.845C152.245 369.077 148.337 373.789 138.392 374.131C137.611 374.16 136.794 374.16 135.941 374.131H64.7527C58.3246 373.506 56.1845 370.936 57.0483 367.019C57.0483 367.019 52.4479 367.37 51.192 367.873C49.936 368.376 48.0974 374.573 48.0974 375.074C48.0974 375.185 48.6301 375.316 49.4643 375.437Z" fill="#000072"/>
</g>
<g opacity="0.55">
<path d="M65.1152 363.393C65.7073 363.935 66.5211 364.708 67.2241 365.452C69.5812 362.302 72.797 359.899 76.4859 358.53C77.8824 361.514 83.6482 360.208 84.1012 357.125H84.2574C89.1361 357.115 93.861 358.831 97.5979 361.967C98.8475 363.032 100.711 362.761 101.766 361.486C103.001 359.998 104.577 358.829 106.359 358.077C108.141 357.325 110.078 357.012 112.006 357.165C113.934 357.319 115.797 357.933 117.438 358.957C119.079 359.98 120.45 361.384 121.436 363.048C121.652 363.417 121.953 363.73 122.313 363.962C122.673 364.194 123.082 364.337 123.508 364.381C123.934 364.425 124.364 364.368 124.764 364.215C125.164 364.062 125.522 363.817 125.81 363.499C128.079 361.043 130.995 359.278 134.224 358.407C137.452 357.535 140.861 357.594 144.058 358.576C147.254 359.557 150.109 361.422 152.292 363.955C154.475 366.488 155.898 369.586 156.397 372.892C156.528 372.024 156.591 371.147 156.588 370.27C156.589 366.701 155.513 363.214 153.501 360.266C151.489 357.318 148.635 355.045 145.312 353.745C141.988 352.444 138.35 352.176 134.871 352.975C131.393 353.775 128.236 355.605 125.814 358.226C125.527 358.543 125.169 358.788 124.769 358.941C124.369 359.095 123.939 359.152 123.513 359.108C123.087 359.064 122.678 358.92 122.318 358.688C121.957 358.457 121.657 358.144 121.44 357.774C120.455 356.11 119.084 354.707 117.443 353.683C115.802 352.659 113.939 352.045 112.01 351.892C110.082 351.739 108.146 352.051 106.363 352.803C104.581 353.555 103.006 354.724 101.77 356.212C100.716 357.487 98.8585 357.759 97.6025 356.693C95.3241 354.786 92.663 353.389 89.7988 352.598C86.9346 351.807 83.934 351.639 80.9994 352.106C78.0649 352.573 75.2647 353.664 72.7878 355.306C70.3109 356.947 68.2149 359.101 66.6414 361.622C66.229 362.289 65.714 362.887 65.1152 363.393Z" fill="white"/>
</g>
<path d="M51.5092 384.394C51.4577 384.394 51.4061 384.394 51.353 384.394C51.0348 384.373 50.7248 384.284 50.4441 384.132C50.1635 383.981 49.9188 383.77 49.7268 383.516C48.707 382.158 47.9725 380.608 47.5676 378.959C47.1628 377.31 47.096 375.596 47.3712 373.92C47.7735 371.384 48.9457 369.033 50.7289 367.185C52.5122 365.337 54.8203 364.082 57.3406 363.59C57.9674 363.468 58.6023 363.393 59.2401 363.365C61.6161 363.257 63.6765 362.165 64.7528 360.445C66.4941 357.655 68.8138 355.272 71.5553 353.455C74.2969 351.638 77.3963 350.431 80.6444 349.915C83.8925 349.399 87.2135 349.585 90.3832 350.463C93.5529 351.34 96.4974 352.887 99.0178 355C99.0775 355.049 99.1463 355.086 99.2203 355.109C99.2943 355.131 99.372 355.139 99.4489 355.131C99.6834 355.104 99.8977 354.985 100.046 354.802C101.507 353.037 103.371 351.65 105.481 350.758C107.591 349.865 109.885 349.494 112.169 349.674C114.453 349.855 116.66 350.582 118.604 351.795C120.547 353.007 122.171 354.67 123.337 356.642C123.375 356.711 123.43 356.77 123.497 356.813C123.563 356.857 123.639 356.884 123.718 356.892C123.8 356.9 123.882 356.888 123.959 356.858C124.035 356.828 124.104 356.781 124.158 356.72C126.031 354.695 128.302 353.079 130.829 351.973C133.356 350.866 136.084 350.294 138.842 350.292C149.851 350.292 158.808 359.254 158.808 370.268C158.807 375.216 156.97 379.988 153.653 383.66C153.444 383.891 153.189 384.076 152.905 384.203C152.62 384.33 152.312 384.395 152 384.395H51.656C51.6076 384.392 51.5592 384.394 51.5092 384.394ZM52.698 379.939H150.971C153.474 376.796 154.661 372.805 154.282 368.805C153.904 364.805 151.989 361.108 148.94 358.49C145.891 355.873 141.947 354.54 137.935 354.771C133.924 355.002 130.159 356.78 127.431 359.73C126.908 360.301 126.258 360.742 125.534 361.016C124.81 361.291 124.032 361.392 123.262 361.312C122.492 361.231 121.751 360.971 121.099 360.553C120.448 360.134 119.903 359.569 119.51 358.902C118.707 357.544 117.589 356.4 116.251 355.565C114.913 354.73 113.393 354.229 111.821 354.104C110.248 353.98 108.669 354.236 107.216 354.85C105.763 355.464 104.479 356.419 103.473 357.634C102.567 358.728 101.264 359.419 99.8504 359.555C99.189 359.618 98.5216 359.549 97.8875 359.35C97.2533 359.152 96.6652 358.829 96.1576 358.401C94.1246 356.698 91.75 355.451 89.1939 354.744C86.6378 354.037 83.9598 353.887 81.3407 354.304C78.7217 354.72 76.2225 355.694 74.0119 357.159C71.8014 358.624 69.9309 360.547 68.5269 362.796C66.6773 365.764 63.2797 367.631 59.4401 367.803C59.0205 367.823 58.6029 367.872 58.1904 367.951C56.5743 368.283 55.0965 369.096 53.9513 370.283C52.8062 371.471 52.0474 372.977 51.7748 374.604C51.4716 376.436 51.797 378.316 52.698 379.939Z" fill="#000072"/>
<path d="M440.516 280.433H110.509V371.402H440.516V280.433Z" fill="#12B3F9"/>
<path d="M440.516 280.433H110.509V371.402H440.516V280.433Z" fill="#12B3F9"/>
<g opacity="0.3">
<path d="M440.516 280.433H110.509V293.632H440.516V280.433Z" fill="#000072"/>
</g>
<path d="M440.516 373.628H110.51C109.92 373.628 109.355 373.393 108.937 372.976C108.52 372.559 108.286 371.993 108.286 371.403V280.431C108.286 279.841 108.521 279.276 108.938 278.859C109.355 278.441 109.921 278.207 110.51 278.207H440.516C441.106 278.207 441.672 278.441 442.089 278.858C442.507 279.275 442.741 279.841 442.741 280.431V371.403C442.741 371.696 442.684 371.985 442.572 372.255C442.46 372.525 442.296 372.77 442.09 372.977C441.883 373.183 441.638 373.347 441.368 373.459C441.098 373.571 440.809 373.628 440.516 373.628ZM112.736 369.179H438.294V282.655H112.736V369.179Z" fill="#000072"/>
<path d="M446.663 270.793H104.338L108.973 258.09L128.943 203.361C129.7 201.283 131.079 199.488 132.891 198.22C134.703 196.952 136.862 196.272 139.074 196.272H411.93C414.141 196.273 416.299 196.953 418.111 198.221C419.923 199.489 421.302 201.283 422.06 203.361L446.663 270.793Z" fill="#FF4516"/>
<path d="M447.193 271.163H103.807L128.595 203.235C129.381 201.086 130.807 199.231 132.681 197.918C134.555 196.605 136.786 195.898 139.073 195.893H411.93C414.217 195.9 416.447 196.608 418.32 197.92C420.194 199.233 421.62 201.087 422.408 203.235L447.193 271.163ZM104.868 270.421H446.14L421.708 203.489C420.972 201.486 419.64 199.756 417.891 198.532C416.142 197.308 414.061 196.649 411.926 196.643H139.073C136.939 196.647 134.857 197.306 133.108 198.529C131.359 199.753 130.027 201.484 129.291 203.488L104.868 270.421Z" fill="#000072"/>
<g opacity="0.3">
<path d="M446.663 270.793H104.338L108.973 258.09C282.579 260.455 402.568 246.862 422.057 203.361L446.663 270.793Z" fill="#000072"/>
</g>
<g opacity="0.55">
<path d="M448.144 271.535H446.594L423.539 208.346C422.782 206.267 421.404 204.472 419.592 203.204C417.78 201.935 415.621 201.255 413.409 201.255H140.564C138.351 201.256 136.192 201.937 134.379 203.205C132.565 204.473 131.185 206.268 130.426 208.346L107.37 271.535H105.819L130.426 204.103C131.185 202.025 132.565 200.231 134.379 198.963C136.192 197.695 138.351 197.015 140.564 197.014H413.409C415.621 197.014 417.779 197.694 419.592 198.962C421.404 200.23 422.782 202.025 423.539 204.103L448.144 271.535Z" fill="white"/>
</g>
<path d="M446.662 273.02C446.206 273.021 445.76 272.88 445.386 272.619C445.012 272.357 444.728 271.987 444.572 271.558L419.965 204.122C419.359 202.476 418.264 201.054 416.826 200.049C415.389 199.044 413.678 198.503 411.923 198.498H139.075C137.321 198.502 135.609 199.043 134.172 200.049C132.734 201.054 131.638 202.475 131.032 204.122L106.427 271.558C106.327 271.833 106.173 272.085 105.976 272.3C105.778 272.515 105.54 272.69 105.275 272.813C105.01 272.936 104.724 273.006 104.432 273.018C104.14 273.031 103.848 272.986 103.574 272.885C103.299 272.785 103.047 272.632 102.832 272.434C102.617 272.237 102.443 271.999 102.319 271.734C102.196 271.469 102.126 271.182 102.114 270.89C102.101 270.598 102.147 270.307 102.247 270.032L126.852 202.602C127.772 200.099 129.436 197.937 131.622 196.409C133.807 194.88 136.408 194.057 139.075 194.051H411.93C414.596 194.058 417.195 194.881 419.379 196.41C421.563 197.939 423.226 200.1 424.145 202.602L448.75 270.038C448.873 270.374 448.913 270.735 448.866 271.09C448.82 271.444 448.688 271.783 448.483 272.076C448.279 272.369 448.006 272.609 447.689 272.774C447.372 272.94 447.02 273.026 446.662 273.027V273.02Z" fill="#000072"/>
<path d="M450.564 270.794H100.435C98.8921 270.794 97.6416 272.045 97.6416 273.587V281.201C97.6416 282.744 98.8921 283.994 100.435 283.994H450.564C452.106 283.994 453.357 282.744 453.357 281.201V273.587C453.357 272.045 452.106 270.794 450.564 270.794Z" fill="white"/>
<g opacity="0.55">
<path d="M453.36 274.329V278.097C453.359 277.357 453.063 276.647 452.539 276.124C452.015 275.601 451.304 275.308 450.564 275.309H100.444C100.077 275.308 99.7139 275.38 99.3749 275.52C99.0359 275.66 98.7278 275.865 98.4681 276.124C98.2084 276.383 98.0023 276.69 97.8615 277.029C97.7208 277.367 97.6481 277.731 97.6477 278.097V274.329C97.6485 273.588 97.9434 272.878 98.4677 272.354C98.992 271.83 99.7027 271.535 100.444 271.535H450.564C451.305 271.535 452.016 271.83 452.54 272.354C453.064 272.878 453.359 273.588 453.36 274.329Z" fill="white"/>
</g>
<path d="M450.564 286.22H100.435C99.104 286.218 97.8285 285.689 96.8879 284.748C95.9472 283.807 95.4182 282.532 95.417 281.201V273.587C95.4186 272.257 95.9478 270.982 96.8884 270.041C97.829 269.101 99.1043 268.572 100.435 268.57H450.564C451.894 268.572 453.169 269.101 454.11 270.041C455.05 270.982 455.58 272.257 455.581 273.587V281.201C455.58 282.532 455.051 283.807 454.11 284.748C453.17 285.689 451.894 286.218 450.564 286.22ZM100.435 273.02C100.284 273.02 100.14 273.08 100.033 273.186C99.9264 273.293 99.8663 273.437 99.8659 273.587V281.201C99.8659 281.352 99.9258 281.496 100.032 281.603C100.139 281.71 100.284 281.77 100.435 281.77H450.564C450.714 281.769 450.859 281.709 450.965 281.603C451.072 281.496 451.132 281.352 451.132 281.201V273.587C451.132 273.437 451.072 273.293 450.965 273.186C450.859 273.08 450.714 273.02 450.564 273.02H100.435Z" fill="#000072"/>
<path d="M450.564 368.978H100.435C98.8921 368.978 97.6416 370.228 97.6416 371.771V379.384C97.6416 380.927 98.8921 382.177 100.435 382.177H450.564C452.106 382.177 453.357 380.927 453.357 379.384V371.771C453.357 370.228 452.106 368.978 450.564 368.978Z" fill="white"/>
<g opacity="0.55">
<path d="M453.36 371.775V375.543C453.36 375.176 453.287 374.813 453.146 374.475C453.005 374.136 452.799 373.828 452.54 373.569C452.28 373.31 451.972 373.105 451.633 372.965C451.294 372.826 450.93 372.754 450.564 372.755H100.444C100.077 372.754 99.7138 372.825 99.3747 372.965C99.0356 373.105 98.7273 373.31 98.4676 373.569C98.2079 373.828 98.0018 374.136 97.8611 374.474C97.7204 374.813 97.6479 375.176 97.6477 375.543V371.775C97.6481 371.034 97.9429 370.323 98.4671 369.798C98.9914 369.274 99.7024 368.979 100.444 368.979H450.564C451.305 368.98 452.016 369.275 452.54 369.799C453.064 370.323 453.359 371.034 453.36 371.775Z" fill="white"/>
</g>
<path d="M450.564 384.402H100.435C99.1043 384.4 97.829 383.871 96.8884 382.93C95.9478 381.99 95.4186 380.714 95.417 379.384V371.775C95.4182 370.445 95.9472 369.169 96.8879 368.228C97.8285 367.287 99.104 366.758 100.435 366.756H450.564C451.894 366.758 453.17 367.287 454.11 368.228C455.051 369.169 455.58 370.445 455.581 371.775V379.389C455.578 380.718 455.049 381.992 454.108 382.932C453.168 383.871 451.893 384.4 450.564 384.402ZM100.435 371.202C100.284 371.202 100.139 371.262 100.032 371.369C99.9258 371.475 99.8659 371.62 99.8659 371.771V379.384C99.8659 379.535 99.9258 379.68 100.032 379.786C100.139 379.893 100.284 379.953 100.435 379.953H450.564C450.714 379.952 450.859 379.892 450.965 379.786C451.072 379.679 451.132 379.535 451.132 379.384V371.775C451.132 371.625 451.072 371.48 450.965 371.374C450.859 371.267 450.714 371.207 450.564 371.207L100.435 371.202Z" fill="#000072"/>
<path d="M315.411 175.383V262.272H233.199V175.383L267.748 153.268L274.993 148.626L275.484 148.315L275.935 148.626L315.411 175.383Z" fill="#12B3F9"/>
<path d="M274.496 178.276C278.725 178.276 282.781 179.955 285.771 182.946C288.761 185.936 290.441 189.991 290.441 194.22V209.052H258.553V194.22C258.553 189.991 260.233 185.936 263.223 182.946C266.213 179.956 270.268 178.276 274.496 178.276Z" fill="#40A3DB"/>
<path d="M290.813 209.422H258.182V194.22C258.186 189.894 259.906 185.747 262.965 182.688C266.024 179.629 270.171 177.909 274.496 177.904C278.822 177.909 282.969 179.629 286.028 182.688C289.086 185.747 290.807 189.894 290.811 194.22L290.813 209.422ZM258.924 208.68H290.071V194.22C290.091 192.162 289.704 190.12 288.93 188.212C288.157 186.305 287.013 184.569 285.565 183.107C284.117 181.644 282.393 180.483 280.493 179.69C278.593 178.898 276.556 178.49 274.497 178.49C272.439 178.49 270.401 178.898 268.501 179.69C266.601 180.483 264.878 181.644 263.429 183.107C261.981 184.569 260.837 186.305 260.064 188.212C259.291 190.12 258.903 192.162 258.924 194.22V208.68Z" fill="#000072"/>
<path d="M274.496 178.276C278.725 178.276 282.781 179.955 285.771 182.946C288.761 185.936 290.441 189.991 290.441 194.22V209.052H258.553V194.22C258.553 189.991 260.233 185.936 263.223 182.946C266.213 179.956 270.268 178.276 274.496 178.276Z" fill="#000072"/>
<path d="M277.019 199.165C277.002 199.873 276.709 200.546 276.203 201.041C275.696 201.535 275.016 201.812 274.308 201.812C273.6 201.812 272.92 201.535 272.414 201.041C271.907 200.546 271.614 199.873 271.597 199.165H277.019Z" fill="#FFB031"/>
<path d="M290.813 216.961H257.193C256.144 216.961 255.138 216.544 254.396 215.802C253.654 215.06 253.238 214.054 253.238 213.005C253.238 211.956 253.654 210.95 254.396 210.209C255.138 209.467 256.144 209.05 257.193 209.05H290.813C291.332 209.05 291.847 209.152 292.327 209.35C292.807 209.549 293.244 209.84 293.611 210.208C293.979 210.575 294.271 211.011 294.47 211.491C294.669 211.971 294.771 212.486 294.771 213.005C294.771 213.525 294.669 214.04 294.47 214.52C294.271 215 293.979 215.436 293.611 215.803C293.244 216.171 292.807 216.462 292.327 216.66C291.847 216.859 291.332 216.961 290.813 216.961Z" fill="#99A9B5"/>
<path d="M290.813 217.332H257.193C256.06 217.311 254.98 216.846 254.186 216.037C253.393 215.228 252.948 214.139 252.948 213.006C252.948 211.873 253.393 210.785 254.186 209.976C254.98 209.167 256.06 208.701 257.193 208.68H290.813C291.946 208.701 293.025 209.167 293.819 209.976C294.613 210.785 295.058 211.873 295.058 213.006C295.058 214.139 294.613 215.228 293.819 216.037C293.025 216.846 291.946 217.311 290.813 217.332ZM257.193 209.422C256.255 209.441 255.363 209.828 254.706 210.498C254.05 211.168 253.683 212.068 253.683 213.006C253.683 213.944 254.05 214.844 254.706 215.514C255.363 216.185 256.255 216.571 257.193 216.59H290.813C291.75 216.571 292.643 216.185 293.299 215.514C293.955 214.844 294.323 213.944 294.323 213.006C294.323 212.068 293.955 211.168 293.299 210.498C292.643 209.828 291.75 209.441 290.813 209.422H257.193Z" fill="#000072"/>
<g opacity="0.55">
<path d="M294.771 213.004C294.771 213.514 294.673 214.02 294.482 214.494C294.19 213.762 293.684 213.134 293.031 212.692C292.378 212.251 291.607 212.015 290.819 212.016H257.202C256.412 212.013 255.639 212.247 254.985 212.689C254.33 213.131 253.823 213.76 253.531 214.494C253.287 213.893 253.194 213.241 253.261 212.596C253.328 211.95 253.552 211.331 253.915 210.793C254.278 210.255 254.768 209.815 255.341 209.511C255.914 209.207 256.553 209.049 257.202 209.05H290.819C291.338 209.05 291.852 209.152 292.332 209.351C292.811 209.55 293.247 209.841 293.614 210.208C293.981 210.575 294.272 211.011 294.471 211.491C294.669 211.97 294.771 212.485 294.771 213.004Z" fill="white"/>
</g>
<path d="M290.813 218.815H257.193C255.652 218.815 254.174 218.203 253.085 217.113C251.995 216.024 251.383 214.546 251.383 213.005C251.383 211.465 251.995 209.987 253.085 208.898C254.174 207.808 255.652 207.196 257.193 207.196H290.813C292.353 207.196 293.831 207.808 294.921 208.898C296.01 209.987 296.622 211.465 296.622 213.005C296.622 214.546 296.01 216.024 294.921 217.113C293.831 218.203 292.353 218.815 290.813 218.815ZM257.193 210.904C256.636 210.904 256.101 211.126 255.707 211.52C255.313 211.914 255.092 212.448 255.092 213.005C255.092 213.563 255.313 214.097 255.707 214.491C256.101 214.885 256.636 215.106 257.193 215.106H290.813C291.37 215.106 291.904 214.885 292.298 214.491C292.692 214.097 292.914 213.563 292.914 213.005C292.914 212.448 292.692 211.914 292.298 211.52C291.904 211.126 291.37 210.904 290.813 210.904H257.193Z" fill="#000072"/>
<g opacity="0.55">
<path d="M277.019 199.165C277.02 199.6 276.915 200.029 276.715 200.415H271.902C271.7 200.029 271.596 199.6 271.597 199.165H277.019Z" fill="#000072"/>
</g>
<g opacity="0.3">
<path d="M315.411 175.383V190.296L277.003 164.281C276.555 163.976 276.026 163.813 275.484 163.813C274.941 163.813 274.412 163.976 273.964 164.281L233.192 191.889V176.671L267.746 153.268L273.962 149.051C274.274 148.84 274.624 148.694 274.993 148.619C275.303 148.564 275.62 148.564 275.93 148.619L315.411 175.383Z" fill="#000072"/>
</g>
<path d="M275.484 178.297H273.125V188.16H275.484V178.297Z" fill="white"/>
<path d="M275.854 188.532H272.755V177.921H275.854V188.532ZM273.497 187.79H275.112V178.669H273.497V187.79Z" fill="#000072"/>
<path d="M283.336 197.134C283.337 197.435 283.278 197.733 283.164 198.011C283.049 198.289 282.88 198.542 282.667 198.754C282.454 198.966 282.201 199.134 281.922 199.248C281.644 199.362 281.346 199.42 281.045 199.418H267.95C267.644 199.426 267.34 199.373 267.056 199.262C266.771 199.15 266.512 198.983 266.293 198.77C266.074 198.557 265.9 198.302 265.781 198.02C265.662 197.739 265.601 197.436 265.601 197.131C265.601 196.825 265.662 196.523 265.781 196.241C265.9 195.96 266.074 195.705 266.293 195.491C266.512 195.278 266.771 195.111 267.056 195C267.34 194.888 267.644 194.835 267.95 194.843V192.389C267.976 190.718 268.658 189.124 269.849 187.951C271.04 186.779 272.645 186.122 274.316 186.122C275.987 186.122 277.592 186.779 278.783 187.951C279.974 189.124 280.656 190.718 280.682 192.389V194.843H281.053C281.659 194.844 282.241 195.086 282.669 195.516C283.097 195.946 283.337 196.528 283.336 197.134Z" fill="#FFB031"/>
<g opacity="0.55">
<path d="M283.336 197.135C283.337 197.435 283.278 197.733 283.163 198.011C283.048 198.289 282.88 198.542 282.667 198.754C282.453 198.966 282.2 199.134 281.922 199.248C281.644 199.362 281.346 199.42 281.045 199.418H279.992C280.297 199.426 280.601 199.373 280.886 199.262C281.17 199.15 281.43 198.983 281.649 198.77C281.867 198.557 282.041 198.302 282.16 198.02C282.279 197.739 282.34 197.436 282.34 197.131C282.34 196.825 282.279 196.523 282.16 196.241C282.041 195.96 281.867 195.705 281.649 195.491C281.43 195.278 281.17 195.111 280.886 195C280.601 194.888 280.297 194.835 279.992 194.843H279.619V192.389C279.617 190.792 279.016 189.253 277.933 188.079C276.851 186.904 275.366 186.18 273.775 186.048C273.945 186.033 274.123 186.027 274.301 186.027C275.989 186.026 277.609 186.696 278.803 187.889C279.998 189.082 280.67 190.701 280.671 192.389V194.843H281.042C281.343 194.842 281.641 194.901 281.92 195.016C282.199 195.131 282.452 195.299 282.665 195.512C282.878 195.725 283.047 195.978 283.162 196.256C283.278 196.535 283.337 196.833 283.336 197.135Z" fill="#000072"/>
</g>
<g opacity="0.55">
<path d="M279.665 188.962C278.815 187.983 277.686 187.288 276.429 186.968C275.172 186.649 273.848 186.721 272.633 187.176C271.419 187.63 270.372 188.444 269.633 189.509C268.894 190.575 268.498 191.841 268.498 193.137V195.591C267.892 195.593 267.311 195.832 266.881 196.258C266.668 196.472 266.499 196.725 266.385 197.004C266.27 197.283 266.212 197.581 266.214 197.883C266.216 198.218 266.289 198.549 266.428 198.855C266.079 198.547 265.832 198.141 265.72 197.69C265.608 197.238 265.636 196.764 265.801 196.329C265.965 195.894 266.258 195.519 266.64 195.255C267.023 194.991 267.477 194.849 267.942 194.849V192.395C267.944 191.022 268.391 189.686 269.216 188.587C270.04 187.489 271.198 186.686 272.516 186.3C273.834 185.913 275.241 185.963 276.529 186.442C277.816 186.922 278.913 187.804 279.658 188.959L279.665 188.962Z" fill="white"/>
</g>
<path d="M290.441 210.904H258.553C258.31 210.905 258.069 210.857 257.844 210.764C257.619 210.67 257.414 210.534 257.242 210.362C257.07 210.189 256.933 209.985 256.84 209.76C256.747 209.535 256.699 209.294 256.699 209.05V194.22C256.704 189.501 258.581 184.977 261.917 181.64C265.254 178.304 269.778 176.427 274.496 176.421C279.215 176.427 283.739 178.304 287.076 181.64C290.412 184.977 292.289 189.501 292.294 194.22V209.05C292.294 209.294 292.246 209.535 292.153 209.76C292.06 209.985 291.924 210.189 291.751 210.361C291.579 210.533 291.375 210.67 291.15 210.763C290.925 210.856 290.684 210.904 290.441 210.904ZM260.405 207.196H288.584V194.22C288.603 192.357 288.253 190.509 287.554 188.782C286.855 187.056 285.82 185.485 284.51 184.161C283.199 182.837 281.64 181.786 279.92 181.068C278.201 180.351 276.357 179.981 274.494 179.981C272.631 179.981 270.787 180.351 269.068 181.068C267.349 181.786 265.789 182.837 264.478 184.161C263.168 185.485 262.133 187.056 261.434 188.782C260.735 190.509 260.385 192.357 260.405 194.22V207.196Z" fill="#000072"/>
<path d="M281.434 194.943L267.942 194.201L281.434 193.459V194.943Z" fill="#000072"/>
<g opacity="0.55">
<path d="M275.484 178.565V182.435C274.712 182.175 273.872 182.209 273.125 182.532V178.315C273.915 178.357 274.702 178.441 275.484 178.565Z" fill="#000072"/>
</g>
<g opacity="0.35">
<path d="M272.995 189.304C273.375 189.66 272.867 190.229 272.2 190.936C271.533 191.644 270.95 192.223 270.579 191.873C270.207 191.524 270.435 190.653 271.102 189.946C271.769 189.238 272.617 188.946 272.995 189.304Z" fill="white"/>
</g>
<path d="M315.408 264.499H233.202C232.612 264.499 232.046 264.265 231.628 263.848C231.211 263.431 230.976 262.865 230.976 262.275V175.383C230.976 175.009 231.07 174.642 231.249 174.314C231.429 173.987 231.688 173.709 232.002 173.508L274.284 146.44C274.65 146.206 275.078 146.084 275.513 146.09C275.948 146.096 276.372 146.229 276.732 146.473L316.656 173.547C316.957 173.751 317.203 174.025 317.374 174.346C317.544 174.668 317.633 175.025 317.633 175.389V262.273C317.633 262.863 317.398 263.429 316.981 263.847C316.564 264.264 315.998 264.499 315.408 264.499ZM235.428 260.049H313.184V176.562L275.448 150.98L235.426 176.598L235.428 260.049Z" fill="#000072"/>
<path d="M320.58 186.089L276.482 156.216C276.032 155.91 275.501 155.747 274.958 155.747C274.414 155.747 273.884 155.91 273.434 156.216L229.336 186.089C228.739 186.493 228.006 186.643 227.299 186.507C226.592 186.37 225.967 185.959 225.563 185.363L221.539 179.427C221.339 179.131 221.199 178.8 221.127 178.45C221.055 178.101 221.053 177.74 221.12 177.39C221.188 177.04 221.324 176.706 221.52 176.408C221.717 176.11 221.97 175.854 222.265 175.654L273.434 140.992C273.884 140.687 274.415 140.524 274.958 140.524C275.501 140.524 276.032 140.687 276.482 140.992L327.652 175.654C328.248 176.058 328.66 176.683 328.796 177.39C328.932 178.098 328.781 178.83 328.377 179.427L324.353 185.363C323.949 185.959 323.324 186.37 322.617 186.507C321.909 186.643 321.177 186.493 320.58 186.089Z" fill="white"/>
<g opacity="0.55">
<path d="M328.9 178.964L328.01 180.269L277.004 145.719C276.556 145.411 276.026 145.246 275.484 145.246C274.941 145.246 274.411 145.411 273.964 145.719L222.956 180.264L222.067 178.96C221.866 178.664 221.725 178.332 221.653 177.982C221.581 177.633 221.578 177.272 221.646 176.921C221.713 176.57 221.849 176.236 222.046 175.938C222.243 175.64 222.497 175.384 222.793 175.184L273.964 140.528C274.411 140.22 274.941 140.056 275.484 140.056C276.026 140.056 276.556 140.22 277.004 140.528L328.174 175.189C328.47 175.389 328.724 175.645 328.921 175.943C329.117 176.241 329.254 176.575 329.321 176.926C329.389 177.277 329.386 177.637 329.314 177.987C329.242 178.337 329.101 178.669 328.9 178.964Z" fill="white"/>
</g>
<path d="M228.347 188.318C228.032 188.318 227.719 188.288 227.41 188.229C226.772 188.108 226.164 187.862 225.622 187.504C225.08 187.147 224.614 186.686 224.251 186.147L220.227 180.211C219.492 179.126 219.219 177.793 219.466 176.507C219.714 175.22 220.462 174.084 221.547 173.349L272.717 138.686C273.534 138.129 274.5 137.831 275.489 137.831C276.478 137.831 277.444 138.129 278.261 138.686L329.43 173.349C330.515 174.084 331.263 175.221 331.51 176.508C331.758 177.795 331.483 179.128 330.748 180.213L326.726 186.149C326.362 186.686 325.896 187.147 325.354 187.504C324.812 187.862 324.205 188.109 323.567 188.231C322.93 188.354 322.274 188.349 321.638 188.218C321.003 188.087 320.399 187.832 319.862 187.467L275.76 157.594C275.678 157.539 275.582 157.509 275.484 157.509C275.385 157.509 275.289 157.539 275.207 157.594L231.109 187.467C230.295 188.022 229.332 188.319 228.347 188.318ZM275.484 153.054C276.472 153.056 277.438 153.354 278.255 153.91L322.353 183.784C322.406 183.821 322.466 183.846 322.529 183.859C322.592 183.872 322.657 183.872 322.72 183.859C322.784 183.847 322.844 183.822 322.897 183.787C322.951 183.752 322.997 183.706 323.033 183.652L327.055 177.716C327.092 177.663 327.118 177.603 327.131 177.54C327.144 177.477 327.144 177.411 327.132 177.348C327.12 177.284 327.096 177.224 327.061 177.17C327.025 177.117 326.979 177.071 326.926 177.035L275.76 142.367C275.679 142.311 275.583 142.282 275.484 142.282C275.386 142.282 275.29 142.311 275.209 142.367L224.039 177.031C223.984 177.066 223.938 177.111 223.902 177.165C223.866 177.219 223.842 177.28 223.831 177.343C223.818 177.406 223.818 177.472 223.831 177.535C223.844 177.598 223.869 177.658 223.906 177.712L227.93 183.648C227.965 183.701 228.012 183.747 228.065 183.782C228.119 183.818 228.179 183.842 228.242 183.854C228.305 183.867 228.37 183.868 228.434 183.855C228.497 183.842 228.557 183.816 228.609 183.779L272.709 153.906C273.528 153.35 274.494 153.053 275.484 153.054Z" fill="#000072"/>
<path d="M341.241 285.261V368.806H209.726V285.261L275.484 241.256L341.241 285.261Z" fill="#12B3F9"/>
<path d="M341.238 371.035H209.73C209.437 371.035 209.148 370.977 208.878 370.865C208.608 370.754 208.363 370.59 208.156 370.383C207.95 370.176 207.786 369.931 207.674 369.661C207.562 369.391 207.505 369.101 207.505 368.809V285.258C207.505 284.893 207.595 284.533 207.767 284.21C207.94 283.888 208.189 283.613 208.492 283.41L274.246 239.409C274.612 239.164 275.043 239.033 275.484 239.033C275.924 239.033 276.355 239.164 276.721 239.409L342.475 283.41C342.779 283.613 343.028 283.888 343.2 284.21C343.372 284.533 343.462 284.893 343.462 285.258V368.807C343.463 369.1 343.405 369.389 343.294 369.66C343.182 369.93 343.018 370.175 342.812 370.382C342.605 370.589 342.36 370.753 342.09 370.865C341.82 370.977 341.53 371.035 341.238 371.035ZM211.954 366.585H339.013V286.45L275.484 243.939L211.954 286.45V366.585Z" fill="#000072"/>
<g opacity="0.3">
<path d="M341.241 285.261V297.356L277.003 253.848C276.555 253.543 276.026 253.38 275.484 253.38C274.941 253.38 274.412 253.543 273.964 253.848L209.726 297.356V285.261L275.491 241.256L341.241 285.261Z" fill="#000072"/>
</g>
<path d="M352.115 368.809H198.853V382.157H352.115V368.809Z" fill="white"/>
<g opacity="0.55">
<path d="M352.112 369.671H198.856V373.134H352.112V369.671Z" fill="white"/>
</g>
<path d="M245.004 302.275H305.962C307.663 302.275 309.295 302.951 310.497 304.154C311.7 305.357 312.376 306.988 312.376 308.689V368.807H238.59V308.689C238.59 307.847 238.756 307.013 239.078 306.235C239.4 305.456 239.873 304.749 240.468 304.154C241.064 303.558 241.771 303.086 242.549 302.763C243.327 302.441 244.161 302.275 245.004 302.275Z" fill="#FFB031"/>
<g opacity="0.55">
<path d="M311.606 305.763C310.767 305.375 309.853 305.175 308.929 305.177H247.97C246.269 305.178 244.638 305.854 243.436 307.057C242.233 308.26 241.557 309.891 241.556 311.591V368.559H238.404V308.441C238.404 306.739 239.08 305.108 240.283 303.905C241.486 302.702 243.118 302.026 244.819 302.025H305.778C307.005 302.026 308.206 302.378 309.239 303.041C310.272 303.703 311.094 304.648 311.606 305.763Z" fill="white"/>
</g>
<path d="M304.962 309.69H275.484V368.809H304.962V309.69Z" fill="#FF8A30"/>
<path d="M305.332 369.181H275.112V309.32H305.332V369.181ZM275.854 368.439H304.597V310.06H275.854V368.439Z" fill="#000072"/>
<path d="M275.484 309.69H246.005V368.809H275.484V309.69Z" fill="#FF8A30"/>
<path d="M275.854 369.181H245.635V309.32H275.854V369.181ZM246.377 368.439H275.12V310.06H246.377V368.439Z" fill="#000072"/>
<path d="M352.115 384.383H198.857C198.267 384.382 197.701 384.148 197.284 383.73C196.867 383.313 196.633 382.747 196.633 382.157V368.807C196.633 368.218 196.868 367.652 197.285 367.235C197.702 366.818 198.267 366.583 198.857 366.583H352.119C352.709 366.583 353.275 366.818 353.692 367.235C354.109 367.652 354.344 368.218 354.344 368.807V382.155C354.344 382.448 354.287 382.738 354.175 383.008C354.063 383.279 353.898 383.525 353.691 383.731C353.484 383.938 353.238 384.102 352.968 384.214C352.697 384.326 352.408 384.383 352.115 384.383ZM201.077 379.933H349.89V371.029H201.077V379.933Z" fill="#000072"/>
<path d="M312.378 370.663H238.59C238.346 370.663 238.105 370.615 237.88 370.522C237.655 370.429 237.45 370.293 237.278 370.12C237.106 369.948 236.969 369.744 236.876 369.519C236.783 369.294 236.735 369.052 236.735 368.809V308.689C236.738 306.497 237.61 304.396 239.16 302.846C240.71 301.296 242.812 300.424 245.004 300.421H305.964C308.156 300.424 310.257 301.296 311.807 302.846C313.357 304.396 314.229 306.497 314.232 308.689V368.807C314.232 369.051 314.184 369.292 314.091 369.517C313.998 369.742 313.862 369.947 313.689 370.119C313.517 370.292 313.313 370.428 313.088 370.522C312.863 370.615 312.621 370.663 312.378 370.663ZM240.444 366.955H310.523V308.689C310.522 307.48 310.041 306.321 309.186 305.467C308.331 304.612 307.172 304.131 305.964 304.129H245.004C243.795 304.131 242.636 304.611 241.781 305.466C240.926 306.321 240.445 307.48 240.444 308.689V366.955Z" fill="#000072"/>
<path d="M304.962 370.293H246.005C245.81 370.293 245.617 370.254 245.437 370.18C245.257 370.105 245.094 369.996 244.956 369.858C244.818 369.72 244.709 369.557 244.635 369.377C244.56 369.197 244.522 369.004 244.522 368.809V309.69C244.522 309.297 244.679 308.92 244.957 308.641C245.235 308.363 245.612 308.207 246.005 308.206H304.962C305.356 308.207 305.733 308.363 306.011 308.641C306.289 308.92 306.445 309.297 306.445 309.69V368.807C306.445 369.002 306.407 369.195 306.333 369.375C306.258 369.556 306.149 369.719 306.012 369.857C305.874 369.995 305.71 370.105 305.53 370.18C305.35 370.254 305.157 370.293 304.962 370.293ZM247.489 367.325H303.478V311.174H247.489V367.325Z" fill="#000072"/>
<g opacity="0.3">
<path d="M304.962 309.689V314.427H256.123C255.459 314.427 254.802 314.557 254.189 314.811C253.576 315.065 253.019 315.437 252.55 315.907C252.081 316.376 251.709 316.933 251.455 317.546C251.201 318.159 251.071 318.816 251.071 319.48V368.807H246.005V309.689H304.962Z" fill="#000072"/>
</g>
<path d="M275.484 369.921C275.189 369.921 274.906 369.804 274.697 369.595C274.489 369.387 274.371 369.104 274.371 368.809V309.69C274.371 309.395 274.489 309.112 274.697 308.904C274.906 308.695 275.189 308.578 275.484 308.578C275.779 308.578 276.061 308.695 276.27 308.904C276.479 309.112 276.596 309.395 276.596 309.69V368.807C276.596 368.953 276.567 369.098 276.512 369.233C276.456 369.368 276.374 369.491 276.271 369.595C276.167 369.698 276.045 369.78 275.91 369.836C275.774 369.892 275.63 369.921 275.484 369.921Z" fill="#000072"/>
<path d="M284.753 346.438C284.196 346.438 283.661 346.217 283.267 345.823C282.873 345.429 282.652 344.894 282.652 344.337V335.561C282.652 335.004 282.873 334.47 283.267 334.076C283.661 333.682 284.196 333.46 284.753 333.46C285.31 333.46 285.845 333.682 286.239 334.076C286.633 334.47 286.854 335.004 286.854 335.561V344.337C286.854 344.894 286.633 345.429 286.239 345.823C285.845 346.217 285.31 346.438 284.753 346.438Z" fill="#000072"/>
<path d="M268.315 335.561C268.315 334.401 267.374 333.46 266.214 333.46C265.054 333.46 264.113 334.401 264.113 335.561V344.337C264.113 345.498 265.054 346.438 266.214 346.438C267.374 346.438 268.315 345.498 268.315 344.337V335.561Z" fill="#000072"/>
<path d="M285.939 287.517C291.714 281.743 291.714 272.38 285.939 266.606C280.165 260.831 270.802 260.831 265.027 266.606C259.253 272.38 259.253 281.743 265.027 287.517C270.802 293.292 280.165 293.292 285.939 287.517Z" fill="white"/>
<path d="M275.484 292.22C272.487 292.22 269.557 291.331 267.065 289.666C264.573 288.001 262.631 285.635 261.484 282.866C260.338 280.098 260.038 277.051 260.622 274.112C261.207 271.172 262.65 268.473 264.769 266.353C266.888 264.234 269.588 262.791 272.527 262.207C275.467 261.622 278.513 261.922 281.282 263.069C284.051 264.216 286.417 266.158 288.082 268.65C289.747 271.141 290.636 274.071 290.636 277.068C290.63 281.084 289.031 284.935 286.191 287.775C283.351 290.615 279.5 292.214 275.484 292.22ZM275.484 262.645C272.632 262.645 269.845 263.491 267.474 265.075C265.103 266.659 263.255 268.91 262.164 271.545C261.073 274.179 260.788 277.077 261.344 279.874C261.9 282.67 263.273 285.239 265.289 287.255C267.306 289.272 269.874 290.645 272.671 291.201C275.468 291.757 278.366 291.472 281.001 290.381C283.635 289.289 285.887 287.442 287.471 285.071C289.055 282.7 289.9 279.913 289.9 277.061C289.896 273.239 288.376 269.575 285.673 266.872C282.97 264.169 279.306 262.649 275.484 262.645Z" fill="#000072"/>
<path d="M297.127 123.379H283.542V136.963H297.127V123.379Z" fill="#12B3F9"/>
<g opacity="0.55">
<path d="M297.13 123.383H283.544V126.935H297.13V123.383Z" fill="white"/>
</g>
<path d="M297.127 138.817H283.536C283.293 138.818 283.052 138.77 282.827 138.677C282.601 138.584 282.397 138.447 282.225 138.275C282.053 138.103 281.916 137.898 281.823 137.673C281.73 137.448 281.682 137.207 281.682 136.963V123.373C281.685 122.882 281.883 122.412 282.231 122.067C282.58 121.721 283.052 121.528 283.543 121.53H297.133C297.624 121.529 298.096 121.724 298.444 122.071C298.791 122.417 298.988 122.888 298.989 123.379V136.969C298.988 137.213 298.94 137.454 298.846 137.679C298.752 137.904 298.614 138.108 298.441 138.28C298.268 138.451 298.063 138.587 297.838 138.679C297.612 138.772 297.37 138.819 297.127 138.817ZM285.398 135.109H295.274V125.233H285.398V135.109Z" fill="#000072"/>
<g opacity="0.3">
<path d="M292.926 286.128C292.053 289.206 290.204 291.917 287.658 293.855C285.113 295.793 282.007 296.853 278.808 296.875C275.608 296.898 272.488 295.882 269.915 293.981C267.342 292.079 265.455 289.394 264.538 286.329C266.933 288.493 269.971 289.814 273.187 290.089C276.403 290.365 279.621 289.58 282.35 287.856C285.078 286.131 287.167 283.56 288.298 280.537C289.429 277.514 289.539 274.203 288.612 271.112C290.661 272.962 292.152 275.349 292.914 278.003C293.677 280.657 293.681 283.472 292.926 286.128Z" fill="#000072"/>
</g>
<g opacity="0.3">
<path d="M288.654 270.34C286.16 267.858 282.863 266.346 279.355 266.076C275.847 265.807 272.358 266.797 269.514 268.868C266.671 270.94 264.659 273.958 263.84 277.379C263.022 280.801 263.45 284.403 265.049 287.537C263.533 286.028 262.362 284.208 261.618 282.203C260.874 280.198 260.573 278.056 260.737 275.924C260.901 273.791 261.526 271.72 262.568 269.852C263.61 267.985 265.045 266.365 266.773 265.106C268.502 263.847 270.483 262.977 272.58 262.558C274.678 262.138 276.841 262.179 278.921 262.676C281.001 263.174 282.948 264.117 284.628 265.44C286.309 266.763 287.682 268.435 288.654 270.34Z" fill="#000072"/>
</g>
<path d="M275.483 293.702C272.192 293.702 268.975 292.726 266.238 290.898C263.501 289.069 261.369 286.47 260.109 283.43C258.849 280.389 258.52 277.043 259.162 273.815C259.804 270.587 261.389 267.622 263.716 265.295C266.044 262.967 269.009 261.382 272.237 260.74C275.465 260.098 278.811 260.428 281.852 261.687C284.893 262.947 287.492 265.08 289.32 267.816C291.149 270.553 292.125 273.77 292.125 277.062C292.12 281.473 290.365 285.703 287.245 288.823C284.125 291.943 279.895 293.697 275.483 293.702ZM275.483 264.129C272.926 264.129 270.425 264.888 268.298 266.309C266.172 267.73 264.514 269.749 263.535 272.112C262.556 274.476 262.3 277.076 262.799 279.585C263.298 282.093 264.53 284.398 266.339 286.206C268.147 288.015 270.452 289.246 272.96 289.745C275.469 290.244 278.069 289.988 280.433 289.01C282.796 288.031 284.816 286.373 286.237 284.246C287.658 282.12 288.416 279.619 288.416 277.062C288.412 273.633 287.048 270.346 284.624 267.921C282.199 265.497 278.912 264.133 275.483 264.129Z" fill="#000072"/>
<path d="M272.901 281.799C272.697 281.799 272.497 281.743 272.322 281.637C272.148 281.531 272.006 281.378 271.913 281.197C271.819 281.015 271.777 280.811 271.792 280.608C271.806 280.404 271.877 280.208 271.995 280.042L274.368 276.707V270.302C274.368 270.007 274.485 269.725 274.694 269.516C274.902 269.307 275.185 269.19 275.48 269.19C275.775 269.19 276.058 269.307 276.267 269.516C276.475 269.725 276.593 270.007 276.593 270.302V277.069C276.593 277.301 276.521 277.526 276.386 277.714L273.807 281.338C273.704 281.482 273.568 281.598 273.41 281.679C273.253 281.759 273.078 281.8 272.901 281.799Z" fill="#000072"/>
<path d="M361.656 301.808L277.007 244.466C276.557 244.161 276.027 243.998 275.484 243.998C274.941 243.998 274.41 244.161 273.961 244.466L189.311 301.808C188.714 302.212 187.982 302.362 187.275 302.226C186.567 302.089 185.943 301.678 185.539 301.082L181.515 295.146C181.314 294.85 181.174 294.519 181.103 294.169C181.031 293.82 181.028 293.459 181.096 293.109C181.163 292.759 181.299 292.425 181.496 292.127C181.692 291.829 181.945 291.573 182.241 291.373L273.961 229.242C274.41 228.937 274.941 228.774 275.484 228.774C276.027 228.774 276.557 228.937 277.007 229.242L368.726 291.373C369.022 291.573 369.275 291.829 369.472 292.127C369.668 292.425 369.804 292.759 369.871 293.109C369.939 293.459 369.937 293.82 369.865 294.169C369.793 294.519 369.653 294.85 369.453 295.146L365.429 301.082C365.024 301.678 364.4 302.089 363.693 302.226C362.985 302.362 362.253 302.212 361.656 301.808Z" fill="#99A9B5"/>
<path d="M363.174 302.645C362.561 302.644 361.963 302.459 361.456 302.114L276.807 244.778C276.419 244.515 275.96 244.374 275.491 244.374C275.022 244.374 274.564 244.515 274.176 244.778L189.527 302.119C188.848 302.577 188.016 302.747 187.213 302.593C186.409 302.439 185.699 301.972 185.239 301.296L181.216 295.36C180.989 295.024 180.83 294.647 180.748 294.25C180.666 293.853 180.664 293.443 180.74 293.045C180.817 292.647 180.971 292.268 181.194 291.929C181.417 291.59 181.705 291.299 182.041 291.072L273.759 228.942C274.269 228.593 274.873 228.407 275.491 228.407C276.108 228.407 276.712 228.593 277.222 228.942L368.942 291.075C369.278 291.302 369.566 291.593 369.789 291.931C370.012 292.27 370.166 292.649 370.243 293.047C370.32 293.445 370.317 293.855 370.235 294.252C370.153 294.649 369.994 295.026 369.767 295.361L365.744 301.297C365.459 301.715 365.075 302.057 364.627 302.292C364.179 302.527 363.68 302.648 363.174 302.645ZM361.864 301.5C362.119 301.673 362.405 301.795 362.707 301.857C363.008 301.919 363.319 301.921 363.622 301.863C363.924 301.805 364.212 301.688 364.47 301.519C364.727 301.349 364.948 301.131 365.121 300.876L369.145 294.94C369.318 294.685 369.439 294.398 369.502 294.096C369.564 293.795 369.567 293.483 369.508 293.181C369.45 292.878 369.333 292.59 369.164 292.332C368.994 292.075 368.775 291.854 368.52 291.681L276.807 229.545C276.419 229.281 275.96 229.141 275.491 229.141C275.022 229.141 274.564 229.281 274.176 229.545L182.455 291.676C182.2 291.849 181.981 292.07 181.811 292.328C181.642 292.585 181.524 292.873 181.466 293.176C181.408 293.479 181.411 293.79 181.473 294.092C181.535 294.394 181.657 294.68 181.83 294.935L185.853 300.871C186.025 301.126 186.247 301.345 186.504 301.514C186.761 301.684 187.049 301.801 187.352 301.859C187.655 301.917 187.966 301.915 188.268 301.853C188.57 301.79 188.856 301.669 189.111 301.496L273.751 244.153C274.261 243.805 274.865 243.619 275.483 243.619C276.101 243.619 276.704 243.805 277.214 244.153L361.864 301.5Z" fill="#000072"/>
<g opacity="0.55">
<path d="M369.481 294.713L368.465 296.211L277.035 234.275C276.586 233.971 276.056 233.809 275.514 233.809C274.972 233.809 274.442 233.971 273.993 234.275L182.564 296.211L181.547 294.713C181.346 294.418 181.206 294.086 181.134 293.736C181.061 293.387 181.059 293.026 181.127 292.675C181.194 292.325 181.33 291.991 181.527 291.693C181.724 291.395 181.978 291.139 182.274 290.939L273.995 228.811C274.442 228.502 274.972 228.337 275.516 228.337C276.059 228.337 276.589 228.502 277.036 228.811L368.756 290.939C369.052 291.139 369.306 291.395 369.503 291.693C369.699 291.991 369.835 292.325 369.903 292.676C369.97 293.026 369.968 293.387 369.895 293.736C369.823 294.086 369.682 294.418 369.481 294.713Z" fill="white"/>
</g>
<path d="M363.171 304.498C362.186 304.498 361.223 304.203 360.408 303.65L275.76 246.307C275.678 246.253 275.582 246.224 275.484 246.224C275.385 246.224 275.289 246.253 275.207 246.307L190.559 303.65C189.474 304.383 188.142 304.656 186.855 304.409C185.569 304.161 184.433 303.414 183.697 302.33L179.673 296.394C178.938 295.309 178.664 293.976 178.912 292.689C179.16 291.403 179.908 290.267 180.993 289.532L272.712 227.4C273.529 226.843 274.495 226.546 275.484 226.546C276.472 226.546 277.438 226.843 278.255 227.4L369.974 289.532C371.059 290.267 371.807 291.403 372.055 292.689C372.303 293.976 372.029 295.309 371.294 296.394L367.27 302.33C366.817 302.999 366.206 303.547 365.491 303.925C364.776 304.303 363.98 304.499 363.171 304.498ZM362.903 299.968C363.011 300.041 363.144 300.068 363.272 300.044C363.4 300.019 363.513 299.945 363.587 299.837L367.611 293.901C367.683 293.793 367.71 293.66 367.686 293.532C367.661 293.405 367.587 293.292 367.48 293.218L275.76 231.08C275.678 231.026 275.582 230.997 275.484 230.997C275.385 230.997 275.289 231.026 275.207 231.08L183.487 293.212C183.434 293.248 183.388 293.294 183.353 293.347C183.318 293.401 183.293 293.461 183.281 293.524C183.268 293.588 183.268 293.653 183.281 293.716C183.294 293.78 183.319 293.84 183.356 293.893L187.38 299.829C187.454 299.936 187.568 300.01 187.695 300.035C187.823 300.059 187.956 300.032 188.064 299.96L272.712 242.618C273.529 242.061 274.495 241.763 275.484 241.763C276.472 241.763 277.438 242.061 278.255 242.618L362.904 299.96L362.903 299.968Z" fill="#000072"/>
<path d="M275.509 142.282C274.919 142.282 274.353 142.048 273.936 141.631C273.519 141.214 273.284 140.648 273.284 140.058V113.276C273.284 112.686 273.519 112.12 273.936 111.703C274.353 111.286 274.919 111.052 275.509 111.052C276.099 111.052 276.664 111.286 277.082 111.703C277.499 112.12 277.733 112.686 277.733 113.276V140.058C277.733 140.648 277.499 141.214 277.082 141.631C276.664 142.048 276.099 142.282 275.509 142.282Z" fill="#000072"/>
<path d="M289.093 117.817H275.509V131.401H289.093V117.817Z" fill="#12B3F9"/>
<g opacity="0.55">
<path d="M289.091 117.822H275.505V121.374H289.091V117.822Z" fill="white"/>
</g>
<path d="M278.721 116.488C280.495 114.714 280.495 111.838 278.721 110.064C276.947 108.29 274.071 108.29 272.297 110.064C270.523 111.838 270.523 114.714 272.297 116.488C274.071 118.262 276.947 118.262 278.721 116.488Z" fill="#000072"/>
<path d="M289.093 133.256H275.502C275.011 133.256 274.539 133.061 274.191 132.713C273.844 132.366 273.648 131.894 273.648 131.402V117.812C273.648 117.569 273.696 117.327 273.789 117.102C273.882 116.877 274.019 116.673 274.191 116.501C274.363 116.328 274.568 116.192 274.793 116.099C275.018 116.006 275.259 115.958 275.502 115.958H289.093C289.336 115.958 289.578 116.006 289.803 116.099C290.028 116.192 290.232 116.328 290.404 116.501C290.577 116.673 290.713 116.877 290.806 117.102C290.899 117.327 290.947 117.569 290.947 117.812V131.402C290.947 131.894 290.752 132.366 290.404 132.713C290.056 133.061 289.585 133.256 289.093 133.256ZM277.363 129.548H287.239V119.673H277.363V129.548Z" fill="#000072"/>
<path d="M524.558 383.043C514.181 384.386 503.804 384.708 493.427 384.873C488.239 384.964 483.05 384.981 477.862 384.958C472.672 384.966 467.485 384.903 462.295 384.859C451.919 384.779 441.542 384.75 431.164 384.773H88.7124H73.1475L65.3635 384.836L57.581 384.942C47.2039 384.973 36.8268 384.895 26.4497 383.038C26.2469 383.001 26.0634 382.894 25.9313 382.736C25.7992 382.578 25.7268 382.379 25.7268 382.173C25.7268 381.966 25.7992 381.767 25.9313 381.609C26.0634 381.451 26.2469 381.344 26.4497 381.307C36.8268 379.45 47.2039 379.372 57.581 379.403L65.3635 379.511L73.1475 379.572H88.7124H431.156C441.534 379.584 451.911 379.555 462.287 379.484C467.477 379.44 472.665 379.38 477.854 379.386C483.042 379.362 488.231 379.386 493.419 379.47C503.796 379.636 514.173 379.957 524.55 381.301C524.76 381.329 524.952 381.432 525.091 381.592C525.23 381.751 525.307 381.955 525.307 382.166C525.307 382.378 525.23 382.582 525.091 382.741C524.952 382.9 524.76 383.003 524.55 383.032L524.558 383.043Z" fill="#000072"/>
<g opacity="0.3">
<path d="M551 386.27C551 391.639 427.657 396 275.504 396C123.351 396 0 391.639 0 386.27C0 384.812 9.12744 383.424 25.4734 382.177H525.528C541.873 383.424 551 384.812 551 386.27Z" fill="#000072"/>
</g>
<path d="M411.566 306.56H380.723C378.549 306.56 376.787 308.322 376.787 310.496V341.338C376.787 343.512 378.549 345.274 380.723 345.274H411.566C413.74 345.274 415.502 343.512 415.502 341.338V310.496C415.502 308.322 413.74 306.56 411.566 306.56Z" fill="#FF791F"/>
<path d="M411.567 345.646H380.722C379.58 345.645 378.485 345.191 377.678 344.384C376.87 343.576 376.416 342.482 376.415 341.34V310.495C376.416 309.353 376.87 308.258 377.678 307.451C378.485 306.644 379.58 306.189 380.722 306.188H411.567C412.709 306.19 413.803 306.644 414.61 307.452C415.417 308.259 415.871 309.353 415.873 310.495V341.34C415.871 342.481 415.417 343.576 414.61 344.383C413.803 345.19 412.709 345.645 411.567 345.646ZM380.722 306.93C379.777 306.931 378.871 307.307 378.203 307.976C377.534 308.644 377.158 309.55 377.157 310.495V341.34C377.158 342.285 377.534 343.191 378.203 343.859C378.871 344.527 379.777 344.903 380.722 344.904H411.567C412.512 344.903 413.418 344.527 414.087 343.859C414.755 343.191 415.131 342.285 415.132 341.34V310.495C415.131 309.55 414.755 308.644 414.087 307.976C413.418 307.307 412.512 306.931 411.567 306.93H380.722Z" fill="#000072"/>
<g opacity="0.55">
<path d="M415.318 309.292H382.443C382.084 309.292 381.728 309.362 381.395 309.499C381.063 309.637 380.761 309.838 380.507 310.093C380.253 310.347 380.051 310.649 379.914 310.981C379.777 311.313 379.706 311.669 379.706 312.029V345.132C378.868 344.912 378.126 344.42 377.597 343.732C377.068 343.045 376.782 342.202 376.784 341.335V310.496C376.785 309.452 377.2 308.451 377.938 307.713C378.676 306.974 379.678 306.559 380.722 306.558H411.564C412.399 306.558 413.211 306.823 413.886 307.314C414.56 307.805 415.062 308.498 415.318 309.292Z" fill="white"/>
</g>
<path d="M411.567 347.129H380.722C379.187 347.127 377.716 346.516 376.63 345.431C375.545 344.346 374.934 342.874 374.932 341.34V310.495C374.934 308.96 375.545 307.489 376.63 306.404C377.716 305.318 379.187 304.708 380.722 304.706H411.567C413.102 304.708 414.573 305.318 415.658 306.404C416.744 307.489 417.354 308.96 417.356 310.495V341.34C417.354 342.874 416.744 344.346 415.658 345.431C414.573 346.516 413.102 347.127 411.567 347.129ZM380.722 308.414C380.17 308.415 379.641 308.634 379.251 309.024C378.861 309.414 378.641 309.943 378.641 310.495V341.34C378.641 341.891 378.861 342.42 379.251 342.811C379.641 343.201 380.17 343.42 380.722 343.42H411.567C412.119 343.42 412.648 343.201 413.038 342.811C413.428 342.42 413.647 341.891 413.648 341.34V310.495C413.647 309.943 413.428 309.414 413.038 309.024C412.648 308.634 412.119 308.415 411.567 308.414H380.722Z" fill="#000072"/>
<path d="M408.829 338.6V313.233H383.462V338.6H408.829Z" fill="#40E6FF"/>
<path d="M409.199 338.972H383.09V312.863H409.199V338.972ZM383.832 338.231H408.457V313.603H383.832V338.231Z" fill="#000072"/>
<g opacity="0.55">
<path d="M411.795 318.179V339.211C411.796 339.496 411.74 339.778 411.631 340.041C411.523 340.305 411.363 340.544 411.162 340.746C410.961 340.948 410.722 341.108 410.459 341.217C410.196 341.327 409.914 341.383 409.629 341.383H388.598C388.313 341.384 388.03 341.328 387.766 341.218C387.502 341.109 387.263 340.949 387.061 340.748C386.859 340.546 386.699 340.306 386.59 340.042C386.481 339.779 386.425 339.496 386.425 339.211V338.603H408.829V316.009H409.629C409.913 316.009 410.195 316.066 410.458 316.175C410.721 316.284 410.96 316.444 411.161 316.645C411.363 316.847 411.522 317.086 411.631 317.349C411.74 317.612 411.796 317.894 411.795 318.179Z" fill="white"/>
</g>
<path d="M408.827 339.713H383.46C383.165 339.713 382.882 339.596 382.674 339.388C382.465 339.179 382.348 338.896 382.348 338.601V313.233C382.348 312.938 382.465 312.655 382.674 312.447C382.882 312.238 383.165 312.121 383.46 312.121H408.827C409.122 312.121 409.406 312.238 409.614 312.447C409.823 312.655 409.941 312.938 409.941 313.233V338.601C409.941 338.896 409.823 339.179 409.614 339.388C409.406 339.596 409.122 339.713 408.827 339.713ZM384.572 337.489H407.712V314.345H384.572V337.489Z" fill="#000072"/>
<path d="M396.152 339.713C395.857 339.713 395.574 339.596 395.366 339.388C395.157 339.179 395.04 338.896 395.04 338.601V313.233C395.04 312.938 395.157 312.655 395.366 312.447C395.574 312.238 395.857 312.121 396.152 312.121C396.447 312.121 396.73 312.238 396.939 312.447C397.147 312.655 397.265 312.938 397.265 313.233V338.601C397.265 338.896 397.147 339.179 396.939 339.388C396.73 339.596 396.447 339.713 396.152 339.713Z" fill="#000072"/>
<path d="M408.829 327.029H383.46C383.314 327.029 383.169 327.001 383.035 326.945C382.9 326.889 382.777 326.807 382.674 326.704C382.57 326.6 382.488 326.478 382.433 326.343C382.377 326.208 382.348 326.063 382.348 325.917C382.348 325.771 382.377 325.626 382.433 325.492C382.488 325.357 382.57 325.234 382.674 325.131C382.777 325.027 382.9 324.945 383.035 324.89C383.169 324.834 383.314 324.805 383.46 324.805H408.829C408.975 324.805 409.12 324.834 409.255 324.89C409.389 324.945 409.512 325.027 409.615 325.131C409.719 325.234 409.801 325.357 409.856 325.492C409.912 325.626 409.941 325.771 409.941 325.917C409.941 326.063 409.912 326.208 409.856 326.343C409.801 326.478 409.719 326.6 409.615 326.704C409.512 326.807 409.389 326.889 409.255 326.945C409.12 327.001 408.975 327.029 408.829 327.029Z" fill="#000072"/>
<path d="M416.528 345.274H372.949C370.75 345.274 368.968 347.056 368.968 349.255C368.968 351.453 370.75 353.235 372.949 353.235H416.528C418.727 353.235 420.509 351.453 420.509 349.255C420.509 347.056 418.727 345.274 416.528 345.274Z" fill="#40A3DB"/>
<path d="M416.527 353.607H372.944C372.365 353.618 371.791 353.513 371.253 353.299C370.716 353.086 370.226 352.767 369.813 352.362C369.4 351.957 369.072 351.473 368.848 350.94C368.625 350.407 368.509 349.834 368.509 349.256C368.509 348.677 368.625 348.104 368.848 347.571C369.072 347.038 369.4 346.554 369.813 346.149C370.226 345.744 370.716 345.425 371.253 345.212C371.791 344.998 372.365 344.893 372.944 344.904H416.527C417.105 344.893 417.68 344.998 418.217 345.212C418.755 345.425 419.244 345.744 419.657 346.149C420.07 346.554 420.398 347.038 420.622 347.571C420.846 348.104 420.961 348.677 420.961 349.256C420.961 349.834 420.846 350.407 420.622 350.94C420.398 351.473 420.07 351.957 419.657 352.362C419.244 352.767 418.755 353.086 418.217 353.299C417.68 353.513 417.105 353.618 416.527 353.607ZM372.944 345.64C372.463 345.63 371.986 345.716 371.539 345.893C371.093 346.07 370.686 346.334 370.343 346.67C369.999 347.006 369.727 347.408 369.541 347.85C369.355 348.293 369.259 348.769 369.259 349.249C369.259 349.73 369.355 350.205 369.541 350.648C369.727 351.091 369.999 351.492 370.343 351.828C370.686 352.164 371.093 352.429 371.539 352.606C371.986 352.782 372.463 352.868 372.944 352.858H416.527C417.007 352.868 417.485 352.782 417.931 352.606C418.378 352.429 418.785 352.164 419.128 351.828C419.471 351.492 419.744 351.091 419.93 350.648C420.116 350.205 420.212 349.73 420.212 349.249C420.212 348.769 420.116 348.293 419.93 347.85C419.744 347.408 419.471 347.006 419.128 346.67C418.785 346.334 418.378 346.07 417.931 345.893C417.485 345.716 417.007 345.63 416.527 345.64H372.944Z" fill="#000072"/>
<path d="M417.934 345.274H374.355C372.156 345.274 370.374 347.056 370.374 349.255C370.374 351.453 372.156 353.235 374.355 353.235H417.934C420.133 353.235 421.915 351.453 421.915 349.255C421.915 347.056 420.133 345.274 417.934 345.274Z" fill="#99A9B5"/>
<path d="M417.934 353.607H374.351C373.212 353.585 372.126 353.117 371.327 352.303C370.529 351.49 370.082 350.395 370.082 349.255C370.082 348.116 370.529 347.021 371.327 346.207C372.126 345.394 373.212 344.926 374.351 344.904H417.934C419.074 344.926 420.16 345.394 420.958 346.207C421.757 347.021 422.204 348.116 422.204 349.255C422.204 350.395 421.757 351.49 420.958 352.303C420.16 353.117 419.074 353.585 417.934 353.607ZM374.351 345.64C373.871 345.63 373.394 345.716 372.947 345.893C372.5 346.07 372.093 346.334 371.75 346.67C371.407 347.006 371.134 347.408 370.948 347.85C370.762 348.293 370.666 348.769 370.666 349.249C370.666 349.73 370.762 350.205 370.948 350.648C371.134 351.091 371.407 351.492 371.75 351.828C372.093 352.164 372.5 352.429 372.947 352.606C373.394 352.782 373.871 352.868 374.351 352.858H417.934C418.415 352.868 418.892 352.782 419.339 352.606C419.785 352.429 420.192 352.164 420.535 351.828C420.879 351.492 421.151 351.091 421.337 350.648C421.524 350.205 421.62 349.73 421.62 349.249C421.62 348.769 421.524 348.293 421.337 347.85C421.151 347.408 420.879 347.006 420.535 346.67C420.192 346.334 419.785 346.07 419.339 345.893C418.892 345.716 418.415 345.63 417.934 345.64H374.351Z" fill="#000072"/>
<g opacity="0.55">
<path d="M421.918 349.259C421.921 349.744 421.83 350.225 421.651 350.675C421.363 349.922 420.854 349.275 420.19 348.818C419.526 348.361 418.74 348.116 417.934 348.116H374.351C373.546 348.114 372.76 348.359 372.098 348.816C371.435 349.273 370.928 349.922 370.644 350.675C370.465 350.225 370.374 349.744 370.377 349.259C370.376 348.737 370.478 348.219 370.678 347.736C370.877 347.253 371.169 346.814 371.538 346.444C371.907 346.074 372.346 345.78 372.829 345.58C373.311 345.38 373.829 345.276 374.351 345.276H417.934C418.991 345.276 420.004 345.696 420.751 346.443C421.498 347.19 421.918 348.203 421.918 349.259Z" fill="white"/>
</g>
<path d="M417.934 355.091H374.351C372.82 355.066 371.36 354.44 370.287 353.348C369.213 352.257 368.611 350.787 368.611 349.256C368.611 347.724 369.213 346.254 370.287 345.163C371.36 344.071 372.82 343.445 374.351 343.42H417.934C419.465 343.445 420.925 344.071 421.999 345.163C423.073 346.254 423.675 347.724 423.675 349.256C423.675 350.787 423.073 352.257 421.999 353.348C420.925 354.44 419.465 355.066 417.934 355.091ZM374.351 347.124C373.797 347.139 373.271 347.37 372.884 347.767C372.498 348.164 372.281 348.697 372.281 349.251C372.281 349.805 372.498 350.338 372.884 350.735C373.271 351.132 373.797 351.363 374.351 351.378H417.934C418.489 351.363 419.015 351.132 419.401 350.735C419.788 350.338 420.004 349.805 420.004 349.251C420.004 348.697 419.788 348.164 419.401 347.767C419.015 347.37 418.489 347.139 417.934 347.124H374.351Z" fill="#000072"/>
<path opacity="0.3" d="M433.534 371.402H386.425L373.4 353.116H420.509L433.534 371.402Z" fill="url(#paint0_linear_356_2557)"/>
<path d="M401.131 74.7064C398.895 73.9578 396.552 73.579 394.195 73.5849C390.736 73.586 387.326 74.397 384.236 75.953C381.147 77.509 378.466 79.7668 376.406 82.5454C374.346 85.324 372.966 88.5464 372.375 91.9544C371.785 95.3624 372 98.8613 373.005 102.171H464.065C452.361 84.2523 438.174 68.0851 421.927 54.1526C417.105 55.7325 412.716 58.4118 409.107 61.9789C405.498 65.5459 402.767 69.9031 401.131 74.7064Z" fill="white"/>
<path d="M105.057 137.307H143.549C144.459 134.302 144.653 131.125 144.115 128.031C143.577 124.938 142.323 122.013 140.452 119.491C138.582 116.969 136.147 114.92 133.343 113.507C130.538 112.094 127.442 111.358 124.302 111.356C122.161 111.35 120.034 111.694 118.004 112.374C116.213 107.107 112.979 102.448 108.669 98.93C104.36 95.4117 99.1479 93.175 93.6285 92.4751C83.4551 106.394 74.9167 121.437 68.1816 137.307H105.057Z" fill="white"/>
<path d="M167.79 306.56H136.948C134.773 306.56 133.011 308.322 133.011 310.496V341.338C133.011 343.512 134.773 345.274 136.948 345.274H167.79C169.964 345.274 171.726 343.512 171.726 341.338V310.496C171.726 308.322 169.964 306.56 167.79 306.56Z" fill="#FF791F"/>
<path d="M167.791 345.646H136.947C135.806 345.645 134.711 345.191 133.903 344.384C133.096 343.576 132.642 342.482 132.641 341.34V310.495C132.642 309.353 133.096 308.258 133.903 307.451C134.711 306.644 135.806 306.189 136.947 306.188H167.791C168.933 306.189 170.028 306.644 170.835 307.451C171.643 308.258 172.097 309.353 172.098 310.495V341.34C172.097 342.482 171.643 343.576 170.835 344.384C170.028 345.191 168.933 345.645 167.791 345.646ZM136.947 306.93C136.002 306.931 135.096 307.307 134.428 307.975C133.759 308.644 133.383 309.55 133.383 310.495V341.34C133.383 342.285 133.758 343.192 134.427 343.861C135.095 344.53 136.002 344.907 136.947 344.908H167.791C168.736 344.906 169.642 344.53 170.311 343.862C170.979 343.194 171.355 342.288 171.356 341.343V310.495C171.355 309.55 170.979 308.644 170.311 307.976C169.642 307.307 168.736 306.931 167.791 306.93H136.947Z" fill="#000072"/>
<g opacity="0.55">
<path d="M171.542 309.292H138.667C138.308 309.292 137.952 309.362 137.619 309.499C137.287 309.637 136.985 309.838 136.731 310.093C136.477 310.347 136.275 310.649 136.138 310.981C136.001 311.313 135.93 311.669 135.93 312.029V345.132C135.092 344.912 134.35 344.419 133.822 343.732C133.293 343.045 133.007 342.202 133.009 341.335V310.496C133.01 309.452 133.425 308.451 134.163 307.713C134.901 306.974 135.902 306.559 136.946 306.558H167.79C168.624 306.559 169.436 306.824 170.111 307.315C170.785 307.806 171.286 308.498 171.542 309.292Z" fill="white"/>
</g>
<path d="M167.791 347.129H136.947C135.412 347.127 133.941 346.517 132.855 345.431C131.77 344.346 131.159 342.875 131.157 341.34V310.495C131.159 308.96 131.77 307.488 132.855 306.403C133.941 305.318 135.412 304.707 136.947 304.706H167.791C169.326 304.707 170.798 305.318 171.883 306.403C172.969 307.489 173.579 308.96 173.581 310.495V341.34C173.579 342.875 172.969 344.346 171.883 345.431C170.798 346.517 169.326 347.127 167.791 347.129ZM136.947 308.414C136.396 308.415 135.866 308.634 135.476 309.024C135.086 309.414 134.866 309.943 134.865 310.495V341.34C134.866 341.892 135.086 342.421 135.476 342.811C135.866 343.201 136.396 343.42 136.947 343.42H167.791C168.343 343.42 168.872 343.201 169.263 342.811C169.653 342.421 169.873 341.892 169.874 341.34V310.495C169.873 309.943 169.653 309.414 169.263 309.024C168.872 308.634 168.343 308.415 167.791 308.414H136.947Z" fill="#000072"/>
<path d="M165.053 338.601V313.235H139.686V338.601H165.053Z" fill="#40E6FF"/>
<path d="M165.428 338.972H139.314V312.863H165.428V338.972ZM140.061 338.231H164.686V313.603H140.056L140.061 338.231Z" fill="#000072"/>
<g opacity="0.55">
<path d="M168.019 318.179V339.211C168.02 339.786 167.793 340.338 167.387 340.745C166.981 341.153 166.43 341.382 165.854 341.383H144.822C144.537 341.384 144.254 341.328 143.99 341.218C143.727 341.109 143.487 340.949 143.285 340.748C143.083 340.546 142.923 340.306 142.814 340.042C142.705 339.779 142.649 339.496 142.649 339.211V338.603H165.053V316.009H165.854C166.429 316.01 166.98 316.239 167.386 316.646C167.792 317.053 168.02 317.604 168.019 318.179Z" fill="white"/>
</g>
<path d="M165.053 339.713H139.686C139.391 339.713 139.108 339.596 138.899 339.388C138.691 339.179 138.574 338.896 138.574 338.601V313.233C138.574 312.938 138.691 312.655 138.899 312.447C139.108 312.238 139.391 312.121 139.686 312.121H165.053C165.348 312.121 165.631 312.238 165.84 312.447C166.048 312.655 166.165 312.938 166.165 313.233V338.601C166.165 338.896 166.048 339.179 165.84 339.388C165.631 339.596 165.348 339.713 165.053 339.713ZM140.798 337.489H163.941V314.345H140.798V337.489Z" fill="#000072"/>
<path d="M152.369 339.713C152.074 339.713 151.791 339.596 151.582 339.388C151.374 339.179 151.256 338.896 151.256 338.601V313.233C151.256 312.938 151.374 312.655 151.582 312.447C151.791 312.238 152.074 312.121 152.369 312.121C152.664 312.121 152.946 312.238 153.155 312.447C153.364 312.655 153.481 312.938 153.481 313.233V338.601C153.481 338.896 153.364 339.179 153.155 339.388C152.946 339.596 152.664 339.713 152.369 339.713Z" fill="#000072"/>
<path d="M165.053 327.029H139.686C139.54 327.029 139.395 327.001 139.26 326.945C139.125 326.889 139.003 326.807 138.899 326.704C138.796 326.6 138.714 326.478 138.658 326.343C138.602 326.208 138.574 326.063 138.574 325.917C138.574 325.771 138.602 325.626 138.658 325.492C138.714 325.357 138.796 325.234 138.899 325.131C139.003 325.027 139.125 324.945 139.26 324.89C139.395 324.834 139.54 324.805 139.686 324.805H165.053C165.348 324.805 165.631 324.922 165.84 325.131C166.048 325.339 166.165 325.622 166.165 325.917C166.165 326.212 166.048 326.495 165.84 326.704C165.631 326.912 165.348 327.029 165.053 327.029Z" fill="#000072"/>
<path d="M172.753 345.274H129.173C126.975 345.274 125.193 347.056 125.193 349.255C125.193 351.453 126.975 353.235 129.173 353.235H172.753C174.951 353.235 176.733 351.453 176.733 349.255C176.733 347.056 174.951 345.274 172.753 345.274Z" fill="#40A3DB"/>
<path d="M172.753 353.607H129.17C128.03 353.585 126.944 353.117 126.146 352.303C125.347 351.49 124.9 350.395 124.9 349.255C124.9 348.116 125.347 347.021 126.146 346.207C126.944 345.394 128.03 344.926 129.17 344.904H172.753C173.893 344.926 174.978 345.394 175.777 346.207C176.575 347.021 177.022 348.116 177.022 349.255C177.022 350.395 176.575 351.49 175.777 352.303C174.978 353.117 173.893 353.585 172.753 353.607ZM129.17 345.64C128.689 345.63 128.212 345.716 127.765 345.893C127.319 346.07 126.912 346.334 126.569 346.67C126.225 347.006 125.953 347.408 125.767 347.85C125.58 348.293 125.485 348.769 125.485 349.249C125.485 349.73 125.58 350.205 125.767 350.648C125.953 351.091 126.225 351.492 126.569 351.828C126.912 352.164 127.319 352.429 127.765 352.606C128.212 352.782 128.689 352.868 129.17 352.858H172.753C173.233 352.868 173.711 352.782 174.157 352.606C174.604 352.429 175.011 352.164 175.354 351.828C175.697 351.492 175.97 351.091 176.156 350.648C176.342 350.205 176.438 349.73 176.438 349.249C176.438 348.769 176.342 348.293 176.156 347.85C175.97 347.408 175.697 347.006 175.354 346.67C175.011 346.334 174.604 346.07 174.157 345.893C173.711 345.716 173.233 345.63 172.753 345.64H129.17Z" fill="#000072"/>
<path d="M174.159 345.274H130.579C128.38 345.274 126.598 347.056 126.598 349.255C126.598 351.453 128.38 353.235 130.579 353.235H174.159C176.357 353.235 178.139 351.453 178.139 349.255C178.139 347.056 176.357 345.274 174.159 345.274Z" fill="#99A9B5"/>
<path d="M174.159 353.607H130.576C129.997 353.618 129.423 353.513 128.885 353.299C128.347 353.086 127.858 352.767 127.445 352.362C127.032 351.957 126.704 351.473 126.48 350.94C126.256 350.407 126.141 349.834 126.141 349.256C126.141 348.677 126.256 348.104 126.48 347.571C126.704 347.038 127.032 346.554 127.445 346.149C127.858 345.744 128.347 345.425 128.885 345.212C129.423 344.998 129.997 344.893 130.576 344.904H174.159C174.737 344.893 175.312 344.998 175.849 345.212C176.387 345.425 176.876 345.744 177.289 346.149C177.702 346.554 178.03 347.038 178.254 347.571C178.478 348.104 178.593 348.677 178.593 349.256C178.593 349.834 178.478 350.407 178.254 350.94C178.03 351.473 177.702 351.957 177.289 352.362C176.876 352.767 176.387 353.086 175.849 353.299C175.312 353.513 174.737 353.618 174.159 353.607ZM130.576 345.64C130.095 345.63 129.618 345.716 129.171 345.893C128.725 346.07 128.318 346.334 127.975 346.67C127.631 347.006 127.359 347.408 127.173 347.85C126.986 348.293 126.89 348.769 126.89 349.249C126.89 349.73 126.986 350.205 127.173 350.648C127.359 351.091 127.631 351.492 127.975 351.828C128.318 352.164 128.725 352.429 129.171 352.606C129.618 352.782 130.095 352.868 130.576 352.858H174.159C174.639 352.868 175.116 352.782 175.563 352.606C176.01 352.429 176.417 352.164 176.76 351.828C177.103 351.492 177.376 351.091 177.562 350.648C177.748 350.205 177.844 349.73 177.844 349.249C177.844 348.769 177.748 348.293 177.562 347.85C177.376 347.408 177.103 347.006 176.76 346.67C176.417 346.334 176.01 346.07 175.563 345.893C175.116 345.716 174.639 345.63 174.159 345.64H130.576Z" fill="#000072"/>
<g opacity="0.55">
<path d="M178.142 349.259C178.145 349.744 178.055 350.225 177.875 350.675C177.588 349.922 177.078 349.275 176.415 348.818C175.752 348.361 174.966 348.116 174.16 348.116H130.577C129.772 348.114 128.986 348.358 128.323 348.815C127.66 349.273 127.153 349.921 126.869 350.675C126.689 350.225 126.598 349.744 126.602 349.259C126.601 348.737 126.703 348.219 126.902 347.736C127.101 347.252 127.394 346.813 127.763 346.443C128.133 346.073 128.571 345.78 129.054 345.579C129.537 345.379 130.054 345.276 130.577 345.276H174.16C175.216 345.277 176.229 345.696 176.976 346.443C177.723 347.19 178.142 348.203 178.142 349.259Z" fill="white"/>
</g>
<path d="M174.159 355.091H130.576C129.801 355.103 129.032 354.962 128.313 354.674C127.594 354.387 126.939 353.959 126.387 353.416C125.835 352.873 125.397 352.225 125.097 351.511C124.798 350.797 124.644 350.03 124.644 349.256C124.644 348.481 124.798 347.715 125.097 347C125.397 346.286 125.835 345.638 126.387 345.095C126.939 344.552 127.594 344.124 128.313 343.837C129.032 343.549 129.801 343.408 130.576 343.42H174.159C175.69 343.446 177.15 344.071 178.223 345.163C179.297 346.254 179.899 347.724 179.899 349.256C179.899 350.787 179.297 352.257 178.223 353.348C177.15 354.44 175.69 355.066 174.159 355.091ZM130.576 347.124C130.291 347.116 130.009 347.166 129.744 347.269C129.479 347.373 129.238 347.528 129.034 347.726C128.83 347.925 128.668 348.162 128.558 348.423C128.447 348.685 128.39 348.967 128.39 349.251C128.39 349.535 128.447 349.817 128.558 350.078C128.668 350.34 128.83 350.577 129.034 350.776C129.238 350.974 129.479 351.129 129.744 351.233C130.009 351.336 130.291 351.385 130.576 351.378H174.159C174.713 351.363 175.239 351.132 175.626 350.735C176.012 350.338 176.229 349.805 176.229 349.251C176.229 348.697 176.012 348.164 175.626 347.767C175.239 347.37 174.713 347.139 174.159 347.124H130.576Z" fill="#000072"/>
<path opacity="0.3" d="M189.758 371.402H142.649L129.624 353.116H176.733L189.758 371.402Z" fill="url(#paint1_linear_356_2557)"/>
</g>
<defs>
<linearGradient id="paint0_linear_356_2557" x1="395.424" y1="343.616" x2="411.509" y2="380.903" gradientUnits="userSpaceOnUse">
<stop stop-color="#000072"/>
<stop offset="1" stop-color="#25A9E0"/>
</linearGradient>
<linearGradient id="paint1_linear_356_2557" x1="151.649" y1="343.616" x2="167.733" y2="380.903" gradientUnits="userSpaceOnUse">
<stop stop-color="#000072"/>
<stop offset="1" stop-color="#25A9E0"/>
</linearGradient>
<clipPath id="clip0_356_2557">
<rect width="551" height="396" fill="white"/>
</clipPath>
</defs>
</svg>
