<svg id="Calque_1" data-name="Calque 1" xmlns="http://www.w3.org/2000/svg" viewBox="0 0 194 50"><defs><style>.cls-1{fill:#6938ef;}.cls-2{fill:#fff;stroke:#6938ef;stroke-miterlimit:10;}</style></defs><circle class="cls-1" cx="28.03" cy="26.03" r="20.03"/><rect class="cls-2" x="22.89" y="13.54" width="14.58" height="14.58" rx="3.89"/><circle class="cls-2" cx="23.49" cy="27.94" r="8.59"/><path class="cls-2" d="M33,20.08a1.83,1.83,0,0,0-.78-.78A2.14,2.14,0,0,0,30.67,19a2.09,2.09,0,0,0-1.57,1.83c0,.65.5.73.79,1.82a1.92,1.92,0,0,1,0,1.56c-.33.46-1,.49-1.83.52a5.08,5.08,0,0,1-.81,0l-.58,0a2.86,2.86,0,0,0-1.24.17c-.91.5.3,2.93-.95,4.45-.11.13-.57.69-1.1.64s-.59-.61-1.18-.91a2.19,2.19,0,0,0-2.34.26A2.51,2.51,0,0,0,20.38,33a1.77,1.77,0,0,0,1.3,0c.48-.2.54-.51,1.05-.79.12-.06.84-.45,1.3-.26,1.07.46-.05,3.73,1.48,4.87a1.87,1.87,0,0,0,.86.34h9.9a1.57,1.57,0,0,0,1-1V32.75a1.15,1.15,0,0,0-.65-.38c-.58-.08-.83.51-1.72.88a2.48,2.48,0,0,1-2,.07,2,2,0,0,1-.84-.81,2.77,2.77,0,0,1-.32-1.91,2.4,2.4,0,0,1,.58-1.47,2.14,2.14,0,0,1,1-.59,2.06,2.06,0,0,1,1.3,0,14.25,14.25,0,0,1,1.57.78.6.6,0,0,0,.28.09A1,1,0,0,0,37.3,29,3.11,3.11,0,0,0,37,25.19a2.57,2.57,0,0,0-1-.56c-2.57.18-3.42-.26-3.65-.78C31.92,22.86,33.62,21.39,33,20.08Z"/><path class="cls-1" d="M75,37.29a3.2,3.2,0,0,1-3.19,3.06,3.43,3.43,0,0,1-3-1.69l-4.56-6.84H60.68v5.11a3.38,3.38,0,1,1-6.76,0V17.36a3.32,3.32,0,0,1,3.42-3.42H64.1c5.93,0,10,3.61,10,8.88a8.51,8.51,0,0,1-3.5,7L74,34.69A4.61,4.61,0,0,1,75,37.29ZM60.68,25.93h3.46a2.9,2.9,0,0,0,3.1-3.07,2.89,2.89,0,0,0-3.1-3H60.68Z"/><path class="cls-1" d="M96.33,28.48V37A3.3,3.3,0,0,1,90,38.39a8,8,0,0,1-5.5,2c-4.05,0-6.8-2.43-6.8-6.05s2.87-5.9,7.7-5.9h4.13v-.31c0-1.61-1.1-2.52-3-2.52a5.45,5.45,0,0,0-3.1,1,3,3,0,0,1-1.81.66,2.75,2.75,0,0,1-2.83-2.75,3.38,3.38,0,0,1,1.45-2.63,11.25,11.25,0,0,1,7-2.08C93.11,19.76,96.33,22.9,96.33,28.48Zm-6.76,4.21v-.16H86.38c-1.13,0-1.8.55-1.8,1.49s.74,1.54,2,1.54A2.78,2.78,0,0,0,89.57,32.69Z"/><path class="cls-1" d="M130.92,23a4.59,4.59,0,0,1-.43,1.81L124,38.23a3.28,3.28,0,0,1-6.13,0L114.49,31l-3.38,7.27a3.28,3.28,0,0,1-6.13,0l-6.49-13.4A4.59,4.59,0,0,1,98.06,23a3.25,3.25,0,0,1,3.26-3.26,3.19,3.19,0,0,1,2.91,1.76l4,8.18,3-7.35c.7-1.73,1.81-2.59,3.26-2.59s2.55.86,3.26,2.59l3,7.35,4-8.18a3.19,3.19,0,0,1,2.91-1.76A3.25,3.25,0,0,1,130.92,23Z"/><path class="cls-1" d="M153.05,13.35V37a3.23,3.23,0,0,1-3.26,3.38,3.18,3.18,0,0,1-3.11-2.24,6.79,6.79,0,0,1-5.42,2.24c-5.51,0-9.44-4.24-9.44-10.26s3.93-10.33,9.44-10.33a7,7,0,0,1,5,1.8V13.35a3.38,3.38,0,1,1,6.76,0Zm-6.64,16.74c0-2.47-1.58-4.2-3.82-4.2a3.87,3.87,0,0,0-3.85,4.16c0,2.48,1.57,4.17,3.85,4.17S146.41,32.53,146.41,30.09Z"/><path class="cls-1" d="M175,28.48V37a3.3,3.3,0,0,1-6.29,1.42,8,8,0,0,1-5.5,2c-4,0-6.8-2.43-6.8-6.05s2.87-5.9,7.7-5.9h4.13v-.31c0-1.61-1.1-2.52-3-2.52a5.45,5.45,0,0,0-3.1,1,3,3,0,0,1-1.81.66,2.75,2.75,0,0,1-2.83-2.75A3.37,3.37,0,0,1,159,21.84a11.22,11.22,0,0,1,7-2.08C171.8,19.76,175,22.9,175,28.48Zm-6.76,4.21v-.16h-3.18c-1.14,0-1.81.55-1.81,1.49s.75,1.54,2,1.54A2.78,2.78,0,0,0,168.26,32.69Z"/><path class="cls-1" d="M178.17,36A4.42,4.42,0,0,1,187,36a4.42,4.42,0,0,1-8.84,0Z"/></svg>