<svg width="15" height="430" viewBox="0 0 15 430" fill="none" xmlns="http://www.w3.org/2000/svg">
<path d="M6.77922 429.707C7.16975 430.098 7.80291 430.098 8.19343 429.707L14.5574 423.343C14.9479 422.953 14.9479 422.319 14.5574 421.929C14.1669 421.538 13.5337 421.538 13.1432 421.929L7.48633 427.586L1.82947 421.929C1.43895 421.538 0.805785 421.538 0.41526 421.929C0.0247359 422.319 0.0247359 422.953 0.41526 423.343L6.77922 429.707ZM8.19343 1.25327C7.80291 0.862732 7.16975 0.862732 6.77922 1.25327L0.41526 7.61722C0.0247359 8.00775 0.0247359 8.6409 0.41526 9.03143C0.805785 9.42197 1.43895 9.42197 1.82947 9.03143L7.48633 3.37457L13.1432 9.03143C13.5337 9.42197 14.1669 9.42197 14.5574 9.03143C14.9479 8.6409 14.9479 8.00775 14.5574 7.61722L8.19343 1.25327ZM8.48633 429L8.48633 1.96036H6.48633L6.48633 429H8.48633Z" fill="white"/>
</svg>
