<svg width="48" height="48" viewBox="0 0 48 48" fill="none" xmlns="http://www.w3.org/2000/svg">
<path d="M19.14 37.6402C19.52 37.6402 19.9 37.5002 20.2 37.2002C20.78 36.6202 20.78 35.6602 20.2 35.0802L9.12001 24.0002L20.2 12.9202C20.78 12.3402 20.78 11.3802 20.2 10.8002C19.62 10.2202 18.66 10.2202 18.08 10.8002L5.94001 22.9402C5.36001 23.5202 5.36001 24.4802 5.94001 25.0602L18.08 37.2002C18.38 37.5002 18.76 37.6402 19.14 37.6402Z" fill="#1E1E1E"/>
<path d="M7.34 25.5L41 25.5C41.82 25.5 42.5 24.82 42.5 24C42.5 23.18 41.82 22.5 41 22.5L7.34 22.5C6.52 22.5 5.84 23.18 5.84 24C5.84 24.82 6.52 25.5 7.34 25.5Z" fill="#1E1E1E"/>
</svg>
