<svg width="48" height="48" viewBox="0 0 48 48" fill="none" xmlns="http://www.w3.org/2000/svg">
<path d="M19.1398 37.64C19.5198 37.64 19.8998 37.5 20.1998 37.2C20.7798 36.62 20.7798 35.66 20.1998 35.08L9.11976 24L20.1998 12.92C20.7798 12.34 20.7798 11.38 20.1998 10.8C19.6198 10.22 18.6598 10.22 18.0798 10.8L5.93976 22.94C5.35976 23.52 5.35976 24.48 5.93976 25.06L18.0798 37.2C18.3798 37.5 18.7598 37.64 19.1398 37.64Z" fill="#F37335"/>
<path d="M7.34 25.5H41C41.82 25.5 42.5 24.82 42.5 24C42.5 23.18 41.82 22.5 41 22.5H7.34C6.52 22.5 5.84 23.18 5.84 24C5.84 24.82 6.52 25.5 7.34 25.5Z" fill="#F37335"/>
</svg>
