<svg width="34" height="34" viewBox="0 0 34 34" fill="none" xmlns="http://www.w3.org/2000/svg">
<path d="M32.0253 6.78629L21.5091 17.3026L32.561 28.3545C33.7767 29.5702 33.8249 31.5113 32.6681 32.6681C31.5113 33.8249 29.5702 33.7767 28.3545 32.561L17.3026 21.5091L6.78629 32.0253C5.6295 33.1821 3.68837 33.1339 2.47266 31.9182C1.25695 30.7025 1.20874 28.7614 2.36553 27.6046L12.8818 17.0883L1.82991 6.03641C0.614196 4.8207 0.56599 2.87957 1.72278 1.72278C2.87957 0.565987 4.82071 0.614193 6.03641 1.8299L17.0883 12.8818L27.6046 2.36553C28.7614 1.20874 30.7025 1.25695 31.9182 2.47265C33.1339 3.68836 33.1821 5.6295 32.0253 6.78629Z" fill="#6938EF"/>
</svg>
