<svg width="19" height="16" viewBox="0 0 19 16" fill="none" xmlns="http://www.w3.org/2000/svg">
<path d="M12.3058 8.00431C12.3058 9.67923 10.9523 11.0327 9.27738 11.0327C7.60246 11.0327 6.24902 9.67923 6.24902 8.00431C6.24902 6.32939 7.60246 4.97595 9.27738 4.97595C10.9523 4.97595 12.3058 6.32939 12.3058 8.00431Z" stroke="#FAF9F9" stroke-linecap="round" stroke-linejoin="round"/>
<path d="M9.27735 15C12.2634 15 15.0465 13.2405 16.9837 10.1952C17.745 9.00243 17.745 6.9976 16.9837 5.80483C15.0465 2.75951 12.2634 1 9.27735 1C6.29123 1 3.50815 2.75951 1.571 5.80483C0.809668 6.9976 0.809668 9.00243 1.571 10.1952C3.50815 13.2405 6.29123 15 9.27735 15Z" stroke="#FAF9F9" stroke-linecap="round" stroke-linejoin="round"/>
</svg>
