<svg width="56" height="49" viewBox="0 0 56 49" fill="none" xmlns="http://www.w3.org/2000/svg">
<path d="M56 43.5556V5.44444C56 2.45 53.2 0 49.7778 0H6.22222C2.8 0 0 2.45 0 5.44444V43.5556C0 46.55 2.8 49 6.22222 49H49.7778C53.2 49 56 46.55 56 43.5556ZM18.3556 29.89L24.8889 36.7772L34.5333 25.9156C35.1556 25.2078 36.4 25.2078 37.0222 25.9428L47.9422 38.6828C48.72 39.5811 47.9733 40.8606 46.6978 40.8606H9.39556C8.08889 40.8606 7.37333 39.5539 8.18222 38.6556L15.9289 29.9444C16.52 29.2367 17.7022 29.2094 18.3556 29.89Z" fill="#211C19"/>
</svg>
