<svg width="27" height="27" viewBox="0 0 27 27" fill="none" xmlns="http://www.w3.org/2000/svg">
<circle cx="13.5" cy="13.5" r="13.5" fill="#6938EF"/>
<path fill-rule="evenodd" clip-rule="evenodd" d="M16.4807 6.4411C16.7632 6.15866 17.1463 6 17.5458 6C17.9453 6 18.3284 6.15866 18.6109 6.4411L20.5589 8.38906C20.8413 8.67158 21 9.0547 21 9.45419C21 9.85367 20.8413 10.2368 20.5589 10.5193L19.3642 11.714L15.286 7.63579L16.4807 6.4411ZM14.2209 8.70091L7.44142 15.4804C7.15887 15.7628 7.00009 16.146 7 16.5455V18.4935C7 18.893 7.15872 19.2762 7.44126 19.5587C7.72379 19.8413 8.10698 20 8.50654 20H10.4545C10.854 19.9999 11.2372 19.8411 11.5196 19.5586L18.2991 12.7791L14.2209 8.70091Z" fill="#FAF9F9"/>
</svg>
