<svg width="18" height="22" viewBox="0 0 18 22" fill="none" xmlns="http://www.w3.org/2000/svg">
<path d="M0.401049 16.788L0.401064 16.788L0.400058 16.7854C0.134933 16.0814 0.222113 15.2967 0.654596 14.5822L0.654895 14.5817L1.82457 12.639L1.82477 12.6387C1.9632 12.408 2.08747 12.0787 2.1769 11.7538C2.26638 11.4289 2.32827 11.0818 2.32827 10.8115V7.87208C2.32827 4.22651 5.29818 1.25659 8.94379 1.25659C12.5894 1.25659 15.5593 4.2265 15.5593 7.87208V10.8115C15.5593 11.0769 15.6213 11.424 15.7105 11.7508C15.7998 12.0779 15.9238 12.4115 16.0614 12.6465L16.0614 12.6466L16.0628 12.6489L17.222 14.5809C17.6205 15.2481 17.6949 16.0542 17.4257 16.7873C17.1574 17.5182 16.5749 18.0734 15.843 18.3142L15.8415 18.3148C13.6303 19.0585 11.2874 19.4307 8.94379 19.4307C6.60059 19.4307 4.25798 19.0587 2.03675 18.315C1.24473 18.0413 0.65674 17.4912 0.401049 16.788ZM1.53861 15.107L1.53791 15.1082C1.2876 15.5291 1.19993 16.0059 1.36598 16.432C1.52091 16.8661 1.89643 17.1743 2.36364 17.3338L2.36503 17.3343C6.66796 18.7755 11.2294 18.7755 15.5323 17.3344C15.9704 17.1884 16.3131 16.8582 16.4716 16.4193C16.628 15.9861 16.5932 15.5103 16.3488 15.1067C16.3487 15.1066 16.3486 15.1065 16.3486 15.1064L15.1809 13.1671C15.1806 13.1666 15.1804 13.1662 15.1801 13.1657C14.8161 12.5422 14.5336 11.4984 14.5336 10.8013V7.87208C14.5336 4.78439 12.0315 2.28226 8.94379 2.28226C5.86655 2.28226 3.35393 4.78408 3.35393 7.87208V10.8115C3.35393 11.5079 3.06165 12.5619 2.70757 13.1655L1.53861 15.107Z" fill="#6938EF" stroke="#6938EF" stroke-width="0.5"/>
<path d="M10.6903 2.53633L10.6903 2.53632L10.6881 2.53571C10.3843 2.45191 10.0895 2.38865 9.80388 2.34633L9.80389 2.34629L9.79933 2.3457C8.90254 2.22964 8.03304 2.2925 7.21395 2.53717L7.21393 2.53712L7.20899 2.5387C7.02192 2.59883 6.81809 2.53946 6.68774 2.39539C6.55659 2.25043 6.51714 2.04656 6.59148 1.86409L6.59283 1.8607C6.97254 0.888287 7.89743 0.25 8.95356 0.25C10.0102 0.25 10.9335 0.878329 11.3133 1.85818C11.3838 2.05022 11.3459 2.25427 11.2209 2.39374C11.1193 2.50112 10.9744 2.55722 10.8352 2.55722C10.7882 2.55722 10.7401 2.55055 10.6903 2.53633Z" fill="#6938EF" stroke="#6938EF" stroke-width="0.5"/>
<path d="M6.42499 20.7044L6.42499 20.7044C5.81878 20.0981 5.44926 19.2864 5.38835 18.4358H6.41771C6.47616 19.0135 6.73506 19.5653 7.14954 19.9798C7.6235 20.4537 8.27696 20.7243 8.94352 20.7243C10.2585 20.7243 11.3437 19.7183 11.4698 18.4358H12.499C12.3706 20.2866 10.8268 21.75 8.94352 21.75C8.00329 21.75 7.09034 21.3697 6.42499 20.7044Z" fill="#6938EF" stroke="#6938EF" stroke-width="0.5"/>
</svg>
