<svg id="Layer_1" data-name="Layer 1" xmlns="http://www.w3.org/2000/svg" viewBox="0 0 2139.19 3135.16"><defs><style>.cls-1{opacity:0.3;}.cls-2{fill:#5b5bef;}.cls-3{fill:#fcaf03;}.cls-4{fill:#000072;}.cls-5{fill:#ff2765;}.cls-6{fill:#fff;}.cls-7{opacity:0.7;}.cls-8{opacity:0.4;}.cls-9{fill:#ffe97d;}.cls-10{fill:#ff4a94;}.cls-11{fill:#ffdaa5;}.cls-12{fill:#00b1ff;}</style></defs><g class="cls-1"><ellipse class="cls-2" cx="1058.14" cy="3019.03" rx="694.87" ry="116.14"/></g><path class="cls-3" d="M1724.19,2523.34s54.62,285.89,284.89,415.39c75.33,42.37,161.75-33.76,129.7-114-.54-1.34-1.09-2.69-1.66-4.05,0,0-24.77-48.52-71.23-81.56s-159-200.27-168.27-237.44S1724.19,2523.34,1724.19,2523.34Z" transform="translate(-908.75 -327.12)"/><g class="cls-1"><path class="cls-4" d="M2138.78,2824.71c-.54-1.34-1.09-2.69-1.66-4.05,0,0-24.77-48.52-71.23-81.56s-159-200.27-168.27-237.44c-5.48-21.92-64.85-10.43-112.62,2.68,21.43-1.75,37.62.84,40.36,11.78,9.29,37.16,121.81,204.4,168.27,237.43s71.23,81.56,71.23,81.56q.85,2,1.65,4c17.55,43.92-.43,86.56-32.61,109.26C2101.82,2964.4,2167.35,2896.24,2138.78,2824.71Z" transform="translate(-908.75 -327.12)"/></g><path class="cls-4" d="M2054.16,2970a111,111,0,0,1-54.52-14.47C1764.27,2823.16,1707.56,2539,1705.26,2527a19.28,19.28,0,0,1,12.42-21.76c33.15-11.88,144.24-49.08,182-28.9,10.92,5.84,15.06,14.47,16.62,20.69,8,32.2,117.83,195.89,160.74,226.41,49.73,35.36,76.13,86.34,77.23,88.49q.33.65.6,1.32c.62,1.46,1.2,2.9,1.78,4.34,17.72,44.37,6,93.36-29.94,124.8A109.82,109.82,0,0,1,2054.16,2970Zm-307.27-434.12c15.56,61.15,83,279.95,271.64,386.06,32.79,18.44,64.28,7.65,82.81-8.58s33.59-46.34,19.54-81.5c-.39-1-.79-2-1.21-3-2.79-5.18-25.65-46.13-64.94-74.08-46.44-33-159.52-197-174.88-245.24C1864.55,2504.39,1806.33,2516.05,1746.89,2535.88Z" transform="translate(-908.75 -327.12)"/><path class="cls-5" d="M2532.32,2007.19c-21.67,17.11-37.91,73.66-64.21,130.8-28.33,61.71-68.46,124.15-140,138.6-137.83,27.8-185.33-122.56-185.33-122.56-56.85-130.31-51.6-561.87,185.33-597.47a365.11,365.11,0,0,1,59.16-4.29c187.5,1.93,234.9,163.8,234.9,163.8C2699.4,1966.92,2532.32,2007.19,2532.32,2007.19Z" transform="translate(-908.75 -327.12)"/><g class="cls-1"><path class="cls-4" d="M2468.11,2138c-28.33,61.71-68.46,124.15-140,138.6-137.83,27.8-185.33-122.56-185.33-122.56-56.85-130.31-51.6-561.87,185.33-597.47a365.11,365.11,0,0,1,59.16-4.29C2358.31,1679,2306.43,1995.68,2468.11,2138Z" transform="translate(-908.75 -327.12)"/></g><path class="cls-4" d="M2519.46,2021.54c-7.13-6.39-174-159.9-110.32-470l37.76,7.75c-30.86,150.34-2.53,260.14,26.68,325.78,31.67,71.19,71.22,107.45,71.62,107.81Z" transform="translate(-908.75 -327.12)"/><path class="cls-4" d="M2295.37,2299.24c-98.71,0-154-86.63-170.68-138.44-42.22-98.26-50.53-345.54,33.2-497,40.51-73.23,96.82-115.74,167.35-126.35,130.36-19.58,209.24,28.27,252.43,71.89,46.79,47.25,62.34,99.06,63,101.25,30,97.53,28.23,177.09-5.43,236.18-30.46,53.48-77.65,72.55-93.26,77.6-10.36,10.85-22.2,40-33.68,68.34-31.17,76.81-73.85,182-176.36,202.7A184.53,184.53,0,0,1,2295.37,2299.24Zm-134.25-151.06c1.75,5.47,44.23,133.49,163.18,109.5,82.2-16.6,118.83-106.88,148.26-179.42,16.17-39.83,28.93-71.3,47.81-86.21a19.2,19.2,0,0,1,7.43-3.61c1.79-.45,46.75-12.32,74.33-61.4,27.79-49.45,28.33-118.53,1.6-205.32-2.24-7.5-55.95-178.72-272.75-146.1-58.07,8.72-105,44.69-139.36,106.89-75.72,136.92-71.2,372.09-31.2,463.82.26.6.49,1.22.7,1.85Z" transform="translate(-908.75 -327.12)"/><path class="cls-6" d="M2962.29,2209.87s-26.83,110.47-113.55,73.27c0,0-32,154.84-148.67,51.65,0,0-97.55,29.92-151.75-92.4-2.17-4.92-4.14-9.78-5.78-14.6-24.14-67.93-.92-121.21,21.77-153.15,15.37-21.68,30.5-33.58,30.5-33.58s-94.47-96.78,65.81-179.6S2861.89,1918,2861.89,1918s22,2.41,49.72,15.66a180.5,180.5,0,0,1,84.5,82.14.69.69,0,0,0,0,.19c2.65,5.16,5.11,10.6,7.42,16.33C3044.91,2135.53,3037.69,2211.94,2962.29,2209.87Z" transform="translate(-908.75 -327.12)"/><g class="cls-1"><path class="cls-4" d="M2962.29,2209.87s-26.83,110.47-113.55,73.27c0,0-32,154.84-148.67,51.65,0,0-97.55,29.92-151.75-92.4-2.17-4.92-4.14-9.78-5.78-14.6,47.74,43.94,129.25,52.22,129.25,52.22,137,81.32,163-56.12,163-56.12,76.21,20.86,119.24-61.18,119.24-61.18,57.81-32.67,42.78-141.79,42.1-146.75,2.65,5.16,5.11,10.6,7.42,16.33C3044.91,2135.53,3037.69,2211.94,2962.29,2209.87Z" transform="translate(-908.75 -327.12)"/></g><g class="cls-1"><path class="cls-4" d="M2911.61,1933.63c-25.19,67.78-76.79,56.32-76.79,56.32,38.25-38.88,27.07-72,27.07-72S2883.91,1920.38,2911.61,1933.63Z" transform="translate(-908.75 -327.12)"/></g><g class="cls-1"><path class="cls-4" d="M2649.49,2065.82s-38,27.51-85.18,8.82c15.37-21.68,30.5-33.58,30.5-33.58S2601.84,2055.85,2649.49,2065.82Z" transform="translate(-908.75 -327.12)"/></g><path class="cls-4" d="M2772.47,2389.56c-24.14,0-50.2-11.4-77.82-34.1-30.16,4.5-114.67,5.91-163.93-105.28-46.32-104.54,10.22-181.54,38.22-211.06-11.25-16.92-25.47-46.39-19.77-81.71,7-43.49,41.55-81.53,102.59-113.09,58.65-30.31,110-36.48,152.51-18.31s63.55,55.81,71.78,74.91c30.18,6.63,108.69,32.32,145.44,124.21,21.79,54.48,41.3,128.7,10.5,172.87-8.93,12.81-25.56,27.59-55.42,30.61-7.36,20.19-24.61,56.43-57.52,72.89-17.63,8.82-36.86,10.87-57.36,6.16-8.75,25.12-28.29,65.63-65.78,78.11A73.71,73.71,0,0,1,2772.47,2389.56Zm-72.44-74a19.35,19.35,0,0,1,12.83,4.81c19.65,17.38,47.88,36.51,70.87,28.87,27.78-9.25,43-54.75,46.15-70a19.27,19.27,0,0,1,26.46-13.81c17.58,7.55,32.43,8.08,45.37,1.64,24.83-12.34,38.66-48.81,41.88-61.82a19.39,19.39,0,0,1,19.25-14.67c18,.55,30.32-4.29,37.54-14.63,15.88-22.79,10.4-73.82-14.67-136.51-36.29-90.72-122.34-101.91-126-102.34a19.37,19.37,0,0,1-16.29-13.7c-.12-.38-14.09-45-54.64-62.1-31.41-13.25-71.56-7.45-119.34,17.25-49.59,25.64-77.25,54.24-82.23,85-5.68,35.19,21.09,63.77,21.36,64a19.28,19.28,0,0,1-1.84,28.59h0c-3.62,2.87-88,71.7-40.78,178.38,46.23,104.35,125.26,82.71,128.61,81.74A19.22,19.22,0,0,1,2700,2315.53Z" transform="translate(-908.75 -327.12)"/><path class="cls-4" d="M2607.07,2026.21l8.85,9.38c3.19,3.37,6.53,6.71,10,10.06s7.17,6.48,11.05,9.73a156,156,0,0,0,12.74,9l.07,0a1.57,1.57,0,0,1,.44,2.16,1.59,1.59,0,0,1-.89.65,64.89,64.89,0,0,1-16.83,2.3,86.12,86.12,0,0,1-17.18-1.38,100.62,100.62,0,0,1-16.71-4.35c-2.7-1-5.38-2.07-8-3.32a52.33,52.33,0,0,1-8.07-4.6l-.75-.53a19.41,19.41,0,1,1,22.37-31.72A21.12,21.12,0,0,1,2607.07,2026.21Z" transform="translate(-908.75 -327.12)"/><path class="cls-4" d="M2880.94,1914.91a48.26,48.26,0,0,1,.5,6.84c0,2.06-.05,4.09-.27,6.09a75.08,75.08,0,0,1-2,11.86,80.68,80.68,0,0,1-9.2,22.15,67.35,67.35,0,0,1-15.29,18c-5.83,5.07-13,8.26-19.72,10.4a.32.32,0,0,1-.4-.21.37.37,0,0,1,0-.25l0,0c3.66-6.28,6.78-12,8.41-18.25a68.07,68.07,0,0,0,2.9-17.83,123.17,123.17,0,0,0-.87-17.19c-.33-2.81-.71-5.57-1.11-8.28l-1.09-7.17-.07-.5a19.27,19.27,0,1,1,38.1-5.79Z" transform="translate(-908.75 -327.12)"/><path class="cls-4" d="M2685.3,2347.11l-1.78-2.08-1.45-1.84c-1-1.19-1.82-2.43-2.66-3.62-1.75-2.4-3.22-4.87-4.76-7.34a150.78,150.78,0,0,1-7.85-15.27,161.4,161.4,0,0,1-10.31-32.34c-2.22-11-3.66-22.24-3-33.47a94.4,94.4,0,0,1,7.12-32.78,1.25,1.25,0,0,1,2.29,0l0,0c4.92,10.3,8.15,20,12.29,29.26,3.73,9.32,7.51,18.32,11.66,27a274.89,274.89,0,0,0,13.55,25.16c2.31,4.1,4.93,8,7.34,11.92l7.12,10.69L2716,2324a19.22,19.22,0,0,1-30.65,23.1Z" transform="translate(-908.75 -327.12)"/><path class="cls-4" d="M2829.55,2284.8c-.53-3.23-1.07-7.45-1.53-11.24l-1.43-11.74c-.92-7.84-1.88-15.72-3.11-23.5s-2.74-15.5-4.42-23.26a197.69,197.69,0,0,0-6.91-24.26l0-.08a1.61,1.61,0,0,1,2-2.07c9.25,2.93,17,9.33,23.46,16.33s11.2,15.27,15.41,23.55a151.08,151.08,0,0,1,10,25.68c1.26,4.39,2.37,8.81,3.19,13.3a98.3,98.3,0,0,1,1.78,14,19.27,19.27,0,0,1-38.26,4.15Z" transform="translate(-908.75 -327.12)"/><path class="cls-4" d="M2943,2210.29c.35-2.33.72-5.84.91-8.89s.49-6.39.62-9.62c.18-6.45.44-13,.13-19.61a187.51,187.51,0,0,0-1.71-19.9,166,166,0,0,0-4-20.43v0a.83.83,0,0,1,.6-1,.86.86,0,0,1,.72.16,91.62,91.62,0,0,1,15.26,16,134.41,134.41,0,0,1,11.63,19.15,165.7,165.7,0,0,1,8.69,20.76c1.18,3.57,2.37,7.17,3.31,10.85a100.42,100.42,0,0,1,2.43,11.7l.15,1.13a19.53,19.53,0,1,1-38.71,5.17A20.13,20.13,0,0,1,2943,2210.29Z" transform="translate(-908.75 -327.12)"/><path class="cls-6" d="M1466.1,927.86c-49.53,49-52.66,121.31-52.66,121.31,8.48,15.8,13.64,30.25,16.48,43.31,13.73,63.64-29,94.71-29,94.71-94,28.67-191.5,37.34-191.5,37.34-107.68,2.89-92.64-114.66-92.26-117.55v0c-39.21-29-63-97-63-97S897.29,911.87,933.42,825.15c34.78-83.49,170.78,66.92,180.85,78.19-9.06-11-126.12-155.12-61.38-214,66.49-60.36,180.33,154.17,183.46,160-60.32-164.95-58.25-238,19.17-227.68,46.25,6.17,80.46,72.85,100.5,125.45a594,594,0,0,1,20.52,64.51.55.55,0,0,0,.1-.19,97.7,97.7,0,0,1,4.57-9c28.23-50.34,95-86.76,130.85-60.46C1550,769.9,1515.67,878.82,1466.1,927.86Z" transform="translate(-908.75 -327.12)"/><g class="cls-1"><path class="cls-4" d="M1356,747.2a594,594,0,0,1,20.52,64.51s-21.92,41.29-26.06,56.8c0,0-89.8,6.17-145.06,123.86,0,0-3.41-102.9,93.37-151.87a40.91,40.91,0,0,0,21.62-28.13C1323.78,796.36,1332.7,772.31,1356,747.2Z" transform="translate(-908.75 -327.12)"/></g><g class="cls-1"><path class="cls-4" d="M1400.92,1187.19c-94,28.67-191.5,37.34-191.5,37.34-107.68,2.89-92.64-114.66-92.26-117.55,0,0,173.43,72.51,312.76-14.5C1443.65,1156.12,1400.92,1187.19,1400.92,1187.19Z" transform="translate(-908.75 -327.12)"/></g><path class="cls-4" d="M1205.48,1243.85c-33.93,0-60.73-10.75-79.72-32-27.84-31.13-29.53-75.82-28.59-96.46-31.6-28.43-52.07-75.64-58.78-92.77-29.65-19.72-160.85-113.5-122.76-204.91,10.81-26,29-34,42.45-36.21,21.6-3.57,46.73,6.15,71,21.18-18.79-45.71-25-95,10.85-127.58,14.24-12.92,31.64-18,50.29-14.7,30.66,5.42,62.54,34.64,90,68.12-9.9-51.1-6.27-84.36,10.27-105,14.39-17.92,37.1-25,67.58-20.89,65.13,8.69,106.43,105.87,125.42,163.71,20.64-23.51,48.19-41.91,75.59-49.11,25-6.56,47.22-3.36,64.39,9.25,9.68,7.11,21.67,21.48,23.72,49.48,3.73,50.76-26.57,125-67.52,165.56-36.77,36.39-44.89,87.9-46.55,103.66,41.27,82.41,4.79,138.94-20.84,157.59a19.64,19.64,0,0,1-5.72,2.85c-94.9,28.87-191.35,37.7-195.41,38.06-.4,0-.79.06-1.19.07C1208.45,1243.83,1207,1243.85,1205.48,1243.85ZM968.19,819.25a24.1,24.1,0,0,0-3.87.3c-2.48.41-8.26,1.36-13.11,13-24.43,58.61,73.44,136.12,113.21,161a19.38,19.38,0,0,1,8,10c.21.61,22.33,62.8,56.22,87.83a19.25,19.25,0,0,1,7.64,18.16c0,.44-6.28,49.36,18.32,76.71,12,13.33,29.58,19.64,53.71,19,8-.77,97.25-9.69,183.4-35.4,9.8-8.76,40.92-43.85,4.76-111.65a19.36,19.36,0,0,1-2.25-9.89c.14-3.26,4-80.43,58.35-134.17,32.84-32.5,59.1-95.75,56.19-135.35-.44-6-2.08-16.83-8.11-21.24-9.42-6.93-22.48-5.47-31.77-3-29.84,7.85-61.27,35.22-74.74,65.11a19.27,19.27,0,0,1-36.29-3.37c-15.71-64.51-58.08-169.16-104.87-175.4-24.31-3.23-30.42,4.32-32.42,6.8-11.75,14.64-15.39,60.4,34,195.27a19.27,19.27,0,0,1-35.16,15.57c-30.48-58-94.3-152.81-135.82-160.15-6.94-1.24-12.23.35-17.67,5.29-43.76,39.74,33.29,151.81,63.73,187.94a19.27,19.27,0,0,1-29.22,25.13C1063.81,875.1,1000.26,819.25,968.19,819.25Z" transform="translate(-908.75 -327.12)"/><path class="cls-4" d="M1399.53,1062.49c-2-2.88-4.46-6.69-6.69-10.2l-7-11-7.37-11.14c-2.57-3.78-5.16-7.74-8.41-12a42.31,42.31,0,0,1,15.77-.46,76.08,76.08,0,0,1,14.87,3.87,106.35,106.35,0,0,1,13.81,6,74.56,74.56,0,0,1,12.83,8.22Z" transform="translate(-908.75 -327.12)"/><path class="cls-4" d="M1392.31,822.81c-2.48,3.61-5.32,8.09-7.8,12.27s-4.92,8.6-7.16,12.94a130,130,0,0,0-10.23,25.67h0a20.41,20.41,0,0,1-16.81,14.5l-.2,0-1.93.26c-.76.09-1.61.25-2.48.41-1.69.31-3.41.62-5.18,1-3.51.64-7,1.72-10.58,2.55a204.39,204.39,0,0,0-20.93,7.3A177.58,177.58,0,0,0,1269.92,922c-3.23,2.06-5.88,4.81-8.86,7.22a85.72,85.72,0,0,0-8.6,7.69l-8.23,8.23-7.51,9c-5.44,5.78-9.62,12.5-15.13,18.65-5.06,6.41-9.7,13.21-15.87,19.68l0,0a.31.31,0,0,1-.44,0,.31.31,0,0,1-.1-.24,121.05,121.05,0,0,1,4.08-25.66c1.29-4.13,2.69-8.25,4.25-12.31a70.16,70.16,0,0,1,5.52-11.85c2.08-3.84,4.23-7.67,6.46-11.46l7.55-10.87a97.39,97.39,0,0,1,8.23-10.47c3-3.29,5.69-6.92,9-9.9l9.73-9.34c3.46-2.86,7-5.62,10.58-8.43a180.83,180.83,0,0,1,23-14.56c3.93-2.31,8.17-4,12.28-6s8.5-3.37,12.79-5c4.39-1.43,8.76-2.83,13.34-3.9,2.23-.62,4.57-1.09,6.94-1.52,1.17-.22,2.35-.45,3.64-.62s2.39-.38,4.21-.56l-17,14.53h0c3.27-12.6,8-23.46,13.29-33.84q4-7.72,8.36-15.1c3-5,5.83-9.57,9.41-14.76a19.27,19.27,0,0,1,31.74,21.86h0Z" transform="translate(-908.75 -327.12)"/><path class="cls-3" d="M1509.43,1508.07s-296.25-119.78-317.93-363.93c0,0,51.1-75,171.11-48.65,0,0,25.27,155.62,212.13,236.67a45.62,45.62,0,0,1,17.75,70Z" transform="translate(-908.75 -327.12)"/><g class="cls-1"><path class="cls-4" d="M1283.1,1116.7c16.48-10.45,38.51-19.91,66.92-23.62-111-18.61-158.52,51.06-158.52,51.06,21.68,244.15,317.93,363.93,317.93,363.93l26.86-34.26c-81.17-36.27-235-123-283-275.34A71.53,71.53,0,0,1,1283.1,1116.7Z" transform="translate(-908.75 -327.12)"/></g><g class="cls-7"><path class="cls-6" d="M1574.74,1332.16c-186.86-81.05-212.13-236.67-212.13-236.67-74.62-16.37-122.58,6.43-148.2,26,20-8.23,45.68-13.85,77.45-12a50.62,50.62,0,0,1,44.94,33.88c16.93,48.8,67,148.52,204.22,208a45.62,45.62,0,0,1,17.75,70L1495.61,1502c8.77,4.06,13.82,6.11,13.82,6.11l83.06-105.92A45.62,45.62,0,0,0,1574.74,1332.16Z" transform="translate(-908.75 -327.12)"/></g><path class="cls-4" d="M1509.42,1527.35a19.16,19.16,0,0,1-7.21-1.41c-12.55-5.07-307.44-127.11-329.9-380.1a19.25,19.25,0,0,1,3.27-12.56c2.39-3.5,60-85.39,191.16-56.61a19.25,19.25,0,0,1,14.89,15.73c1,5.89,26.59,146.52,200.78,222.08a64.88,64.88,0,0,1,25.25,99.56L1524.59,1520A19.26,19.26,0,0,1,1509.42,1527.35Zm-298-377.3c22.58,196,236.5,308.29,292.07,334.3l73.78-94.09a26.35,26.35,0,0,0-10.25-40.43C1403,1278.67,1357.45,1153.36,1346.59,1112,1266.13,1098.6,1224.12,1136,1211.47,1150.05Z" transform="translate(-908.75 -327.12)"/><path class="cls-4" d="M1202.81,1159.74c-.72.13-2.24.82-3.5,1.23l-4.09,1.47-8.6,3c-3,1-5.8,2.28-9,3.49s-6.7,2.35-11.17,3.8a25.6,25.6,0,0,1-1.48-12.73,58,58,0,0,1,3.07-11.43,72.64,72.64,0,0,1,5-10.5,56.51,56.51,0,0,1,3.14-4.85,30.67,30.67,0,0,1,4-4.74Z" transform="translate(-908.75 -327.12)"/><path class="cls-4" d="M1363.61,1076.24c.92.1,1.22.17,1.67.25l1.18.25c.74.18,1.45.39,2.1.6,1.36.4,2.57,1,3.82,1.43a48.71,48.71,0,0,1,6.83,3.73,50.52,50.52,0,0,1,11.24,9.92,45.77,45.77,0,0,1,7.52,12.3,38,38,0,0,1,3,13.61,124.56,124.56,0,0,0-12.34-3.45,67.21,67.21,0,0,0-10.78-1.47,62.82,62.82,0,0,0-9.48.16c-1.48.14-2.87.29-4.18.48l-1.8.32a3.37,3.37,0,0,0-.74.17c-.11,0-.23,0-.24.07s-.21.06.24.12Z" transform="translate(-908.75 -327.12)"/><path class="cls-3" d="M2694.68,715.79c-3.57,174.35-21.15,383.15-72.36,576,0,0-228.07,482.2-376.79,844.48-18.11,44.17-35.07,86.52-50.29,126-9,23.42-17.44,45.82-25.1,67-126.94,350-336.51,286-567.75,203.4,0,0-363.39-103.24-283.9-451.17,0,0,8.57-46,29.53-123.52,54.58-202,193.33-618.48,484.12-995.07,128.58-166.5,286.88-325.24,480.79-454.16A1786.82,1786.82,0,0,1,2605.12,351.2c37.24-15.8,79.05,9.63,81.9,50C2691.93,471.83,2697.33,583.94,2694.68,715.79Z" transform="translate(-908.75 -327.12)"/><g class="cls-8"><path class="cls-6" d="M1840.84,1063.62s-298.34,475.9-377.4,854.08c0,0,150.92,97.32,231.06,130.83,0,0,236.16-665.92,455-844.52l-40.26-236.4Z" transform="translate(-908.75 -327.12)"/></g><path class="cls-9" d="M2622.32,1291.78s-228.07,482.2-376.79,844.48h-96c101.17-243.63,345.81-783.58,345.81-783.58Z" transform="translate(-908.75 -327.12)"/><path class="cls-10" d="M2195.24,2262.28c-9,23.42-17.44,45.82-25.1,67-126.94,350-336.51,286-567.75,203.4,0,0-363.39-103.24-283.9-451.17,0,0,8.57-46,29.53-123.52C1348,1958,1580.32,2274.81,2195.24,2262.28Z" transform="translate(-908.75 -327.12)"/><path class="cls-11" d="M2694.68,715.79c-3.57,174.35-21.15,383.15-72.36,576l-127,60.9-59.84-235.39-286,86.72-40.28-236.4-268.38,96-8.72-100.73c128.58-166.5,286.88-325.24,480.79-454.16A1786.82,1786.82,0,0,1,2605.12,351.2c37.24-15.8,79.05,9.63,81.9,50C2691.93,471.83,2697.33,583.94,2694.68,715.79Z" transform="translate(-908.75 -327.12)"/><path class="cls-12" d="M2195.26,2262.29C1580.31,2274.8,1348,1958,1348,1958l36.49-123.56s212.91,325.86,861.64,300.41Z" transform="translate(-908.75 -327.12)"/><path class="cls-4" d="M2694.68,715.79c-302.64,27.66-380.3-202.67-381.75-207.06A1786.82,1786.82,0,0,1,2605.12,351.2c37.24-15.8,79.05,9.63,81.9,50C2691.93,471.83,2697.33,583.94,2694.68,715.79Z" transform="translate(-908.75 -327.12)"/><g class="cls-7"><path class="cls-6" d="M1361.85,2115.2s8.57-46,29.53-123.52c54.58-202,193.33-618.48,484.12-995.07,128.58-166.5,286.88-325.23,480.79-454.15a1786.1,1786.1,0,0,1,292.19-157.54,58.46,58.46,0,0,1,33.49-3.74,59,59,0,0,0-76.85-30,1786.82,1786.82,0,0,0-292.19,157.53C2119,637.65,1960.72,796.39,1832.14,962.89,1541.35,1339.48,1402.6,1756,1348,1958c-21,77.56-29.53,123.52-29.53,123.52-46,201.52,56.49,320.95,150.93,385.78C1390.44,2397.65,1322.85,2285.88,1361.85,2115.2Z" transform="translate(-908.75 -327.12)"/></g><g class="cls-1"><path class="cls-4" d="M2687,401.21A58.18,58.18,0,0,0,2665.7,360c.91,44.1,1.1,92.43.07,143.82-2.59,126.61-12.57,271.38-37.45,415a1044.21,1044.21,0,0,1-82.14,261.9c-74.72,160.69-222.64,483.1-329.55,743.54-18.12,44.18-35.07,86.53-50.3,126-9,23.41-17.44,45.82-25.1,67-126.94,350-336.5,286-567.75,203.39,0,0-183.51-52.18-261.18-207.26-50.93,322.35,290.09,419.24,290.09,419.24,231.24,82.57,440.81,146.6,567.75-203.4,7.66-21.15,16.09-43.55,25.1-67,15.22-39.5,32.18-81.85,50.29-126,148.72-362.28,376.79-844.48,376.79-844.48,51.21-192.84,68.79-401.64,72.36-576C2697.33,583.94,2691.93,471.83,2687,401.21Z" transform="translate(-908.75 -327.12)"/></g><path class="cls-4" d="M1872,2617.09c-90.21,0-185.36-33.92-275.5-66.11-9.22-2.7-97.93-29.92-178.37-98.81-77.81-66.65-161.49-185.71-118.47-374.61,2.58-13.45,65.59-334.29,252.31-703.36,111.58-220.52,244.9-415.12,396.26-578.37,189.55-204.43,408-360,649.41-462.37a78.19,78.19,0,0,1,108.63,66.39c10.86,155,26.23,552.54-65.27,896.87a20.12,20.12,0,0,1-1.2,3.28c-3.26,6.87-326.26,690.73-451.47,1035.84C2109.23,2553.69,1995.23,2617.09,1872,2617.09ZM2628.3,365.72a40,40,0,0,0-15.66,3.22c-535.18,227-853.24,680.87-1025.82,1021.66C1399.24,1761,1338,2081.83,1337.43,2085c0,.26-.11.51-.17.76-31.14,136.31,4.17,249.45,105,336.3,76.73,66.12,164.57,91.76,165.45,92l1.19.38c91.22,32.58,180.32,64.39,262.12,64.4,111.57,0,209.58-59.13,281.08-256.19,122.86-338.63,434.45-1000.17,452.1-1037.57,89.52-338.34,74.33-729.8,63.63-882.57a39.72,39.72,0,0,0-39.48-36.83Z" transform="translate(-908.75 -327.12)"/><path class="cls-4" d="M2495.35,1372a19.3,19.3,0,0,1-18.68-14.53l-54.9-215.83-266.67,80.87a19.27,19.27,0,0,1-24.59-15.21l-36.4-213.76-246.78,88.27a19.28,19.28,0,0,1-25.69-16.48l-8.7-100.72,38.4-3.32,6.55,75.81,244.87-87.58a19.26,19.26,0,0,1,25.49,14.9l36.59,214.86,265-80.38a19.3,19.3,0,0,1,24.27,13.7l54.07,212.57L2614,1274.39l16.67,34.75-127,60.91A19.29,19.29,0,0,1,2495.35,1372Z" transform="translate(-908.75 -327.12)"/><path class="cls-4" d="M2175.94,2155.49c-299.76,0-497.74-77.15-613.61-144.67-136.68-79.67-191.7-162.38-194-165.86l32.27-21.08-16.13,10.54,16.1-10.57c.53.79,53.67,80,183.51,155,120.13,69.48,332.35,149.66,661.28,136.69l1.51,38.51Q2210.53,2155.51,2175.94,2155.49Z" transform="translate(-908.75 -327.12)"/><path class="cls-4" d="M2160.58,2281.91c-302.86,0-508.52-81-629.16-150.38-136.9-78.76-196.49-158.79-199-162.15l31.06-22.82c.57.77,58.5,78,189.21,152.77,120.78,69.05,330.24,150.11,642.14,143.69l.78,38.54C2183.84,2281.79,2172.11,2281.91,2160.58,2281.91Z" transform="translate(-908.75 -327.12)"/><path class="cls-4" d="M1958.74,1633.64c-2.6,17.29-7.85,39.21-18.5,60.6-21.19,42.64-63.78,83.2-149.24,81.32a97.5,97.5,0,0,1-67.69-29.09,181.09,181.09,0,0,1-28.81-38.11c-20.86-37.38-31.17-90.52,4.34-158a45,45,0,0,1,60.41-18.88c39.26,20.23,105.55,50.49,172.71,63.83A34,34,0,0,1,1958.74,1633.64Z" transform="translate(-908.75 -327.12)"/><path class="cls-10" d="M1940.24,1694.24c-21.19,42.64-63.78,83.2-149.24,81.32a97.5,97.5,0,0,1-67.69-29.09,181.09,181.09,0,0,1-28.81-38.11C1731.26,1667.84,1819.27,1599.77,1940.24,1694.24Z" transform="translate(-908.75 -327.12)"/><path class="cls-4" d="M1796.61,1790.1c-2,0-3.93,0-5.93-.07a111.56,111.56,0,0,1-77.66-33.46c-33.78-34.42-82.21-107.87-27-212.94a59.57,59.57,0,0,1,79.83-25h0c41.76,21.52,104.95,49.83,168.87,62.51a48.33,48.33,0,0,1,38.28,54.69C1966.07,1682.54,1935,1790.1,1796.61,1790.1Zm-58-249.21a30.47,30.47,0,0,0-27,16.18c-44.36,84.4-12.51,144.07,22,179.26a82.8,82.8,0,0,0,57.66,24.8c110.37,2.37,144.13-69.15,153.12-129.6a19.45,19.45,0,0,0-15.3-22.08c-67.22-13.33-133.08-42.79-176.49-65.17h0A30.57,30.57,0,0,0,1738.64,1540.89Z" transform="translate(-908.75 -327.12)"/><ellipse class="cls-4" cx="1768.98" cy="1332.66" rx="109.04" ry="79.71" transform="translate(-1178.38 1871.19) rotate(-60)"/><ellipse class="cls-6" cx="1797.89" cy="1332.66" rx="39.18" ry="28.64" transform="translate(-1163.93 1896.21) rotate(-60)"/><ellipse class="cls-4" cx="2073.52" cy="1456.54" rx="109.04" ry="79.71" transform="translate(-1133.39 2196.87) rotate(-60)"/><ellipse class="cls-6" cx="2102.43" cy="1456.54" rx="39.18" ry="28.64" transform="translate(-1118.94 2221.91) rotate(-60)"/><path class="cls-12" d="M2355.79,1445.53c-18.3-10.86-27.62-17.2-31-19.6a17.86,17.86,0,0,1-2.77-2.44c-129.74-138.7-290.77-120.15-297.47-118.84a21.8,21.8,0,0,0-12.79,7.72c-.69.84-4.29,5.42-9.55,13a19.21,19.21,0,0,1-26.35,5c-22.85-15-43.2-22.48-59.59-26.05a19.19,19.19,0,0,1-14.91-22.28v0a20.49,20.49,0,0,0-2.49-13.84c-3.26-5.56-90.67-130.75-269.47-135.73a18,18,0,0,1-3.72-.48c-3.92-.93-14.17-3.57-33.05-9.65a36.42,36.42,0,0,0-42.48,16.06,78,78,0,0,0-5.46,11.07,31.43,31.43,0,0,0,9.25,35.7l3.67,3a19.13,19.13,0,0,1,6.26,19.86c-14.79,54.06-27.56,134.62,2.66,195.56a137.31,137.31,0,0,0,18.92,28.79c19.44,22.72,46.1,38.33,79.72,46.7,49.39,12.26,93.72,5.91,131.76-18.84,41.26-26.88,67.26-70.7,83-108.17a19.06,19.06,0,0,1,19.79-11.73c13.38,1.64,34.23,7.47,60,25.61a19.21,19.21,0,0,1,6.56,23.38c-16.57,37.37-29.7,84.28-22.73,131.37,7.08,47.68,33.16,87.39,77.65,118,30.26,20.86,61.5,31.1,93.19,30.58a147,147,0,0,0,36.2-5.21c70-18.93,125.24-86.27,157.76-136.08a19.14,19.14,0,0,1,19-8.46l5.74.9a33.26,33.26,0,0,0,34.88-17.76,86.31,86.31,0,0,0,5-12.08A38.67,38.67,0,0,0,2355.79,1445.53ZM1857,1292.47c-8.63,32.27-32.14,100.83-82.54,133.59-28.52,18.53-61.06,22.91-99.47,13.41-34.64-8.64-58.15-26.28-71.9-54-29.93-60.27-5.91-151.19,8.85-194.94a20.61,20.61,0,0,1,19.53-14c129-.11,197.38,67.25,221.77,97.74A20.49,20.49,0,0,1,1857,1292.47Zm430.86,185.67c-24.42,42.45-79.74,125.5-148.72,144.06-31.66,8.55-62.26,2.3-93.45-19.21-34.59-23.78-54-52.76-59.3-88.47-9.4-63.11,28.55-130,48.16-159.54a21.79,21.79,0,0,1,17-9.77c41.4-2.06,143,4.92,233.68,107.58A21.92,21.92,0,0,1,2287.9,1478.14Z" transform="translate(-908.75 -327.12)"/><path class="cls-4" d="M2112.09,1678.94c-32.87,0-65.29-10.86-96.4-32.3-46.72-32.14-74.22-74-81.71-124.52-6.17-41.69,1.72-87.67,23.45-136.69a9.51,9.51,0,0,0-3.3-11.59c-24.33-17.14-43.67-22.47-55.61-23.92a9.45,9.45,0,0,0-9.74,5.89c-14.77,35.21-41.78,83.31-86.6,112.51-40.4,26.28-87.29,33-139.34,20.12-35.51-8.83-64-25.58-84.72-49.78a147.42,147.42,0,0,1-20.24-30.81c-31.26-63-19.06-144.83-3.31-202.36a9.56,9.56,0,0,0-3.11-9.88l-3.66-3a41,41,0,0,1-12.07-46.68,87.2,87.2,0,0,1,6.09-12.38,46.33,46.33,0,0,1,53.74-20.37c18.79,6,28.88,8.62,32.35,9.45a8,8,0,0,0,1.78.22c186.85,5.2,276.69,139.15,277.48,140.49a30.1,30.1,0,0,1,3.67,20.36l-.06.33a9.55,9.55,0,0,0,7.52,10.93c20.88,4.55,42,13.76,62.82,27.4a9.51,9.51,0,0,0,13.14-2.42c5.2-7.5,9-12.39,10-13.64a31.37,31.37,0,0,1,18.38-11.07c1.66-.32,171.25-22.76,306.38,121.71a8,8,0,0,0,1.3,1.15c3.09,2.18,12.26,8.43,30.37,19.18h0a48,48,0,0,1,21.35,56.31,95.16,95.16,0,0,1-5.53,13.48,42.8,42.8,0,0,1-45,22.91l-5.74-.89a9.51,9.51,0,0,0-9.45,4.2c-34.7,53.15-91.21,120.61-163.31,140.12a158,158,0,0,1-38.56,5.54Zm-214.6-348.36a27.18,27.18,0,0,1,3.36.21c14.13,1.72,36.77,7.86,64.37,27.29a28.83,28.83,0,0,1,9.83,35.16c-20.24,45.62-27.64,88-22,126,6.68,45,31.43,82.48,73.58,111.47,28.5,19.66,58,29.31,87.58,28.89a137.68,137.68,0,0,0,33.83-4.88c66.25-17.92,119.34-81.7,152.22-132a28.88,28.88,0,0,1,28.56-12.71l5.74.9a23.52,23.52,0,0,0,24.79-12.58,75.87,75.87,0,0,0,4.41-10.76,29.16,29.16,0,0,0-12.88-33.75h0c-18-10.71-27.57-17.14-31.66-20a28.69,28.69,0,0,1-4.25-3.72c-128.53-137.42-287.08-116.23-288.62-116a12.17,12.17,0,0,0-7.09,4.3c-.09.1-3.5,4.33-9.14,12.47a28.67,28.67,0,0,1-39.55,7.56c-18.83-12.33-37.79-20.64-56.36-24.68a28.71,28.71,0,0,1-22.33-33.5s0,0,0-.07a10.79,10.79,0,0,0-1.34-7.14c-.75-1.22-84.65-126-261.42-131a29.59,29.59,0,0,1-5.67-.74c-4.59-1.1-15.07-3.83-33.78-9.86a26.92,26.92,0,0,0-31.22,11.77,67.72,67.72,0,0,0-4.78,9.68,21.74,21.74,0,0,0,6.42,24.8l3.64,3a28.86,28.86,0,0,1,9.42,29.84c-14.85,54.3-26.57,131.12,2,188.73a128.29,128.29,0,0,0,17.61,26.82c18,21.09,43.2,35.76,74.73,43.61,46.66,11.6,88.45,5.67,124.18-17.57,40.71-26.53,65.62-71.1,79.34-103.81A28.92,28.92,0,0,1,1897.49,1330.58Zm214.42,305c-24.11,0-47.77-8.17-71.65-24.65-36.91-25.36-57.64-56.44-63.36-95-9.69-65.08,27-132.12,49.67-166.29a31.24,31.24,0,0,1,24.57-14.06c41.34-2,147.57,4.62,241.4,110.81a31.48,31.48,0,0,1,3.72,36.52v0c-27.18,47.27-83.4,129.42-154.57,148.56A113.7,113.7,0,0,1,2111.91,1635.57Zm-49.15-281c-3.93,0-7.49.1-10.65.26a12,12,0,0,0-9.49,5.48c-17,25.65-55.73,91.89-46.65,152.78,4.88,33,23,59.77,55.22,82,28.7,19.8,56.65,25.64,85.47,17.84,66.86-18,122.18-103.55,142.88-139.53h0a12.23,12.23,0,0,0-1.43-14.18C2197,1367.42,2106.82,1354.58,2062.76,1354.58ZM1712.48,1454a166,166,0,0,1-39.77-5.17c-37.56-9.37-63.13-28.68-78.2-59-31-62.51-8.1-153.58,8.34-202.31a30.31,30.31,0,0,1,29-20.51c133.49,0,204.59,70.87,229,101.36a30.24,30.24,0,0,1,5.56,26.61h0c-10,37.47-34.61,105.39-86.6,139.18A120.43,120.43,0,0,1,1712.48,1454Zm-80.66-267.75a11.08,11.08,0,0,0-10.71,7.4c-12.47,36.95-38.34,129.2-9.35,187.58,12.41,25,33.87,41,65.6,48.89,35.67,8.82,65.73,4.86,91.89-12.14,48.32-31.41,71-100,78.48-128h0a10.86,10.86,0,0,0-2-9.59C1823.1,1252.07,1756.94,1186.25,1631.82,1186.25Z" transform="translate(-908.75 -327.12)"/><path class="cls-3" d="M2780.29,1900.34s-20.67,78-150.75,71.73c0,0-29.91-131.08-157.92-117.69-72.26,7.56-147.17-.48-198.72-8.91-55.55-9.11-78.67-77.28-39.22-117.41,20-20.28,53.09-36,107.34-37.81,0,0,17.44,1.39,44.56,3.61h.05c75.2,6.17,224.84,18.88,286.26,26.83,70.1,9.11,98.86,129.21,106.32,167.8C2779.66,1895.91,2780.29,1900.34,2780.29,1900.34Z" transform="translate(-908.75 -327.12)"/><g class="cls-1"><path class="cls-4" d="M2780.29,1900.34s-20.67,78-150.75,71.73c0,0-29.91-131.08-157.92-117.69-72.26,7.56-147.17-.48-198.72-8.91-55.55-9.11-78.67-77.28-39.22-117.41,20-20.28,53.09-36,107.34-37.81,0,0,17.44,1.39,44.56,3.61-29.48,13.87-85.94,44.75-76,73.47,12.89,37.09,295.17-13.73,336.25,99.11,5.92,16.25,16.7,30.5,32.05,38.47,21.56,11.18,55.23,15.72,100.35-16.42C2779.66,1895.91,2780.29,1900.34,2780.29,1900.34Z" transform="translate(-908.75 -327.12)"/></g><g class="cls-7"><path class="cls-6" d="M2228.87,1766.6c20-20.28,53.08-36,107.33-37.81,0,0,17.44,1.39,44.56,3.61h0c75.2,6.17,224.84,18.88,286.26,26.83,65.37,8.49,94.78,113.48,104.51,158.91,6.69-10.23,8.71-17.8,8.71-17.8s-.63-4.43-2.08-11.85c-7.46-38.59-36.22-158.69-106.32-167.8-61.42-8-211.06-20.66-286.26-26.83h-.05c-27.12-2.22-44.56-3.61-44.56-3.61-54.25,1.83-87.34,17.53-107.34,37.81a67.66,67.66,0,0,0-18.79,59A68.81,68.81,0,0,1,2228.87,1766.6Z" transform="translate(-908.75 -327.12)"/></g><path class="cls-4" d="M2630.53,1991.32a5.7,5.7,0,0,1-4.51,0l-4.46-1.39a60,60,0,0,1-8.86-3.67,71.94,71.94,0,0,1-8.77-5.24,59.48,59.48,0,0,1-8.5-7.3,1.91,1.91,0,0,1,.11-2.7,100,100,0,0,1,8.53-6.91,94.49,94.49,0,0,1,8.27-5.3,68.68,68.68,0,0,1,8.17-4l4.06-1.68a4.69,4.69,0,0,1,4-.31l2.06,1a20.94,20.94,0,0,1-.1,37.46Z" transform="translate(-908.75 -327.12)"/><path class="cls-4" d="M2772.3,1882.78c-.61.38-.22.3-.2.38a2.09,2.09,0,0,0,.45.09c.35,0,.78.06,1.24.06.89,0,1.94,0,3-.11,2.17-.12,4.55-.41,7.11-.76,5.08-.82,10.64-2.06,18.31-3a32.33,32.33,0,0,1,1,10.69,38.55,38.55,0,0,1-2.12,9.85,44.41,44.41,0,0,1-4.44,9.26,33.86,33.86,0,0,1-3.24,4.3,23,23,0,0,1-2,2.07,14.63,14.63,0,0,1-1.22,1,12.19,12.19,0,0,1-1.89,1.25Z" transform="translate(-908.75 -327.12)"/><path class="cls-4" d="M2644.14,1991.7c-5,0-10.17-.13-15.51-.38a19.27,19.27,0,0,1-17.87-15c-1.07-4.62-28-114.17-137.15-102.81-74.83,7.85-152.14-.59-203.81-9.07a89.32,89.32,0,0,1-70.64-60.69c-10.45-32-2.68-65.36,20.79-89.23h0c26.66-27.1,67.16-41.76,120.41-43.57a15.76,15.76,0,0,1,2.17,0c10.12.8,248.68,19.77,331.82,30.55,95.34,12.36,122.24,177.18,125,195.94a19.21,19.21,0,0,1-.44,7.73C2797.93,1908.92,2774.44,1991.69,2644.14,1991.7Zm-154.75-157.53c91.38,0,138.54,70,154.82,119,86.54-.06,110.95-42.26,116.26-54.69-7.62-45.9-36.43-151.56-91.07-158.65-79.36-10.29-310.75-28.83-328.81-30.27-42.49,1.61-73.83,12.39-93.16,32a48.84,48.84,0,0,0-11.63,50.25,50.25,50.25,0,0,0,40.24,34.62c49.33,8.09,123,16.17,193.55,8.77A191.18,191.18,0,0,1,2489.39,1834.17Z" transform="translate(-908.75 -327.12)"/><path class="cls-5" d="M2533.1,1706.54a36,36,0,0,0-10.54-28.86c-3.39-3.36-84.19-82.32-181.43-69.49-59,7.78-109,46.28-148.6,114.43-48.36,83.12-61.57,163.45-39.26,238.75,36.76,124.07,157.3,186.19,162.42,188.77a36.13,36.13,0,0,0,32.68-64.45c-1-.51-98.4-51.35-126-145.35C2206.2,1885,2217.16,1824,2255,1759c27.74-47.67,59.79-74.27,95.29-79.08,27.95-3.79,55.33,5.78,77,17.45Z" transform="translate(-908.75 -327.12)"/><path class="cls-4" d="M2331.92,2173.3a55.66,55.66,0,0,1-24.93-6c-5.41-2.74-133.1-68.54-172.2-200.5-23.87-80.59-10.05-166,41.09-253.92,42.8-73.57,97.55-115.23,162.73-123.84,106.46-14,193.86,71.29,197.53,74.93a55.28,55.28,0,0,1,16.16,44.22,19.28,19.28,0,0,1-20.87,17.51l-105.83-9.22a19.27,19.27,0,0,1-7.47-2.24c-23.78-12.81-45.72-18-65.25-15.31-29.32,4-56.64,27.4-81.23,69.68-35.07,60.28-45.42,116.23-30.75,166.26,25,85.24,115.41,133.19,116.32,133.66a55.42,55.42,0,0,1-25.3,104.73Zm31-547.26a146.86,146.86,0,0,0-19.26,1.26c-52.73,7-98,42.28-134.46,105-45.59,78.36-58.19,153.59-37.44,223.59,34.42,116.19,147.82,174.62,152.63,177a16.62,16.62,0,0,0,7.54,1.81,16.88,16.88,0,0,0,7.65-31.92c-1.05-.53-105.79-55.21-135.65-157.08-17.76-60.59-6.18-126.69,34.42-196.48,30.87-53.08,67.66-82.85,109.36-88.5,26.66-3.64,55.31,2.33,85.12,17.69l68.6,6C2482,1667.55,2427.56,1626,2362.91,1626Z" transform="translate(-908.75 -327.12)"/><path class="cls-5" d="M2236.86,3314.3c-82.57,114.37-383.14,86.86-422.07-18.79-13.87-37.72-.38-66.53,22.74-88,41.68-38.68,114.52-53.43,114.52-53.43,37.14-89,40.71-178.2,40.71-178.2-9-31.31-15.37-61.47,39.69-99s90.57,57.72,90.57,57.72c15.8-22.93,20.62-45.48,20.19-65.18-.77-37.15-20.19-64-20.19-64s59.11,18.89,90.19,10.21a32.47,32.47,0,0,0,5.15-1.78c29.1-12.67,53.48,3.71,53.48,3.71C2355.52,3022,2319.48,3199.93,2236.86,3314.3Z" transform="translate(-908.75 -327.12)"/><path class="cls-6" d="M2236.89,3314.3c-82.6,114.38-383.19,86.85-422.09-18.78s137.27-141.42,137.27-141.42,128.81,2.22,200.64,88.28c12.06,14.43,34.35,14.48,46.76.39,44.14-50.27,114.53-178.24,13.74-427.17a37.76,37.76,0,0,0,5.14-1.78c29.11-12.7,53.48,3.71,53.48,3.71C2355.52,3022,2319.48,3199.92,2236.89,3314.3Z" transform="translate(-908.75 -327.12)"/><path class="cls-6" d="M2111.36,3157.18a14.94,14.94,0,0,1-9.34-3.27c-55.22-44-132.68-15.89-133.46-15.6a15,15,0,1,1-10.47-28.11c3.81-1.42,94.28-34.19,162.62,20.24a15,15,0,0,1-9.35,26.74Z" transform="translate(-908.75 -327.12)"/><path class="cls-6" d="M2131,3083a15,15,0,0,1-9.53-3.42c-60.37-49.67-131.51-12.15-132.22-11.75a15,15,0,0,1-14.28-26.39c3.63-2,89.79-47.38,165.57,15A15,15,0,0,1,2131,3083Z" transform="translate(-908.75 -327.12)"/><path class="cls-6" d="M2152.67,3004.65a14.93,14.93,0,0,1-8.14-2.41c-55.93-36.19-146.19-1.59-147.09-1.25a15,15,0,0,1-10.92-27.94c4.28-1.68,105.62-40.45,174.31,4a15,15,0,0,1-8.16,27.59Z" transform="translate(-908.75 -327.12)"/><g class="cls-1"><path class="cls-4" d="M2236.86,3314.3c-82.57,114.37-383.14,86.86-422.07-18.79-13.87-37.72-.38-66.53,22.74-88,45.53,49.91,144.39,129.74,285.49,88,178.16-52.7,200-354,20.19-426.11-.77-37.15-20.19-64-20.19-64s59.11,18.89,90.19,10.21a32.47,32.47,0,0,0,5.15-1.78c29.1-12.67,53.48,3.71,53.48,3.71C2355.52,3022,2319.48,3199.93,2236.86,3314.3Z" transform="translate(-908.75 -327.12)"/></g><path class="cls-4" d="M2037.22,3405.57a454.07,454.07,0,0,1-61.39-4.15c-92.63-12.69-158.9-50.06-177.28-99.94-10.32-28-8.75-54.46,4.68-78.54,29.42-52.74,108.86-76.78,136.16-83.66,29.11-73.86,35-146.87,35.92-161.47-9.93-35.67-13.15-73.92,47.39-115.25,21.23-14.5,40-13,52-9.18,21.09,6.7,37.13,25.2,48,42.24,12.08-43-12.41-78.41-13.69-80.21a17.32,17.32,0,0,1,19.34-26.55c24.95,8,67.22,16,83.14,9.11,37.41-16.33,68.76,4.32,70.08,5.21a17.31,17.31,0,0,1,6.34,7.79c40.45,98.84,56,196.58,46.08,290.52-8.7,82.69-37.41,159.78-83,222.94C2209.19,3382.19,2121.54,3405.57,2037.22,3405.57Zm20.83-520.22c-4.06,0-9.27,1.3-15.84,5.78-46.7,31.89-40.58,53.1-32.85,80a16.86,16.86,0,0,1,.66,5.47c-.14,3.77-4.08,93.4-42,184.2a17.28,17.28,0,0,1-12.52,10.29c-26.28,5.37-99.48,28.22-122.07,68.79-8.38,15.06-9.17,31.31-2.4,49.68,13.47,36.55,72.15,67,149.51,77.62,86.28,11.84,198.89-2.84,242.33-63,92.07-127.48,104.83-300.07,35.29-474.34a41,41,0,0,0-32.88-.15c-19.19,8.37-47.83,5.82-71,1.38,9,28.29,12.8,70.05-17,113.31a17.29,17.29,0,0,1-30.46-3.77c-4.51-12-22-47.74-42.65-54.26A19.94,19.94,0,0,0,2058.05,2885.35Z" transform="translate(-908.75 -327.12)"/><path class="cls-4" d="M2001.63,2990.73l-17.79-29.68c2.86-1.72,70.89-42.09,138.75-43.78l.86,34.59C2064.84,2953.32,2002.25,2990.35,2001.63,2990.73Z" transform="translate(-908.75 -327.12)"/><path class="cls-4" d="M2176.18,3265.31h-.56a42.52,42.52,0,0,1-32.15-15.23c-67.36-80.68-190.4-83.92-191.63-83.94l.41-24.09c5.49.1,135.19,3.33,209.71,92.59a18.17,18.17,0,0,0,14,6.58h.25a19,19,0,0,0,14.25-6.41c46.08-52.41,108.76-176.19,10.94-416.45l22.31-9.08c102.71,252.26,34.59,384.85-15.16,441.43A43,43,0,0,1,2176.18,3265.31Z" transform="translate(-908.75 -327.12)"/><path class="cls-3" d="M1875.93,2489.53c-99.1,42.59-175.75-102.18-175.75-102.18.78,72,20.91,244.64,20.91,244.64-165.67,70.48-215.78-92.12-215.78-92.12s-.14-24,1.45-60.55c5.88-133.5,34.93-434.79,178.73-351.35,139.37,80.94,216.21,181,232.93,256.68C1929.36,2433.84,1915,2472.76,1875.93,2489.53Z" transform="translate(-908.75 -327.12)"/><g class="cls-1"><path class="cls-4" d="M1875.93,2489.53c-99.1,42.59-175.75-102.18-175.75-102.18.78,72,20.91,244.64,20.91,244.64-165.67,70.48-215.78-92.12-215.78-92.12s-.14-24,1.45-60.55l4.77,7.32s3,2.42,8.33,6.1c50.3,34.67,119.52,4.8,128.79-55.58,9.55-62.2,30.34-137.41,75.53-157.15l3.16,46.18a83.07,83.07,0,0,0,33.05,61.08c36,26.76,98.4,55.37,158-2.62C1929.36,2433.84,1915,2472.76,1875.93,2489.53Z" transform="translate(-908.75 -327.12)"/></g><g class="cls-7"><path class="cls-6" d="M1548.67,2549.51s-.14-24,1.45-60.56c5.09-115.63,27.58-357.1,127-365.44-136.52-67-164.56,225-170.32,355.81-1.59,36.56-1.45,60.55-1.45,60.55s32.27,104.65,130.6,109.62C1571.18,2622.54,1548.67,2549.51,1548.67,2549.51Z" transform="translate(-908.75 -327.12)"/></g><path class="cls-4" d="M1680.93,2388a134.4,134.4,0,0,1,2.54-21.14,177.72,177.72,0,0,1,5.28-20.59,110.16,110.16,0,0,1,8.28-20c3.57-6.36,7.8-12.83,14-17.12a136.36,136.36,0,0,0,1.11,20.41c.73,6.51,1.4,12.9,2.29,19.32l2.68,19.13c.86,6.27,1.77,12.86,2.34,18.67Z" transform="translate(-908.75 -327.12)"/><path class="cls-4" d="M1643.15,2669a148.71,148.71,0,0,1-63.37-13.73c-68.14-31.67-91.89-106.59-92.86-109.76a19.37,19.37,0,0,1-.85-5.56c-.23-37.71,1-370.31,111.65-434.45,20-11.58,53.08-20,97.43,5.77,176.63,102.53,250.77,230.34,245.89,311.53-2.38,39.53-22.79,69.51-57.49,84.42-68.12,29.28-125.07-13.57-160.67-54.26,5.88,77.94,17.2,175.49,17.35,176.78a19.28,19.28,0,0,1-11.6,20C1698.41,2662.58,1669.83,2669,1643.15,2669ZM1524.59,2536.6c4.27,11.64,25.13,62.37,71.7,83.86,29.43,13.58,64.37,13.23,104-1-4.9-43.64-18.7-171.34-19.35-231.94a19.27,19.27,0,0,1,36.3-9.23c.94,1.77,69.75,128.49,151.11,93.52,21.22-9.12,32.74-26.38,34.24-51.32,4-67.14-65.21-182.11-226.77-275.89-23.1-13.4-42.3-15.28-58.75-5.76C1540.43,2183.28,1524.4,2437.92,1524.59,2536.6Z" transform="translate(-908.75 -327.12)"/><path class="cls-5" d="M1723.93,2917.86l0,.15a230.83,230.83,0,0,1-18.7,40.61v.05c-27.55,46-67.68,64.89-117.26,30.39-130.7-90.95-494.57-262.6-489.32-411.66l.05-.05c0-1.3.1-2.65.24-3.95a76.15,76.15,0,0,1,1.25-9.73c1.06-5.44,2.32-10.74,3.76-15.8C1143,2411.73,1322,2415,1398.17,2486.59l0,0c79,74.33,129.3,64.27,129.3,64.27,95.25-24.81,102.23,89.8,102.23,89.8,35.75-3,59.11-10.65,72.89-16.91,11.32-5.16,16.14-9.4,16.14-9.4C1755.73,2704.54,1754.14,2832.83,1723.93,2917.86Z" transform="translate(-908.75 -327.12)"/><path class="cls-6" d="M1723.93,2917.85l0,.15-18.74,40.56s-245.22-304.71-385.65-389.36c-138.17-83.29-218.33,5.3-220.84,8.15a88.34,88.34,0,0,1,1.49-13.69c29.39-152.09,219-151.36,298-77.08l0,.05c15.13,40.52,16.38,64.12,15.22,76a22.54,22.54,0,0,0,6.65,18.45C1600.94,2756.7,1723.93,2917.85,1723.93,2917.85Z" transform="translate(-908.75 -327.12)"/><path class="cls-6" d="M1542.64,2661.6l-.8,0a19.27,19.27,0,0,1-18.47-20c.91-22.32-21.59-58-36-75.24a19.27,19.27,0,0,1,29.55-24.74c4.79,5.71,46.75,57.12,45,101.54A19.28,19.28,0,0,1,1542.64,2661.6Z" transform="translate(-908.75 -327.12)"/><path class="cls-6" d="M1443.52,2572.89a14.44,14.44,0,0,1-14.44-14.15c-.21-10.2-11-31.39-18.66-43.18a14.46,14.46,0,0,1,24.27-15.71c3.81,5.88,22.83,36.33,23.28,58.29a14.45,14.45,0,0,1-14.15,14.75Z" transform="translate(-908.75 -327.12)"/><path class="cls-6" d="M1485.34,2620.69h-.24a19.28,19.28,0,0,1-19-19.5c.32-26.58-16-55-16.17-55.32a19.27,19.27,0,0,1,33.27-19.45c.9,1.52,21.89,37.79,21.44,75.23A19.28,19.28,0,0,1,1485.34,2620.69Z" transform="translate(-908.75 -327.12)"/><g class="cls-1"><path class="cls-4" d="M1723.93,2917.86l0,.15a230.83,230.83,0,0,1-18.7,40.61v.05c-27.55,46-67.68,64.89-117.26,30.39-130.7-90.95-494.57-262.6-489.32-411.66l.05-.05c0-1.3.1-2.65.24-3.95a76.15,76.15,0,0,1,1.25-9.73c1.06-5.44,2.32-10.74,3.76-15.8,119.86,78.38,513.07,313,598.73,75.93,11.32-5.16,16.14-9.4,16.14-9.4C1755.73,2704.54,1754.14,2832.83,1723.93,2917.86Z" transform="translate(-908.75 -327.12)"/></g><path class="cls-4" d="M1705.19,2958.61v0c-27.55,46-67.68,64.89-117.26,30.4-130.7-91-494.57-262.61-489.32-411.67l.05,0c0-1.3.1-2.65.24-3.95,6.94-7,13.68-8.58,13.68-8.58,196.75-158.79,592.57,393.74,592.57,393.74Z" transform="translate(-908.75 -327.12)"/><path class="cls-4" d="M1637,3024c-19.11,0-39.08-6.93-59-20.78-29.22-20.33-70-44.59-117.22-72.68-179.5-106.79-402.9-239.69-377.67-370.2,12.4-64.1,52.78-110.23,113.69-129.9,72.05-23.27,161.72-4.95,213.24,43.55,66.53,62.61,109.67,60.29,114.06,59.86,30.41-7.68,56.53-3.84,77.63,11.47,27.68,20.09,38.54,55,42.72,76.31,45.13-6.3,63-20.37,63.14-20.53a17,17,0,0,1,15.24-3.69,17.21,17.21,0,0,1,11.9,10.36c54,131.68,30.24,335.86-46.25,397.22C1672.72,3017.7,1655.27,3024,1637,3024Zm-374.33-568.93a180.37,180.37,0,0,0-55.22,8.3c-34.21,11.05-77.67,38-90.34,103.54-20.62,106.64,209.26,243.4,361.38,333.89,47.79,28.43,89.06,53,119.29,74,26.32,18.31,48.92,19.36,69.07,3.18,60.77-48.75,81.12-222.18,42.77-338.44-15.6,7.1-40.83,15.21-78.47,18.34a17.31,17.31,0,0,1-18.71-16.19c0-.44-3.48-48.5-31.1-68.45-12.7-9.17-28.88-11-49.48-5.67-.31.08-.64.16-1,.22-6,1.22-61.48,9.56-144.55-68.63C1356.44,2471.05,1309.05,2455.11,1262.69,2455.11Z" transform="translate(-908.75 -327.12)"/><path class="cls-4" d="M1705.17,2970.59a12,12,0,0,1-9.38-4.49c-2.45-3-245.53-304-382.5-386.58-130.2-78.5-204.86,4.89-205.6,5.74l-18.19-15.78c.87-1,88.84-99.46,236.23-10.58,124.27,74.93,324.72,313.91,376.58,377.07l7.61-16.51c-23.56-30.14-139-175.15-298.21-329.7a34.52,34.52,0,0,1-10.27-28.28c.93-9.42.26-31.13-14.5-70.64l22.57-8.43c15.63,41.85,17.28,67.37,15.91,81.41a10.49,10.49,0,0,0,3.07,8.65c179.43,174.18,303.76,336.46,305,338.08a12,12,0,0,1,1.36,12.35l-18.75,40.69a12,12,0,0,1-9.46,6.91A12.21,12.21,0,0,1,1705.17,2970.59Z" transform="translate(-908.75 -327.12)"/><path class="cls-4" d="M1612.07,2654.38c-19,0-35.94-5.41-50.54-16.17-38.39-28.3-45.66-83.5-46-85.83l23.9-3-12,1.49,12-1.51c.06.47,6.39,47.44,36.43,69.5,13.94,10.24,31.33,13.59,51.71,10l4.22,23.71A113.08,113.08,0,0,1,1612.07,2654.38Z" transform="translate(-908.75 -327.12)"/></svg>