<svg width="872" height="885" viewBox="0 0 872 885" fill="none" xmlns="http://www.w3.org/2000/svg">
<g opacity="0.15" filter="url(#filter0_f_1008_1066)">
<path d="M795 450C795 607.401 673.221 735 523 735C372.779 735 251 607.401 251 450C251 292.599 372.779 165 523 165C673.221 165 795 292.599 795 450Z" fill="#6938EF"/>
<path d="M794.5 450C794.5 607.147 672.924 734.5 523 734.5C373.076 734.5 251.5 607.147 251.5 450C251.5 292.853 373.076 165.5 523 165.5C672.924 165.5 794.5 292.853 794.5 450Z" stroke="black" stroke-opacity="0.6"/>
</g>
<g filter="url(#filter1_f_1008_1066)">
<path d="M694 435C694 592.401 572.221 720 422 720C271.779 720 150 592.401 150 435C150 277.599 271.779 150 422 150C572.221 150 694 277.599 694 435Z" fill="#F9F54B" fill-opacity="0.3"/>
<path d="M693.5 435C693.5 592.147 571.924 719.5 422 719.5C272.076 719.5 150.5 592.147 150.5 435C150.5 277.853 272.076 150.5 422 150.5C571.924 150.5 693.5 277.853 693.5 435Z" stroke="black" stroke-opacity="0.6"/>
</g>
<g clip-path="url(#clip0_1008_1066)">
<g opacity="0.3">
<path d="M500.319 658.001C556.65 658.001 602.315 650.372 602.315 640.961C602.315 631.55 556.65 623.921 500.319 623.921C443.988 623.921 398.323 631.55 398.323 640.961C398.323 650.372 443.988 658.001 500.319 658.001Z" fill="#5B5BEF"/>
</g>
<path d="M464.694 520.236C464.694 520.236 472.71 562.183 506.512 581.183C517.569 587.4 530.254 576.23 525.549 564.457C525.47 564.26 525.389 564.062 525.306 563.861C525.306 563.861 521.67 556.742 514.85 551.896C508.031 547.05 491.512 522.512 490.151 517.058C488.79 511.604 464.694 520.236 464.694 520.236Z" fill="#FCAF03"/>
<g opacity="0.3">
<path d="M525.545 564.454C525.466 564.257 525.385 564.059 525.301 563.858C525.301 563.858 521.665 556.739 514.846 551.893C508.026 547.047 491.507 522.509 490.146 517.055C489.342 513.839 480.627 515.525 473.615 517.448C476.761 517.191 479.138 517.571 479.54 519.175C480.903 524.629 497.42 549.167 504.239 554.013C511.059 558.859 514.695 565.98 514.695 565.98C514.779 566.175 514.859 566.373 514.937 566.574C517.511 573.018 514.874 579.274 510.15 582.605C520.124 584.95 529.741 574.949 525.545 564.454Z" fill="#000072"/>
</g>
<path d="M513.129 585.771C510.322 585.764 507.565 585.033 505.124 583.648C470.576 564.221 462.252 522.532 461.915 520.767C461.789 520.105 461.903 519.42 462.237 518.834C462.571 518.249 463.104 517.802 463.738 517.574C468.604 515.831 484.909 510.372 490.453 513.334C492.056 514.191 492.664 515.457 492.891 516.37C494.073 521.094 510.188 545.111 516.487 549.589C523.787 554.778 527.66 562.257 527.822 562.573C527.854 562.636 527.883 562.701 527.911 562.765C528 562.979 528.087 563.192 528.172 563.403C530.773 569.913 529.053 577.1 523.778 581.714C520.841 584.318 517.054 585.76 513.129 585.771ZM468.026 522.076C470.31 531.048 480.209 563.151 507.899 578.72C512.71 581.425 517.332 579.842 520.052 577.461C522.772 575.08 524.983 570.662 522.922 565.503L522.744 565.063C522.335 564.303 518.978 558.294 513.203 554.194C506.387 549.352 489.79 525.289 487.535 518.211C485.295 517.456 476.751 519.166 468.026 522.076Z" fill="#000072"/>
<path d="M583.315 444.505C580.133 447.015 577.75 455.313 573.888 463.696C569.732 472.751 563.841 481.912 553.339 484.032C533.107 488.111 526.135 466.05 526.135 466.05C517.79 446.93 518.562 383.61 553.339 378.387C556.211 377.942 559.116 377.732 562.022 377.758C589.544 378.041 596.504 401.791 596.504 401.791C607.838 438.596 583.315 444.505 583.315 444.505Z" fill="#FF2765"/>
<g opacity="0.3">
<path d="M573.888 463.696C569.731 472.751 563.841 481.912 553.339 484.032C533.107 488.111 526.135 466.05 526.135 466.05C517.79 446.93 518.562 383.61 553.339 378.387C556.211 377.942 559.116 377.732 562.022 377.758C557.773 396.355 550.158 442.816 573.888 463.696Z" fill="#000072"/>
</g>
<path d="M581.427 446.609C580.381 445.673 555.887 423.149 565.234 377.649L570.777 378.786C566.247 400.845 570.405 416.955 574.693 426.586C579.342 437.031 585.147 442.351 585.206 442.404L581.427 446.609Z" fill="#000072"/>
<path d="M548.534 487.354C534.045 487.354 525.93 474.645 523.48 467.043C517.284 452.626 516.064 416.344 528.354 394.129C534.301 383.384 542.565 377.147 552.919 375.591C572.054 372.718 583.631 379.738 589.972 386.138C596.838 393.071 599.122 400.673 599.219 400.994C603.623 415.304 603.363 426.977 598.422 435.647C593.951 443.492 587.023 446.292 584.731 447.033C583.212 448.625 581.474 452.902 579.788 457.06C575.214 468.33 568.949 483.764 553.902 486.801C552.136 487.163 550.338 487.349 548.534 487.354ZM528.827 465.199C529.085 466 535.321 484.785 552.779 481.265C564.847 478.829 570.223 465.583 574.543 454.94C576.917 449.094 578.79 444.477 581.561 442.291C581.881 442.037 582.253 441.857 582.65 441.761C582.914 441.694 589.512 439.954 593.561 432.752C597.641 425.497 597.72 415.361 593.797 402.627C593.468 401.527 585.577 376.405 553.76 381.191C545.238 382.47 538.348 387.748 533.305 396.874C522.189 416.963 522.854 451.468 528.726 464.926C528.764 465.015 528.798 465.106 528.827 465.199Z" fill="#000072"/>
<path d="M646.428 474.243C646.428 474.243 642.49 490.451 629.762 484.99C629.762 484.99 625.065 507.709 607.94 492.568C607.94 492.568 593.619 496.958 585.665 479.011C585.346 478.289 585.056 477.576 584.815 476.869C581.273 466.902 584.682 459.085 588.012 454.398C590.268 451.217 592.489 449.471 592.489 449.471C592.489 449.471 578.621 435.272 602.147 423.12C625.674 410.968 631.692 431.411 631.692 431.411C631.692 431.411 634.921 431.765 638.99 433.709C644.357 436.226 648.725 440.47 651.394 445.761C651.392 445.77 651.392 445.779 651.394 445.789C651.783 446.546 652.142 447.344 652.483 448.185C658.555 463.335 657.495 474.546 646.428 474.243Z" fill="white"/>
<g opacity="0.3">
<path d="M646.428 474.243C646.428 474.243 642.49 490.451 629.762 484.99C629.762 484.99 625.065 507.709 607.94 492.568C607.94 492.568 593.619 496.958 585.665 479.011C585.347 478.289 585.056 477.576 584.815 476.869C591.824 483.316 603.789 484.531 603.789 484.531C623.898 496.462 627.714 476.297 627.714 476.297C638.901 479.357 645.216 467.319 645.216 467.319C653.701 462.527 651.495 446.516 651.397 445.789C651.786 446.546 652.145 447.344 652.486 448.185C658.555 463.335 657.496 474.546 646.428 474.243Z" fill="#000072"/>
</g>
<g opacity="0.3">
<path d="M638.989 433.712C635.29 443.657 627.717 441.975 627.717 441.975C633.332 436.271 631.691 431.411 631.691 431.411C631.691 431.411 634.923 431.768 638.989 433.712Z" fill="#000072"/>
</g>
<g opacity="0.3">
<path d="M600.512 453.107C600.512 453.107 594.934 457.144 588.01 454.401C590.267 451.22 592.487 449.474 592.487 449.474C592.487 449.474 593.519 451.644 600.512 453.107Z" fill="#000072"/>
</g>
<path d="M618.565 500.607C615.022 500.607 611.197 498.935 607.143 495.604C602.716 496.264 590.311 496.471 583.08 480.157C576.281 464.819 584.58 453.521 588.69 449.19C587.039 446.707 584.95 442.383 585.788 437.201C586.816 430.82 591.886 425.239 600.846 420.608C609.456 416.161 616.992 415.256 623.232 417.922C629.471 420.588 632.561 426.11 633.769 428.913C638.199 429.885 649.722 433.655 655.118 447.137C658.316 455.131 661.178 466.019 656.657 472.501C655.347 474.381 652.907 476.549 648.524 476.992C647.442 479.955 644.912 485.272 640.081 487.687C637.492 488.981 634.669 489.28 631.661 488.591C630.377 492.275 627.509 498.22 622.005 500.051C620.896 500.421 619.734 500.609 618.565 500.607ZM607.932 489.75C608.625 489.748 609.295 489.999 609.816 490.456C612.7 493.006 616.844 495.812 620.218 494.691C624.294 493.334 626.53 486.658 626.991 484.421C627.076 484.01 627.251 483.624 627.504 483.289C627.757 482.955 628.081 482.681 628.453 482.487C628.825 482.293 629.235 482.184 629.654 482.168C630.073 482.152 630.491 482.23 630.876 482.395C633.457 483.501 635.636 483.58 637.536 482.635C641.18 480.825 643.209 475.474 643.683 473.565C643.839 472.939 644.204 472.385 644.717 471.993C645.231 471.602 645.862 471.397 646.507 471.412C649.149 471.493 650.959 470.783 652.018 469.266C654.35 465.922 653.546 458.435 649.866 449.237C644.539 435.926 631.908 434.284 631.371 434.221C630.819 434.156 630.299 433.93 629.874 433.573C629.449 433.215 629.137 432.742 628.978 432.209C628.962 432.155 626.912 425.607 620.959 423.099C616.349 421.155 610.456 422.006 603.442 425.63C596.163 429.392 592.102 433.587 591.372 438.102C590.537 443.265 594.468 447.458 594.507 447.492C594.784 447.776 594.999 448.114 595.136 448.486C595.274 448.858 595.332 449.254 595.306 449.65C595.281 450.046 595.172 450.431 594.988 450.782C594.803 451.133 594.547 451.441 594.236 451.687C593.706 452.108 581.319 462.207 588.25 477.859C595.037 493.17 606.638 489.995 607.129 489.853C607.39 489.778 607.661 489.742 607.932 489.745V489.75Z" fill="#000072"/>
<path d="M594.287 447.296L595.586 448.672C596.054 449.166 596.543 449.656 597.054 450.148C597.565 450.639 598.105 451.097 598.669 451.575C599.232 452.054 599.862 452.456 600.537 452.896H600.547C600.573 452.912 600.594 452.934 600.611 452.959C600.628 452.983 600.64 453.011 600.646 453.041C600.652 453.07 600.653 453.101 600.647 453.13C600.641 453.16 600.63 453.188 600.614 453.213C600.583 453.259 600.536 453.293 600.483 453.308C599.678 453.528 598.847 453.642 598.012 453.646C597.167 453.663 596.322 453.595 595.491 453.443C594.656 453.301 593.836 453.088 593.038 452.805C592.642 452.658 592.247 452.501 591.864 452.318C591.451 452.127 591.055 451.902 590.681 451.643L590.571 451.565C589.953 451.13 589.534 450.468 589.405 449.724C589.276 448.98 589.448 448.215 589.884 447.598C590.319 446.981 590.981 446.562 591.726 446.433C592.47 446.304 593.235 446.476 593.853 446.911C594.009 447.025 594.155 447.154 594.287 447.296Z" fill="#000072"/>
<path d="M634.487 430.965C634.535 431.298 634.56 431.633 634.56 431.969C634.56 432.271 634.56 432.569 634.521 432.862C634.469 433.449 634.371 434.031 634.227 434.603C633.942 435.747 633.486 436.842 632.877 437.852C632.29 438.858 631.529 439.752 630.631 440.493C629.777 441.237 628.723 441.705 627.738 442.019C627.726 442.023 627.713 442.022 627.702 442.016C627.691 442.01 627.683 442 627.679 441.989C627.677 441.983 627.675 441.977 627.675 441.97C627.675 441.964 627.677 441.958 627.679 441.952C628.216 441.032 628.676 440.191 628.914 439.276C629.172 438.427 629.316 437.547 629.341 436.66C629.357 435.817 629.314 434.974 629.212 434.137C629.164 433.726 629.11 433.321 629.05 432.923L628.89 431.871L628.878 431.797C628.766 431.056 628.952 430.3 629.397 429.696C629.842 429.092 630.509 428.689 631.25 428.577C631.992 428.464 632.748 428.65 633.353 429.095C633.957 429.54 634.36 430.206 634.472 430.948L634.487 430.965Z" fill="#000072"/>
<path d="M605.769 494.38L605.509 494.075L605.295 493.805C605.148 493.631 605.027 493.449 604.906 493.274C604.647 492.922 604.431 492.56 604.207 492.196C603.78 491.472 603.395 490.724 603.053 489.957C602.385 488.432 601.877 486.842 601.54 485.212C601.215 483.598 601.004 481.949 601.099 480.301C601.159 478.648 601.513 477.02 602.145 475.491C602.164 475.446 602.2 475.41 602.246 475.392C602.292 475.374 602.343 475.374 602.388 475.393C602.429 475.411 602.463 475.443 602.482 475.484C603.203 476.995 603.678 478.418 604.285 479.777C604.832 481.145 605.389 482.465 605.998 483.739C606.596 485.003 607.259 486.235 607.985 487.43C608.326 488.032 608.71 488.604 609.064 489.179L610.109 490.748L610.256 490.981C610.657 491.58 610.814 492.309 610.693 493.02C610.573 493.73 610.185 494.368 609.61 494.802C609.034 495.236 608.314 495.433 607.597 495.352C606.881 495.272 606.222 494.921 605.757 494.37L605.769 494.38Z" fill="#000072"/>
<path d="M626.944 485.237C626.864 484.763 626.787 484.144 626.718 483.587L626.509 481.865C626.374 480.715 626.233 479.558 626.053 478.417C625.872 477.275 625.649 476.143 625.402 475.003C625.141 473.796 624.803 472.608 624.39 471.445V471.433C624.371 471.375 624.376 471.311 624.403 471.256C624.431 471.201 624.478 471.16 624.536 471.139C624.584 471.123 624.636 471.123 624.683 471.139C626.042 471.569 627.179 472.507 628.128 473.535C629.078 474.564 629.772 475.776 630.39 476.991C630.993 478.2 631.484 479.461 631.858 480.759C632.043 481.403 632.206 482.051 632.326 482.71C632.462 483.388 632.549 484.074 632.588 484.764C632.623 485.485 632.382 486.192 631.914 486.741C631.445 487.29 630.784 487.639 630.066 487.717C629.348 487.795 628.628 487.595 628.052 487.16C627.477 486.724 627.09 486.085 626.97 485.373L626.944 485.237Z" fill="#000072"/>
<path d="M643.602 474.304C643.652 473.962 643.707 473.447 643.734 473C643.762 472.552 643.808 472.062 643.827 471.588C643.853 470.642 643.891 469.681 643.846 468.711C643.814 467.734 643.73 466.76 643.595 465.791C643.462 464.78 643.266 463.779 643.008 462.792C643 462.761 643.005 462.728 643.022 462.701C643.038 462.674 643.065 462.654 643.096 462.646C643.114 462.642 643.133 462.642 643.151 462.646C643.17 462.65 643.187 462.658 643.202 462.669C644.04 463.358 644.792 464.147 645.442 465.017C646.088 465.904 646.658 466.843 647.147 467.825C647.641 468.811 648.068 469.829 648.424 470.872C648.597 471.396 648.771 471.924 648.91 472.464C649.062 473.029 649.181 473.602 649.267 474.181L649.289 474.347C649.389 475.1 649.187 475.863 648.725 476.467C648.263 477.07 647.58 477.466 646.826 477.567C646.073 477.667 645.31 477.464 644.706 477.003C644.102 476.541 643.706 475.859 643.605 475.105C643.568 474.84 643.567 474.57 643.602 474.304Z" fill="#000072"/>
<path d="M426.809 286.142C419.54 293.332 419.081 303.941 419.081 303.941C420.325 306.26 421.081 308.38 421.498 310.296C423.514 319.633 417.242 324.192 417.242 324.192C403.444 328.399 389.132 329.671 389.132 329.671C373.329 330.095 375.531 312.847 375.591 312.423V312.416C369.835 308.161 366.344 298.184 366.344 298.184C366.344 298.184 343.316 283.796 348.621 271.068C353.726 258.823 373.689 280.898 375.167 282.545C373.837 280.931 356.653 259.785 366.158 251.146C375.916 242.29 392.626 273.766 393.085 274.622C384.233 250.42 384.536 239.702 395.901 241.216C402.689 242.121 407.709 251.905 410.651 259.622C411.834 262.718 412.84 265.878 413.664 269.087C413.67 269.079 413.675 269.069 413.678 269.059C413.879 268.608 414.103 268.167 414.35 267.739C418.494 260.353 428.302 255.008 433.555 258.868C439.121 262.965 434.087 278.947 426.809 286.142Z" fill="white"/>
<g opacity="0.3">
<path d="M410.651 259.635C411.834 262.731 412.84 265.891 413.664 269.1C413.664 269.1 410.447 275.159 409.838 277.434C409.838 277.434 396.656 278.34 388.554 295.607C388.554 295.607 388.053 280.51 402.259 273.323C403.064 272.918 403.768 272.337 404.317 271.622C404.866 270.908 405.248 270.079 405.433 269.197C405.916 266.848 407.237 263.32 410.651 259.635Z" fill="#000072"/>
</g>
<g opacity="0.3">
<path d="M417.242 324.192C403.444 328.399 389.132 329.671 389.132 329.671C373.33 330.095 375.531 312.847 375.591 312.423C375.591 312.423 401.048 323.061 421.498 310.296C423.514 319.633 417.242 324.192 417.242 324.192Z" fill="#000072"/>
</g>
<path d="M388.554 332.505C383.575 332.505 379.641 330.928 376.852 327.81C372.767 323.243 372.519 316.686 372.656 313.657C368.017 309.486 365.014 302.559 364.029 300.046C359.678 297.155 340.419 283.393 346.01 269.984C347.597 266.176 350.274 264.995 352.241 264.671C355.411 264.147 359.1 265.573 362.663 267.779C359.903 261.072 358.993 253.84 364.254 249.06C366.345 247.164 368.898 246.419 371.637 246.903C376.136 247.698 380.817 251.985 384.848 256.898C383.394 249.4 383.927 244.52 386.355 241.492C388.466 238.862 391.801 237.824 396.273 238.427C405.835 239.702 411.897 253.96 414.683 262.447C417.713 258.997 421.758 256.296 425.78 255.241C429.45 254.279 432.711 254.748 435.23 256.598C436.652 257.641 438.411 259.748 438.713 263.858C439.259 271.306 434.813 282.198 428.801 288.15C423.404 293.492 422.209 301.048 421.968 303.362C428.026 315.453 422.671 323.747 418.909 326.482C418.654 326.667 418.369 326.809 418.068 326.902C404.14 331.138 389.982 332.433 389.385 332.486C389.327 332.486 389.269 332.495 389.212 332.497C388.99 332.501 388.771 332.505 388.554 332.505ZM353.725 270.207C353.535 270.206 353.345 270.221 353.157 270.251C352.793 270.311 351.944 270.45 351.231 272.158C347.642 280.759 362.012 292.132 367.85 295.788C368.397 296.129 368.812 296.647 369.024 297.255C369.057 297.345 372.302 306.469 377.278 310.142C377.687 310.444 378.007 310.851 378.205 311.32C378.402 311.789 378.469 312.302 378.399 312.806C378.391 312.871 377.478 320.049 381.088 324.061C382.85 326.017 385.43 326.943 388.972 326.849C390.147 326.738 403.246 325.429 415.893 321.655C417.331 320.371 421.899 315.223 416.591 305.275C416.353 304.83 416.239 304.328 416.261 303.824C416.282 303.346 416.848 292.023 424.824 284.138C429.646 279.37 433.501 270.089 433.074 264.279C433.009 263.399 432.768 261.81 431.883 261.161C430.501 260.146 428.584 260.36 427.22 260.721C422.84 261.871 418.225 265.889 416.249 270.274C416.007 270.811 415.603 271.258 415.093 271.555C414.584 271.851 413.995 271.98 413.409 271.926C412.822 271.872 412.267 271.636 411.821 271.251C411.375 270.866 411.061 270.352 410.921 269.78C408.612 260.306 402.393 244.951 395.523 244.036C391.956 243.562 391.06 244.67 390.766 245.034C389.035 247.182 388.507 253.901 395.751 273.684C396 274.358 395.983 275.102 395.703 275.764C395.423 276.426 394.902 276.957 394.244 277.248C393.587 277.539 392.843 277.569 392.164 277.331C391.486 277.093 390.923 276.606 390.591 275.969C386.117 267.459 376.748 253.548 370.655 252.471C369.635 252.289 368.858 252.522 368.061 253.247C361.638 259.078 372.948 275.521 377.416 280.822C377.903 281.391 378.145 282.13 378.088 282.876C378.031 283.623 377.68 284.317 377.112 284.805C376.544 285.293 375.805 285.536 375.058 285.481C374.311 285.426 373.617 285.076 373.127 284.509C367.759 278.404 358.431 270.207 353.725 270.207Z" fill="#000072"/>
<path d="M417.039 305.896C416.753 305.473 416.384 304.914 416.057 304.399L415.029 302.785L413.948 301.151C413.57 300.596 413.19 300.015 412.712 299.39C413.473 299.223 414.258 299.2 415.028 299.322C415.775 299.439 416.509 299.631 417.218 299.895C417.914 300.141 418.592 300.435 419.247 300.775C419.914 301.111 420.544 301.516 421.128 301.981L417.039 305.896Z" fill="#000072"/>
<path d="M415.979 270.729C415.614 271.259 415.198 271.916 414.834 272.529C414.47 273.143 414.111 273.791 413.783 274.428C413.15 275.626 412.646 276.888 412.28 278.193C412.118 278.748 411.799 279.244 411.361 279.622C410.922 279.999 410.384 280.242 409.811 280.32H409.783L409.499 280.359C409.387 280.372 409.262 280.395 409.136 280.419C408.886 280.464 408.635 280.51 408.376 280.565C407.86 280.659 407.348 280.818 406.823 280.94C405.78 281.241 404.754 281.598 403.751 282.011C401.708 282.852 399.78 283.949 398.014 285.275C397.54 285.579 397.151 285.982 396.714 286.335C396.268 286.682 395.847 287.059 395.451 287.463L394.242 288.675L393.145 289.995C392.348 290.843 391.735 291.829 390.926 292.732C390.183 293.672 389.502 294.67 388.596 295.619C388.592 295.624 388.587 295.627 388.582 295.63C388.576 295.632 388.57 295.633 388.564 295.633C388.558 295.633 388.552 295.632 388.547 295.63C388.541 295.627 388.536 295.624 388.532 295.619C388.527 295.615 388.523 295.609 388.521 295.603C388.519 295.597 388.518 295.59 388.519 295.584C388.583 294.311 388.783 293.048 389.118 291.818C389.305 291.213 389.512 290.609 389.741 290.011C389.956 289.408 390.228 288.827 390.552 288.274C390.857 287.711 391.173 287.149 391.5 286.593L392.598 285.007C392.965 284.468 393.369 283.954 393.806 283.471C394.246 282.988 394.64 282.455 395.127 282.018L396.555 280.648C397.063 280.226 397.583 279.823 398.108 279.411C399.178 278.615 400.307 277.9 401.484 277.274C402.06 276.935 402.683 276.688 403.287 276.394C403.897 276.121 404.534 275.9 405.164 275.66C405.807 275.451 406.45 275.245 407.122 275.088C407.449 274.997 407.793 274.928 408.141 274.865C408.313 274.831 408.486 274.799 408.675 274.774C408.864 274.749 409.026 274.719 409.292 274.692L406.796 276.824C407.276 274.977 407.979 273.383 408.749 271.86C409.137 271.103 409.546 270.367 409.974 269.645C410.403 268.923 410.831 268.241 411.355 267.479C411.783 266.866 412.435 266.447 413.171 266.314C413.906 266.18 414.665 266.343 415.28 266.767C415.896 267.191 416.319 267.841 416.456 268.575C416.594 269.31 416.435 270.069 416.014 270.687L415.979 270.729Z" fill="#000072"/>
<path d="M433.171 371.28C433.171 371.28 389.686 353.698 386.503 317.873C386.503 317.873 394.004 306.868 411.62 310.735C411.62 310.735 415.329 333.568 442.757 345.46C443.696 345.866 444.53 346.483 445.193 347.263C445.857 348.042 446.333 348.963 446.584 349.955C446.836 350.947 446.857 351.983 446.645 352.984C446.433 353.986 445.994 354.925 445.363 355.73L433.171 371.28Z" fill="#FCAF03"/>
<g opacity="0.3">
<path d="M399.949 313.85C402.368 312.316 405.6 310.928 409.772 310.384C393.482 307.653 386.503 317.873 386.503 317.873C389.686 353.698 433.171 371.28 433.171 371.28L437.113 366.253C425.197 360.931 402.619 348.206 395.573 325.853C394.879 323.65 394.932 321.279 395.723 319.109C396.514 316.939 398 315.09 399.949 313.85Z" fill="#000072"/>
</g>
<g opacity="0.7">
<path d="M442.759 345.457C415.329 333.572 411.62 310.738 411.62 310.738C400.667 308.336 393.625 311.679 389.866 314.552C392.802 313.345 396.57 312.519 401.235 312.792C402.703 312.875 404.113 313.391 405.288 314.276C406.462 315.161 407.347 316.375 407.831 317.763C410.315 324.921 417.666 339.554 437.808 348.281C438.747 348.688 439.58 349.305 440.243 350.084C440.907 350.864 441.383 351.785 441.634 352.777C441.885 353.769 441.906 354.805 441.694 355.806C441.482 356.807 441.043 357.747 440.411 358.552L431.142 370.369C432.429 370.964 433.171 371.265 433.171 371.265L445.363 355.727C445.994 354.922 446.433 353.983 446.645 352.982C446.857 351.981 446.837 350.944 446.585 349.952C446.334 348.96 445.858 348.039 445.194 347.26C444.531 346.481 443.698 345.864 442.759 345.457Z" fill="white"/>
</g>
<path d="M433.169 374.101C432.806 374.101 432.446 374.031 432.109 373.894C430.269 373.151 386.983 355.243 383.687 318.125C383.628 317.474 383.798 316.822 384.167 316.282C384.516 315.769 392.965 303.754 412.226 307.976C412.78 308.098 413.284 308.383 413.674 308.794C414.064 309.206 414.321 309.725 414.412 310.284C414.558 311.148 418.313 331.782 443.883 342.867C445.219 343.446 446.403 344.324 447.347 345.432C448.29 346.541 448.967 347.851 449.324 349.261C449.682 350.672 449.712 352.146 449.411 353.57C449.11 354.993 448.486 356.329 447.588 357.475L435.396 373.017C435.131 373.355 434.793 373.628 434.408 373.816C434.022 374.004 433.598 374.101 433.169 374.101ZM389.435 318.743C392.748 347.5 424.148 363.976 432.306 367.792L443.136 353.987C443.5 353.522 443.753 352.979 443.875 352.401C443.997 351.823 443.985 351.225 443.84 350.652C443.695 350.079 443.42 349.547 443.037 349.097C442.654 348.647 442.173 348.291 441.631 348.055C417.547 337.614 410.862 319.228 409.267 313.161C397.456 311.194 391.292 316.674 389.435 318.743Z" fill="#000072"/>
<path d="M388.163 320.165C388.058 320.184 387.835 320.285 387.65 320.345L387.049 320.561L385.787 321.001C385.347 321.148 384.936 321.335 384.466 321.513C383.996 321.69 383.483 321.858 382.826 322.07C382.597 321.476 382.522 320.834 382.608 320.203C382.701 319.63 382.852 319.068 383.06 318.526C383.263 317.993 383.508 317.478 383.794 316.985C383.94 316.743 384.087 316.501 384.255 316.272C384.427 316.022 384.624 315.79 384.842 315.578L388.163 320.165Z" fill="#000072"/>
<path d="M411.766 307.913C411.901 307.928 411.944 307.938 412.011 307.95L412.183 307.986C412.293 308.013 412.397 308.044 412.491 308.075C412.693 308.133 412.87 308.212 413.054 308.284C413.402 308.44 413.737 308.623 414.056 308.832C414.675 309.232 415.232 309.723 415.706 310.287C416.167 310.827 416.539 311.436 416.81 312.092C417.078 312.725 417.228 313.402 417.25 314.089C416.655 313.889 416.051 313.72 415.439 313.582C414.918 313.468 414.389 313.396 413.857 313.367C413.392 313.34 412.927 313.347 412.464 313.39C412.248 313.411 412.044 313.433 411.851 313.461L411.587 313.508C411.55 313.512 411.514 313.52 411.479 313.531C411.462 313.531 411.445 313.531 411.442 313.543C411.439 313.555 411.413 313.552 411.477 313.56L411.766 307.913Z" fill="#000072"/>
<path d="M607.145 255.027C606.623 280.608 604.041 311.244 596.524 339.539C596.524 339.539 563.048 410.288 541.219 463.444C538.56 469.925 536.071 476.138 533.837 481.931C532.516 485.367 531.277 488.654 530.152 491.761C511.511 543.114 480.758 533.724 446.814 521.605C446.814 521.605 393.474 506.457 405.142 455.408C405.142 455.408 406.401 448.659 409.478 437.285C417.489 407.647 437.856 346.539 480.538 291.285C499.413 266.856 522.649 243.565 551.112 224.649C564.659 215.631 579.017 207.892 593.999 201.533C599.466 199.215 605.604 202.946 606.021 208.869C606.743 219.232 607.534 235.681 607.145 255.027Z" fill="#FCAF03"/>
<g opacity="0.4">
<path d="M481.816 306.061C481.816 306.061 438.023 375.887 426.418 431.375C426.418 431.375 448.571 445.654 460.336 450.57C460.336 450.57 494.999 352.865 527.123 326.66L521.213 291.975L481.816 306.061Z" fill="white"/>
</g>
<path d="M596.524 339.538C596.524 339.538 563.049 410.286 541.219 463.442H527.127C541.978 427.696 577.886 348.473 577.886 348.473L596.524 339.538Z" fill="#FFE97D"/>
<path d="M533.837 481.932C532.516 485.369 531.277 488.655 530.152 491.763C511.511 543.116 480.758 533.726 446.814 521.606C446.814 521.606 393.474 506.459 405.142 455.409C405.142 455.409 406.401 448.66 409.478 437.286C409.478 437.282 443.576 483.771 533.837 481.932Z" fill="#FF4A94"/>
<path d="M607.145 255.027C606.623 280.608 604.041 311.244 596.524 339.539L577.882 348.475L569.1 313.938L527.12 326.661L521.207 291.976L481.812 306.061L480.532 291.282C499.407 266.853 522.643 243.562 551.106 224.646C564.655 215.628 579.015 207.891 593.999 201.533C599.466 199.215 605.604 202.946 606.021 208.869C606.743 219.232 607.534 235.681 607.145 255.027Z" fill="#FFDAA5"/>
<path d="M533.84 481.932C443.575 483.769 409.475 437.285 409.475 437.285L414.83 419.156C414.83 419.156 446.083 466.967 541.307 463.233L533.84 481.932Z" fill="#00B1FF"/>
<path d="M607.145 255.027C562.722 259.085 551.323 225.29 551.112 224.646C564.659 215.629 579.017 207.891 593.999 201.533C599.466 199.215 605.604 202.946 606.021 208.869C606.743 219.232 607.534 235.681 607.145 255.027Z" fill="#000072"/>
<g opacity="0.7">
<path d="M411.507 460.352C411.507 460.352 412.766 453.603 415.841 442.229C423.854 412.591 444.219 351.484 486.902 296.23C505.776 271.8 529.013 248.509 557.476 229.595C571.023 220.576 585.381 212.838 600.364 206.481C601.913 205.819 603.623 205.629 605.28 205.932C604.348 203.87 602.645 202.255 600.537 201.433C598.429 200.61 596.082 200.645 593.999 201.53C579.017 207.888 564.659 215.626 551.112 224.643C522.649 243.562 499.417 266.853 480.538 291.282C437.856 346.536 417.489 407.644 409.478 437.282C406.396 448.662 405.142 455.405 405.142 455.405C398.39 484.973 413.435 502.494 427.298 512.008C415.705 501.794 405.783 485.395 411.507 460.352Z" fill="white"/>
</g>
<g opacity="0.3">
<path d="M606.021 208.871C605.944 207.703 605.627 206.563 605.09 205.523C604.553 204.483 603.808 203.564 602.901 202.824C603.033 209.295 603.062 216.386 602.911 223.926C602.531 242.503 601.066 263.744 597.414 284.816C595.104 298.1 591.049 311.02 585.355 323.243C574.389 346.82 552.677 394.125 536.984 432.337C534.324 438.819 531.835 445.033 529.601 450.824C528.28 454.259 527.041 457.547 525.916 460.655C507.284 512.008 476.522 502.617 442.58 490.498C442.58 490.498 415.642 482.842 404.242 460.088C396.767 507.384 446.822 521.6 446.822 521.6C480.766 533.715 511.526 543.11 530.16 491.757C531.284 488.654 532.522 485.367 533.844 481.927C536.078 476.131 538.568 469.917 541.226 463.439C563.056 410.283 596.532 339.535 596.532 339.535C604.048 311.241 606.63 280.605 607.153 255.022C607.535 235.681 606.743 219.232 606.021 208.871Z" fill="#000072"/>
</g>
<path d="M486.381 533.996C473.14 533.996 459.173 529.019 445.944 524.296C444.59 523.9 431.569 519.906 419.762 509.797C408.34 500.019 396.057 482.55 402.372 454.834C402.751 452.861 412 405.786 439.407 351.635C455.784 319.275 475.353 290.729 497.572 266.771C525.395 236.776 557.46 213.95 592.896 198.93C594.577 198.214 596.406 197.91 598.229 198.043C600.053 198.177 601.818 198.743 603.378 199.696C604.938 200.649 606.247 201.961 607.197 203.522C608.148 205.083 608.711 206.848 608.841 208.671C610.435 231.413 612.689 289.741 599.259 340.263C599.215 340.428 599.156 340.589 599.083 340.744C598.605 341.752 551.194 442.09 532.814 492.725C521.212 524.689 504.478 533.996 486.381 533.996ZM597.403 203.662C596.613 203.663 595.831 203.825 595.105 204.136C516.549 237.442 469.862 304.035 444.53 354.037C416.995 408.385 408.01 455.456 407.922 455.926C407.915 455.962 407.907 456.001 407.899 456.037C403.328 476.037 408.511 492.637 423.311 505.38C434.574 515.08 447.466 518.844 447.595 518.879L447.771 518.934C461.159 523.715 474.239 528.382 486.246 528.383C502.623 528.383 517.008 519.708 527.503 490.794C545.531 441.111 591.268 344.048 593.858 338.561C606.997 288.918 604.769 231.482 603.197 209.067C603.138 208.145 602.857 207.251 602.378 206.461C601.898 205.671 601.235 205.008 600.443 204.531C599.53 203.965 598.478 203.664 597.403 203.662Z" fill="#000072"/>
<path d="M577.887 351.299C577.258 351.299 576.647 351.09 576.151 350.704C575.654 350.318 575.301 349.778 575.146 349.169L567.085 317.501L527.944 329.367C527.559 329.483 527.155 329.517 526.757 329.465C526.359 329.413 525.976 329.277 525.635 329.066C525.293 328.855 525.001 328.573 524.776 328.241C524.552 327.908 524.401 327.531 524.334 327.135L518.991 295.772L482.769 308.723C482.362 308.868 481.926 308.919 481.496 308.869C481.066 308.82 480.653 308.673 480.289 308.439C479.925 308.206 479.619 307.892 479.395 307.521C479.171 307.151 479.036 306.735 478.998 306.304L477.721 291.527L483.356 291.04L484.319 302.163L520.261 289.312C520.65 289.172 521.065 289.12 521.476 289.158C521.887 289.197 522.285 289.325 522.642 289.533C522.999 289.742 523.305 290.026 523.54 290.365C523.775 290.705 523.933 291.092 524.002 291.499L529.372 323.024L568.277 311.231C568.643 311.12 569.027 311.084 569.407 311.126C569.787 311.168 570.155 311.287 570.488 311.475C570.821 311.662 571.112 311.916 571.345 312.219C571.577 312.523 571.745 312.87 571.839 313.241L579.778 344.43L595.303 336.986L597.75 342.082L579.108 351.019C578.727 351.202 578.31 351.298 577.887 351.299Z" fill="#000072"/>
<path d="M531.004 466.264C487.004 466.264 457.942 454.944 440.935 445.037C420.873 433.348 412.797 421.213 412.459 420.702L417.196 417.609L414.827 419.156L417.192 417.603C417.268 417.721 425.068 429.341 444.127 440.345C461.76 450.54 492.912 462.304 541.192 460.401L541.415 466.051C537.858 466.195 534.388 466.266 531.004 466.264Z" fill="#000072"/>
<path d="M528.749 484.813C484.294 484.813 454.106 472.928 436.397 462.748C416.304 451.193 407.557 439.45 407.194 438.957L411.753 435.609C411.837 435.722 420.34 447.053 439.526 458.024C457.255 468.148 487.999 480.049 533.783 479.107L533.897 484.76C532.164 484.795 530.442 484.813 528.749 484.813Z" fill="#000072"/>
<path d="M499.124 389.697C498.742 392.233 497.971 395.45 496.408 398.588C493.296 404.844 487.046 410.795 474.501 410.519C470.758 410.45 467.192 408.918 464.566 406.251C462.916 404.582 461.494 402.702 460.337 400.66C457.275 395.174 455.762 387.378 460.973 377.477C461.788 375.942 463.177 374.789 464.837 374.271C466.497 373.752 468.295 373.909 469.84 374.707C475.604 377.675 485.335 382.115 495.191 384.073C496.442 384.329 497.547 385.055 498.278 386.101C499.01 387.148 499.312 388.434 499.124 389.697Z" fill="#000072"/>
<path d="M496.407 398.588C493.295 404.844 487.045 410.795 474.499 410.519C470.757 410.45 467.19 408.918 464.565 406.251C462.915 404.582 461.493 402.702 460.336 400.66C465.73 394.714 478.65 384.727 496.407 398.588Z" fill="#FF4A94"/>
<path d="M475.323 412.656C475.029 412.656 474.747 412.656 474.452 412.647C470.155 412.569 466.061 410.806 463.053 407.738C458.095 402.687 450.987 391.911 459.09 376.486C461.303 372.273 466.561 370.627 470.806 372.817C476.936 375.975 486.218 380.129 495.595 381.989C497.384 382.347 498.967 383.381 500.013 384.876C501.059 386.37 501.489 388.21 501.213 390.013C500.198 396.871 495.63 412.656 475.323 412.656ZM466.809 376.092C465.995 376.09 465.195 376.31 464.497 376.728C463.799 377.146 463.228 377.747 462.846 378.466C456.335 390.85 461.01 399.605 466.075 404.768C468.309 407.044 471.348 408.351 474.537 408.407C490.739 408.754 495.695 398.261 497.014 389.391C497.129 388.666 496.959 387.925 496.54 387.321C496.122 386.718 495.487 386.299 494.767 386.152C484.902 384.196 475.235 379.873 468.861 376.59C468.229 376.262 467.527 376.09 466.815 376.088L466.809 376.092Z" fill="#000072"/>
<path d="M481.401 351.383C485.821 343.731 484.867 334.91 479.271 331.68C473.675 328.451 465.555 332.036 461.136 339.688C456.716 347.34 457.669 356.161 463.265 359.391C468.862 362.62 476.981 359.035 481.401 351.383Z" fill="#000072"/>
<path d="M479.153 347.636C480.741 344.886 480.398 341.716 478.387 340.556C476.377 339.396 473.459 340.684 471.871 343.433C470.283 346.183 470.626 349.353 472.636 350.513C474.647 351.673 477.564 350.385 479.153 347.636Z" fill="white"/>
<path d="M526.103 369.559C530.523 361.907 529.569 353.086 523.973 349.857C518.377 346.627 510.257 350.212 505.838 357.864C501.418 365.516 502.372 374.337 507.968 377.567C513.564 380.797 521.683 377.211 526.103 369.559Z" fill="#000072"/>
<path d="M523.853 365.813C525.441 363.064 525.099 359.894 523.088 358.734C521.077 357.573 518.16 358.861 516.572 361.611C514.984 364.361 515.326 367.53 517.337 368.691C519.348 369.851 522.265 368.563 523.853 365.813Z" fill="white"/>
<path d="M557.397 362.096C554.71 360.503 553.343 359.573 552.847 359.219C552.699 359.115 552.563 358.996 552.44 358.863C533.396 338.512 509.76 341.234 508.775 341.426C508.036 341.571 507.371 341.972 506.899 342.559C506.798 342.681 506.269 343.354 505.496 344.466C505.074 345.068 504.434 345.482 503.712 345.619C502.989 345.756 502.242 345.606 501.629 345.2C498.275 342.999 495.288 341.902 492.882 341.385C492.163 341.233 491.531 340.806 491.122 340.195C490.713 339.584 490.56 338.837 490.694 338.115C490.817 337.416 490.687 336.696 490.328 336.084C489.851 335.268 477.019 316.9 450.774 316.169C450.591 316.165 450.408 316.141 450.23 316.099C449.654 315.962 448.148 315.575 445.377 314.683C444.225 314.312 442.98 314.343 441.848 314.771C440.715 315.199 439.762 315.999 439.143 317.039C438.833 317.558 438.565 318.102 438.342 318.664C437.987 319.568 437.927 320.562 438.171 321.503C438.415 322.443 438.95 323.283 439.699 323.902L440.237 324.342C440.655 324.687 440.964 325.146 441.127 325.663C441.291 326.18 441.301 326.733 441.157 327.256C438.985 335.187 437.11 347.007 441.546 355.949C442.292 357.467 443.225 358.886 444.323 360.173C447.178 363.506 451.091 365.797 456.026 367.025C463.276 368.824 469.781 367.892 475.367 364.259C481.423 360.315 485.238 353.887 487.55 348.39C487.781 347.826 488.189 347.353 488.713 347.042C489.238 346.732 489.849 346.6 490.455 346.669C492.42 346.909 495.48 347.765 499.262 350.426C499.793 350.799 500.179 351.344 500.355 351.969C500.531 352.594 500.485 353.26 500.226 353.855C497.794 359.34 495.865 366.222 496.888 373.131C497.929 380.127 501.757 385.954 508.286 390.445C512.728 393.505 517.313 395.008 521.966 394.932C523.762 394.899 525.547 394.642 527.28 394.167C537.555 391.39 545.663 381.509 550.437 374.201C550.732 373.747 551.152 373.388 551.647 373.168C552.142 372.948 552.69 372.875 553.226 372.96L554.068 373.092C555.088 373.254 556.132 373.09 557.053 372.621C557.973 372.153 558.721 371.406 559.189 370.486C559.478 369.915 559.724 369.322 559.923 368.714C560.315 367.488 560.279 366.165 559.82 364.963C559.361 363.76 558.507 362.75 557.397 362.096ZM484.194 339.639C482.927 344.374 479.475 354.433 472.077 359.24C467.892 361.959 463.115 362.601 457.477 361.207C452.392 359.94 448.942 357.351 446.924 353.284C442.531 344.441 446.057 331.101 448.223 324.682C448.426 324.083 448.812 323.563 449.326 323.194C449.84 322.826 450.457 322.628 451.09 322.628C470.025 322.612 480.062 332.495 483.642 336.969C483.938 337.339 484.143 337.774 484.239 338.238C484.334 338.702 484.319 339.182 484.194 339.639ZM547.438 366.878C543.853 373.107 535.733 385.292 525.607 388.006C520.959 389.262 516.468 388.345 511.891 385.189C506.812 381.7 503.965 377.448 503.187 372.209C501.807 362.949 507.376 353.135 510.256 348.8C510.531 348.383 510.899 348.036 511.333 347.787C511.766 347.538 512.252 347.394 512.751 347.367C518.829 347.065 533.741 348.089 547.053 363.151C547.499 363.655 547.775 364.285 547.844 364.953C547.913 365.621 547.771 366.295 547.438 366.878Z" fill="#00B1FF"/>
<path d="M521.632 396.343C516.805 396.343 512.048 394.75 507.48 391.604C500.624 386.888 496.587 380.746 495.488 373.334C494.581 367.217 495.739 360.469 498.93 353.278C499.057 352.982 499.079 352.651 498.991 352.341C498.902 352.031 498.71 351.761 498.446 351.576C494.874 349.063 492.034 348.281 490.283 348.068C489.983 348.037 489.681 348.105 489.423 348.261C489.165 348.417 488.965 348.653 488.853 348.932C486.685 354.099 482.721 361.156 476.142 365.44C470.212 369.296 463.329 370.282 455.689 368.392C450.476 367.097 446.295 364.639 443.253 361.088C442.077 359.712 441.078 358.193 440.281 356.568C435.694 347.324 437.492 335.318 439.796 326.877C439.868 326.617 439.863 326.342 439.782 326.085C439.701 325.828 439.547 325.6 439.34 325.427L438.801 324.987C437.82 324.178 437.12 323.079 436.803 321.848C436.485 320.617 436.566 319.316 437.034 318.134C437.284 317.506 437.583 316.898 437.929 316.317C438.715 315.005 439.92 313.995 441.35 313.452C442.781 312.909 444.352 312.864 445.812 313.324C448.571 314.205 450.052 314.589 450.562 314.711C450.647 314.731 450.735 314.742 450.823 314.743C478.25 315.506 491.437 335.158 491.553 335.356C492.079 336.257 492.27 337.315 492.091 338.343C492.089 338.36 492.085 338.376 492.081 338.392C492.021 338.75 492.103 339.118 492.309 339.417C492.516 339.716 492.83 339.924 493.186 339.996C496.251 340.662 499.351 342.014 502.407 344.016C502.711 344.222 503.084 344.3 503.445 344.234C503.806 344.167 504.126 343.961 504.336 343.661C505.099 342.56 505.657 341.843 505.804 341.659C506.484 340.818 507.439 340.243 508.5 340.035C508.745 339.987 533.637 336.696 553.472 357.893C553.53 357.956 553.594 358.012 553.664 358.062C554.117 358.381 555.463 359.298 558.121 360.876C559.508 361.689 560.575 362.951 561.145 364.454C561.715 365.957 561.754 367.61 561.255 369.138C561.035 369.817 560.763 370.478 560.441 371.116C559.84 372.304 558.875 373.27 557.688 373.874C556.5 374.478 555.152 374.689 553.836 374.477L552.995 374.345C552.729 374.304 552.457 374.34 552.211 374.449C551.965 374.559 551.755 374.737 551.608 374.963C546.515 382.761 538.22 392.659 527.635 395.521C525.79 396.025 523.889 396.298 521.977 396.334L521.632 396.343ZM490.132 345.231C490.297 345.231 490.461 345.241 490.625 345.261C492.699 345.514 496.022 346.413 500.073 349.266C500.872 349.827 501.452 350.648 501.715 351.588C501.978 352.528 501.907 353.53 501.515 354.424C498.545 361.118 497.459 367.336 498.286 372.919C499.266 379.521 502.899 385.02 509.085 389.274C513.269 392.159 517.598 393.574 521.941 393.513C523.62 393.481 525.288 393.241 526.907 392.797C536.632 390.167 544.424 380.809 549.251 373.422C549.696 372.742 550.329 372.204 551.072 371.874C551.815 371.543 552.637 371.433 553.441 371.557L554.284 371.689C555.008 371.808 555.752 371.694 556.406 371.362C557.061 371.03 557.592 370.498 557.924 369.843C558.179 369.334 558.395 368.806 558.571 368.265C558.858 367.347 558.828 366.359 558.485 365.46C558.142 364.562 557.507 363.805 556.681 363.311C554.039 361.741 552.633 360.798 552.034 360.377C551.808 360.216 551.599 360.032 551.41 359.83C532.544 339.668 509.271 342.777 509.043 342.81C508.634 342.893 508.266 343.115 508.003 343.439C507.991 343.455 507.489 344.076 506.661 345.27C506.033 346.181 505.072 346.807 503.986 347.015C502.9 347.223 501.775 346.994 500.856 346.379C498.096 344.576 495.307 343.356 492.584 342.763C491.502 342.537 490.552 341.895 489.939 340.976C489.326 340.056 489.099 338.933 489.307 337.848C489.307 337.848 489.307 337.848 489.307 337.837C489.364 337.476 489.294 337.106 489.11 336.79C489 336.611 476.683 318.303 450.738 317.569C450.457 317.56 450.179 317.523 449.905 317.46C449.23 317.299 447.693 316.898 444.946 316.014C444.099 315.745 443.186 315.769 442.354 316.082C441.523 316.396 440.821 316.98 440.363 317.741C440.092 318.195 439.858 318.67 439.661 319.161C439.413 319.789 439.37 320.48 439.54 321.134C439.71 321.788 440.083 322.371 440.605 322.8L441.139 323.24C441.767 323.76 442.23 324.449 442.476 325.225C442.721 326.002 442.737 326.833 442.522 327.618C440.341 335.585 438.621 346.856 442.816 355.309C443.509 356.725 444.377 358.049 445.401 359.249C448.052 362.344 451.742 364.497 456.371 365.649C463.22 367.349 469.353 366.481 474.599 363.071C480.575 359.178 484.231 352.639 486.245 347.839C486.565 347.071 487.104 346.414 487.796 345.95C488.487 345.487 489.299 345.236 490.132 345.231ZM521.605 389.981C518.066 389.981 514.593 388.782 511.087 386.363C505.67 382.644 502.627 378.083 501.788 372.424C500.364 362.877 505.744 353.041 509.079 348.027C509.474 347.423 510.007 346.922 510.634 346.563C511.261 346.204 511.964 345.999 512.685 345.964C518.753 345.663 534.346 346.642 548.119 362.223C548.759 362.947 549.156 363.853 549.254 364.814C549.352 365.775 549.146 366.743 548.665 367.581C544.675 374.517 536.423 386.568 525.976 389.378C524.552 389.771 523.083 389.973 521.605 389.98V389.981ZM514.391 348.752C513.814 348.752 513.291 348.767 512.828 348.79C512.548 348.805 512.276 348.885 512.034 349.025C511.791 349.165 511.586 349.36 511.433 349.594C508.938 353.358 503.254 363.077 504.586 372.011C505.303 376.852 507.962 380.78 512.691 384.042C516.904 386.947 521.008 387.804 525.238 386.659C535.052 384.018 543.171 371.466 546.209 366.187C546.396 365.862 546.477 365.487 546.44 365.113C546.402 364.74 546.249 364.388 546.001 364.107C534.101 350.636 520.858 348.752 514.389 348.752H514.391ZM462.975 363.339C461.006 363.323 459.046 363.069 457.137 362.581C451.624 361.204 447.871 358.373 445.657 353.924C441.107 344.752 444.47 331.39 446.883 324.24C447.185 323.355 447.76 322.587 448.524 322.047C449.288 321.506 450.204 321.221 451.14 321.231C470.734 321.231 481.171 331.629 484.754 336.103C485.185 336.645 485.483 337.28 485.625 337.958C485.766 338.636 485.747 339.338 485.568 340.007C484.089 345.502 480.482 355.468 472.849 360.422C469.921 362.353 466.483 363.368 462.975 363.339ZM451.134 324.054C450.791 324.046 450.455 324.147 450.173 324.341C449.891 324.536 449.677 324.815 449.563 325.138C447.733 330.567 443.936 344.096 448.191 352.662C450.013 356.33 453.163 358.678 457.819 359.835C463.056 361.13 467.468 360.549 471.307 358.054C478.401 353.446 481.728 343.382 482.828 339.274C482.892 339.033 482.9 338.78 482.849 338.535C482.798 338.291 482.69 338.062 482.534 337.867C479.212 333.719 469.5 324.054 451.134 324.054Z" fill="#000072"/>
<path d="M619.712 428.828C619.712 428.828 616.678 440.272 597.585 439.352C597.585 439.352 593.194 420.12 574.405 422.084C563.799 423.193 552.801 422.014 545.235 420.777C537.082 419.44 533.687 409.438 539.479 403.55C542.415 400.575 547.272 398.268 555.235 398.001C555.235 398.001 557.794 398.206 561.776 398.532H561.783C572.821 399.436 594.785 401.302 603.802 402.469C614.09 403.805 618.311 421.427 619.408 427.089C619.621 428.178 619.712 428.828 619.712 428.828Z" fill="#FCAF03"/>
<g opacity="0.3">
<path d="M619.712 428.828C619.712 428.828 616.678 440.272 597.585 439.352C597.585 439.352 593.194 420.12 574.405 422.084C563.799 423.193 552.801 422.014 545.235 420.777C537.082 419.44 533.687 409.438 539.479 403.55C542.415 400.575 547.272 398.268 555.235 398.001C555.235 398.001 557.794 398.206 561.776 398.532C557.447 400.567 549.16 405.098 550.62 409.312C552.512 414.754 593.947 407.296 599.977 423.854C600.845 426.238 602.426 428.329 604.674 429.498C607.84 431.138 612.782 431.805 619.405 427.089C619.621 428.178 619.712 428.828 619.712 428.828Z" fill="#000072"/>
</g>
<g opacity="0.7">
<path d="M538.772 409.205C541.707 406.229 546.565 403.923 554.528 403.657C554.528 403.657 557.088 403.861 561.068 404.187C572.107 405.091 594.07 406.957 603.087 408.123C612.682 409.369 616.999 424.774 618.427 431.439C619.409 429.938 619.704 428.828 619.704 428.828C619.704 428.828 619.613 428.178 619.401 427.089C618.304 421.427 614.083 403.805 603.794 402.469C594.777 401.295 572.814 399.436 561.776 398.532H561.769C557.786 398.206 555.228 398.001 555.228 398.001C547.265 398.271 542.406 400.575 539.472 403.55C538.356 404.669 537.523 406.039 537.044 407.544C536.564 409.05 536.451 410.649 536.714 412.207C537.213 411.09 537.91 410.073 538.772 409.205Z" fill="white"/>
</g>
<path d="M597.731 442.176C597.626 442.221 597.513 442.245 597.4 442.245C597.286 442.245 597.173 442.221 597.069 442.176L596.414 441.972C595.967 441.828 595.532 441.648 595.113 441.434C594.667 441.209 594.236 440.952 593.826 440.665C593.378 440.348 592.96 439.99 592.579 439.594C592.528 439.539 592.502 439.467 592.504 439.393C592.507 439.319 592.539 439.249 592.593 439.198C592.992 438.837 593.41 438.499 593.845 438.184C594.237 437.905 594.642 437.645 595.059 437.406C595.446 437.184 595.847 436.988 596.26 436.82L596.847 436.573C596.935 436.523 597.034 436.493 597.135 436.485C597.237 436.477 597.339 436.491 597.434 436.528L597.737 436.674C598.246 436.931 598.674 437.325 598.972 437.811C599.271 438.297 599.428 438.857 599.427 439.427C599.425 439.997 599.265 440.556 598.964 441.041C598.663 441.525 598.233 441.916 597.722 442.171L597.731 442.176Z" fill="#000072"/>
<path d="M618.539 426.251C618.451 426.307 618.507 426.295 618.511 426.305C618.532 426.314 618.554 426.319 618.577 426.32C618.628 426.32 618.692 426.329 618.758 426.329C618.888 426.329 619.042 426.329 619.198 426.313C619.518 426.295 619.866 426.253 620.243 426.201C620.989 426.081 621.805 425.899 622.931 425.761C623.068 426.272 623.117 426.802 623.077 427.329C623.039 427.823 622.934 428.309 622.768 428.775C622.603 429.251 622.385 429.706 622.116 430.132C621.975 430.356 621.815 430.567 621.639 430.764C621.548 430.872 621.45 430.973 621.345 431.068C621.289 431.12 621.23 431.169 621.168 431.215C621.081 431.285 620.987 431.346 620.889 431.398L618.539 426.251Z" fill="#000072"/>
<path d="M599.728 442.232C598.994 442.232 598.236 442.213 597.452 442.176C596.834 442.147 596.243 441.915 595.769 441.518C595.295 441.12 594.965 440.579 594.829 439.976C594.67 439.298 590.719 423.223 574.696 424.891C563.713 426.043 552.365 424.804 544.781 423.56C542.401 423.173 540.173 422.137 538.344 420.566C536.514 418.995 535.154 416.95 534.412 414.656C532.878 409.96 534.019 405.066 537.464 401.563C541.376 397.587 547.322 395.436 555.137 395.171C555.243 395.166 555.35 395.168 555.457 395.178C556.942 395.295 591.959 398.079 604.163 399.66C618.157 401.474 622.104 425.657 622.511 428.409C622.566 428.788 622.544 429.174 622.446 429.544C622.302 430.086 618.853 442.231 599.728 442.232ZM577.013 419.119C590.427 419.119 597.349 429.389 599.739 436.579C612.441 436.57 616.032 430.378 616.804 428.555C615.684 421.82 611.456 406.317 603.436 405.277C591.787 403.767 557.821 401.047 555.172 400.836C548.935 401.072 544.335 402.654 541.498 405.531C539.561 407.498 538.924 410.254 539.789 412.904C540.202 414.217 540.974 415.389 542.018 416.286C543.062 417.184 544.336 417.772 545.697 417.983C552.938 419.17 563.752 420.356 574.107 419.27C575.073 419.169 576.043 419.119 577.013 419.119Z" fill="#000072"/>
<path d="M583.429 400.393C583.499 399.617 583.397 398.835 583.129 398.103C582.862 397.371 582.436 396.707 581.882 396.158C581.385 395.664 569.523 384.08 555.251 385.962C546.591 387.104 539.252 392.753 533.439 402.75C526.34 414.948 524.401 426.734 527.676 437.782C533.072 455.986 550.765 465.1 551.515 465.479C552.77 466.115 554.226 466.226 555.563 465.789C556.9 465.352 558.008 464.402 558.644 463.148C559.28 461.894 559.392 460.439 558.955 459.103C558.517 457.766 557.567 456.658 556.312 456.023C556.166 455.948 541.869 448.487 537.825 434.696C535.444 426.58 537.053 417.625 542.607 408.082C546.677 401.088 551.383 397.185 556.594 396.48C560.695 395.923 564.716 397.328 567.897 399.04L583.429 400.393Z" fill="#FF2765"/>
<path d="M553.899 468.877C552.628 468.872 551.375 468.571 550.24 467.997C549.446 467.595 530.702 457.94 524.964 438.579C521.459 426.754 523.496 414.223 530.994 401.323C537.276 390.528 545.312 384.416 554.881 383.153C570.508 381.099 583.337 393.613 583.876 394.147C584.724 394.987 585.377 396.004 585.787 397.126C586.197 398.247 586.354 399.445 586.248 400.635C586.181 401.381 585.821 402.07 585.247 402.552C584.673 403.033 583.931 403.268 583.184 403.204L567.65 401.851C567.266 401.818 566.893 401.706 566.554 401.522C563.063 399.643 559.843 398.881 556.975 399.276C552.672 399.863 548.662 403.296 545.053 409.498C539.905 418.344 538.386 426.552 540.539 433.894C544.209 446.401 557.478 453.436 557.612 453.505C559.234 454.339 560.53 455.693 561.289 457.351C562.049 459.009 562.23 460.875 561.801 462.647C561.373 464.42 560.361 465.998 558.928 467.126C557.495 468.255 555.724 468.87 553.899 468.871V468.877ZM558.45 388.581C557.504 388.581 556.56 388.643 555.623 388.766C547.881 389.793 541.238 394.97 535.886 404.172C529.194 415.669 527.345 426.707 530.389 436.978C535.443 454.026 552.088 462.599 552.794 462.948C553.137 463.122 553.516 463.213 553.901 463.214C554.457 463.213 554.997 463.025 555.434 462.681C555.871 462.336 556.179 461.855 556.308 461.314C556.438 460.773 556.382 460.205 556.149 459.7C555.916 459.195 555.519 458.783 555.024 458.53C554.877 458.452 539.495 450.43 535.112 435.483C532.504 426.593 534.205 416.893 540.165 406.653C544.696 398.867 550.096 394.499 556.217 393.67C560.13 393.136 564.334 394.012 568.71 396.265L578.781 397.146C575.923 394.672 567.936 388.581 558.448 388.581H558.45Z" fill="#000072"/>
<path d="M539.946 636.288C527.826 653.069 483.711 649.026 477.987 633.531C475.951 627.997 477.931 623.77 481.325 620.619C487.441 614.944 498.133 612.78 498.133 612.78C503.586 599.722 504.109 586.634 504.109 586.634C502.788 582.04 501.853 577.615 509.936 572.101C518.019 566.587 523.23 580.57 523.23 580.57C525.549 577.204 526.257 573.897 526.194 571.005C526.079 565.556 523.23 561.615 523.23 561.615C523.23 561.615 531.907 564.385 536.469 563.113C536.728 563.047 536.98 562.96 537.225 562.852C541.496 560.993 545.073 563.396 545.073 563.396C557.363 593.396 552.073 619.507 539.946 636.288Z" fill="#FF2765"/>
<path d="M539.949 636.288C527.825 653.07 483.711 649.026 477.994 633.532C472.277 618.039 498.143 612.786 498.143 612.786C498.143 612.786 517.051 613.112 527.593 625.739C529.363 627.856 532.636 627.863 534.456 625.796C540.937 618.42 551.267 599.644 536.475 563.12C536.732 563.051 536.984 562.964 537.229 562.859C541.502 560.994 545.079 563.402 545.079 563.402C557.363 593.396 552.073 619.506 539.949 636.288Z" fill="white"/>
<path d="M521.523 613.233C521.026 613.233 520.543 613.065 520.154 612.755C512.048 606.299 500.677 610.424 500.564 610.466C500.292 610.572 500.001 610.623 499.709 610.616C499.418 610.609 499.13 610.543 498.864 610.424C498.597 610.305 498.357 610.134 498.158 609.921C497.958 609.708 497.803 609.457 497.701 609.184C497.599 608.91 497.552 608.619 497.564 608.328C497.576 608.036 497.645 607.75 497.769 607.485C497.892 607.221 498.067 606.984 498.283 606.787C498.499 606.591 498.752 606.439 499.027 606.342C499.586 606.133 512.866 601.325 522.897 609.311C523.254 609.596 523.514 609.985 523.64 610.423C523.767 610.862 523.754 611.329 523.603 611.76C523.452 612.191 523.171 612.564 522.798 612.828C522.425 613.092 521.98 613.234 521.523 613.233Z" fill="white"/>
<path d="M524.4 602.355C523.89 602.356 523.396 602.178 523.003 601.854C514.141 594.566 503.699 600.071 503.593 600.13C503.339 600.267 503.06 600.353 502.772 600.383C502.485 600.413 502.194 600.385 501.917 600.303C501.64 600.22 501.382 600.084 501.157 599.902C500.933 599.719 500.747 599.495 500.609 599.24C500.472 598.986 500.386 598.707 500.356 598.42C500.326 598.132 500.353 597.842 500.436 597.565C500.519 597.288 500.655 597.03 500.837 596.806C501.02 596.581 501.244 596.395 501.499 596.258C502.032 595.964 514.679 589.306 525.8 598.458C526.151 598.747 526.403 599.136 526.524 599.573C526.644 600.01 526.627 600.474 526.473 600.901C526.32 601.328 526.039 601.697 525.668 601.958C525.296 602.219 524.854 602.358 524.4 602.358V602.355Z" fill="white"/>
<path d="M527.587 590.855C527.163 590.855 526.749 590.732 526.393 590.502C518.184 585.192 504.935 590.268 504.801 590.318C504.259 590.523 503.658 590.506 503.128 590.271C502.598 590.035 502.183 589.601 501.972 589.061C501.761 588.521 501.771 587.92 502.001 587.388C502.231 586.856 502.661 586.436 503.198 586.219C503.828 585.972 518.702 580.284 528.786 586.806C529.185 587.064 529.489 587.444 529.654 587.89C529.819 588.335 529.835 588.822 529.7 589.278C529.565 589.733 529.286 590.133 528.906 590.417C528.525 590.701 528.062 590.854 527.587 590.854V590.855Z" fill="white"/>
<g opacity="0.3">
<path d="M539.946 636.288C527.826 653.069 483.711 649.026 477.987 633.531C475.951 627.997 477.931 623.77 481.325 620.619C488.008 627.942 502.517 639.655 523.23 633.531C549.38 625.799 552.587 581.591 526.194 571.009C526.079 565.56 523.23 561.619 523.23 561.619C523.23 561.619 531.907 564.389 536.469 563.117C536.728 563.051 536.98 562.964 537.225 562.856C541.496 560.997 545.073 563.4 545.073 563.4C557.363 593.396 552.073 619.507 539.946 636.288Z" fill="#000072"/>
</g>
<path d="M510.64 649.679C507.627 649.68 504.617 649.477 501.631 649.07C488.034 647.209 478.307 641.726 475.609 634.407C474.092 630.299 474.324 626.416 476.294 622.883C480.613 615.145 492.275 611.618 496.282 610.608C500.555 599.772 501.419 589.059 501.553 586.917C500.097 581.684 499.623 576.071 508.511 570.007C511.627 567.88 514.382 568.1 516.143 568.66C519.239 569.643 521.593 572.358 523.189 574.858C524.962 568.549 521.367 563.353 521.18 563.089C520.871 562.655 520.707 562.135 520.71 561.603C520.713 561.07 520.883 560.552 521.197 560.122C521.51 559.691 521.951 559.37 522.457 559.203C522.963 559.037 523.509 559.034 524.017 559.194C527.686 560.368 533.884 561.541 536.222 560.53C541.713 558.135 546.315 561.164 546.507 561.295C546.925 561.575 547.249 561.973 547.439 562.438C553.377 576.94 555.659 591.281 554.203 605.064C552.926 617.196 548.712 628.507 542.02 637.774C535.884 646.249 523.019 649.679 510.64 649.679ZM513.699 573.351C513.103 573.351 512.339 573.542 511.374 574.199C504.519 578.877 505.416 581.99 506.552 585.937C506.627 586.198 506.66 586.469 506.649 586.74C506.627 587.293 506.05 600.444 500.484 613.766C500.325 614.149 500.074 614.486 499.754 614.75C499.433 615.013 499.053 615.193 498.647 615.276C494.788 616.064 484.044 619.416 480.729 625.369C479.499 627.577 479.383 629.961 480.376 632.658C482.354 638.021 490.967 642.488 502.321 644.047C514.985 645.784 531.516 643.63 537.892 634.803C551.407 616.099 553.28 590.776 543.072 565.207C542.313 564.87 541.492 564.695 540.661 564.691C539.83 564.687 539.008 564.854 538.245 565.183C535.429 566.413 531.225 566.037 527.823 565.387C529.144 569.538 529.7 575.658 525.328 582.012C525.064 582.395 524.7 582.697 524.277 582.888C523.853 583.078 523.385 583.149 522.924 583.091C522.462 583.034 522.026 582.852 521.661 582.564C521.296 582.276 521.018 581.894 520.855 581.459C520.195 579.698 517.626 574.454 514.596 573.498C514.307 573.403 514.004 573.353 513.699 573.351Z" fill="#000072"/>
<path d="M505.418 588.811L502.805 584.458C503.226 584.206 513.212 578.282 523.173 578.035L523.299 583.11C514.696 583.324 505.509 588.757 505.418 588.811Z" fill="#000072"/>
<path d="M531.039 629.1H530.957C530.055 629.09 529.167 628.886 528.352 628.5C527.537 628.114 526.816 627.557 526.238 626.865C516.35 615.028 498.288 614.552 498.108 614.548L498.17 611.015C498.975 611.03 518.013 611.503 528.95 624.6C529.201 624.902 529.515 625.144 529.87 625.311C530.225 625.478 530.613 625.565 531.005 625.565H531.04C531.436 625.566 531.827 625.483 532.188 625.32C532.549 625.158 532.871 624.921 533.134 624.625C539.896 616.935 549.098 598.772 534.739 563.522L538.013 562.19C553.09 599.202 543.092 618.656 535.789 626.958C535.195 627.632 534.465 628.172 533.645 628.542C532.826 628.911 531.938 629.101 531.039 629.1Z" fill="#000072"/>
<path d="M486.967 515.275C472.421 521.524 461.17 500.283 461.17 500.283C461.283 510.847 464.239 536.176 464.239 536.176C439.92 546.518 432.566 522.661 432.566 522.661C432.566 522.661 432.545 519.14 432.779 513.777C433.64 494.19 437.904 449.984 459.014 462.226C479.471 474.1 490.75 488.783 493.204 499.887C494.808 507.104 492.695 512.815 486.967 515.275Z" fill="#FCAF03"/>
<g opacity="0.3">
<path d="M486.967 515.275C472.421 521.524 461.17 500.283 461.17 500.283C461.283 510.847 464.239 536.176 464.239 536.176C439.92 546.518 432.566 522.661 432.566 522.661C432.566 522.661 432.545 519.14 432.779 513.777L433.477 514.851C433.477 514.851 433.918 515.206 434.702 515.746C442.085 520.833 452.244 516.45 453.606 507.591C455.006 498.465 458.059 487.43 464.691 484.534L465.156 491.308C465.269 493.063 465.76 494.773 466.596 496.32C467.432 497.868 468.593 499.216 470 500.271C475.285 504.198 484.444 508.395 493.192 499.887C494.808 507.104 492.695 512.815 486.967 515.275Z" fill="#000072"/>
</g>
<g opacity="0.7">
<path d="M438.93 524.076C438.93 524.076 438.908 520.554 439.142 515.19C439.889 498.225 443.192 462.795 457.783 461.572C437.744 451.741 433.629 494.584 432.783 513.777C432.55 519.141 432.57 522.661 432.57 522.661C432.57 522.661 437.307 538.016 451.739 538.745C442.235 534.791 438.93 524.076 438.93 524.076Z" fill="white"/>
</g>
<path d="M458.344 500.378C458.385 499.336 458.51 498.299 458.717 497.277C458.913 496.255 459.172 495.246 459.492 494.256C459.8 493.24 460.207 492.257 460.707 491.321C461.231 490.388 461.851 489.439 462.762 488.809C462.742 489.81 462.797 490.811 462.925 491.804C463.034 492.759 463.132 493.697 463.261 494.639L463.656 497.445C463.782 498.365 463.916 499.332 463.998 500.185L458.344 500.378Z" fill="#000072"/>
<path d="M452.799 541.611C449.586 541.632 446.408 540.944 443.492 539.596C433.49 534.949 430.004 523.957 429.86 523.492C429.78 523.227 429.738 522.952 429.737 522.676C429.703 517.143 429.884 468.343 446.126 458.932C449.061 457.233 453.917 455.998 460.427 459.779C486.353 474.821 497.235 493.575 496.52 505.487C496.17 511.287 493.173 515.686 488.081 517.874C478.082 522.17 469.723 515.883 464.497 509.913C465.36 521.348 467.022 535.661 467.044 535.85C467.116 536.458 466.988 537.072 466.681 537.601C466.374 538.13 465.904 538.545 465.341 538.785C460.908 540.666 456.715 541.609 452.799 541.611ZM435.396 522.181C436.021 523.889 439.083 531.333 445.92 534.486C450.24 536.478 455.369 536.427 461.186 534.339C460.467 527.937 458.442 509.201 458.347 500.309C458.339 499.675 458.545 499.057 458.931 498.554C459.318 498.051 459.862 497.692 460.477 497.536C461.092 497.38 461.741 497.435 462.321 497.692C462.901 497.95 463.378 498.394 463.674 498.955C463.813 499.215 473.912 517.808 485.856 512.677C488.971 511.339 490.662 508.806 490.88 505.146C491.467 495.296 481.31 478.427 457.595 464.668C454.205 462.701 451.385 462.426 448.972 463.822C437.721 470.341 435.368 507.703 435.396 522.181Z" fill="#000072"/>
<path d="M464.656 578.121V578.142C463.936 580.212 463.018 582.208 461.912 584.102C457.867 590.851 451.977 593.624 444.701 588.562C425.516 575.21 372.105 550.032 372.876 528.162V528.155C372.883 527.964 372.889 527.766 372.911 527.575C372.941 527.096 373.002 526.619 373.095 526.147C373.25 525.349 373.434 524.572 373.647 523.829C379.389 503.854 405.659 504.327 416.839 514.838L416.847 514.845C428.443 525.751 435.826 524.274 435.826 524.274C449.804 520.644 450.832 537.455 450.832 537.455C456.078 537.015 459.508 535.894 461.531 534.974C463.192 534.219 463.9 533.597 463.9 533.597C469.327 546.822 469.09 565.645 464.656 578.121Z" fill="#FF2765"/>
<path d="M464.656 578.12V578.142L461.905 584.093C461.905 584.093 425.912 539.385 405.299 526.965C385.018 514.744 373.25 527.742 372.883 528.159C372.902 527.485 372.976 526.814 373.102 526.152C377.416 503.837 405.248 503.942 416.844 514.842L416.851 514.85C419.071 520.795 419.255 524.258 419.085 526.001C419.033 526.496 419.093 526.997 419.263 527.466C419.432 527.935 419.705 528.359 420.061 528.708C446.603 554.475 464.656 578.12 464.656 578.12Z" fill="white"/>
<path d="M438.045 540.522H437.928C437.179 540.491 436.473 540.165 435.965 539.615C435.457 539.065 435.188 538.336 435.217 537.587C435.349 534.314 432.046 529.077 429.933 526.549C429.457 525.974 429.228 525.233 429.296 524.49C429.365 523.746 429.724 523.06 430.297 522.581C430.87 522.101 431.609 521.868 432.354 521.931C433.098 521.995 433.787 522.35 434.27 522.919C434.973 523.757 441.131 531.3 440.875 537.818C440.843 538.546 440.531 539.234 440.004 539.738C439.476 540.242 438.775 540.523 438.045 540.522Z" fill="white"/>
<path d="M423.496 527.506C422.941 527.506 422.408 527.289 422.011 526.901C421.615 526.513 421.386 525.985 421.375 525.43C421.344 523.933 419.76 520.824 418.637 519.094C418.332 518.622 418.226 518.048 418.344 517.498C418.461 516.948 418.793 516.468 419.265 516.162C419.737 515.857 420.311 515.751 420.862 515.869C421.412 515.986 421.893 516.317 422.198 516.789C422.758 517.652 425.551 522.12 425.617 525.342C425.623 525.62 425.574 525.897 425.472 526.157C425.371 526.416 425.22 526.653 425.027 526.854C424.834 527.055 424.604 527.216 424.348 527.328C424.093 527.44 423.819 527.5 423.54 527.506H423.496Z" fill="white"/>
<path d="M429.633 534.519H429.599C428.85 534.509 428.136 534.202 427.613 533.665C427.09 533.129 426.801 532.407 426.81 531.658C426.857 527.758 424.462 523.589 424.437 523.542C424.067 522.895 423.967 522.128 424.16 521.408C424.352 520.688 424.821 520.073 425.465 519.697C426.108 519.321 426.874 519.214 427.596 519.4C428.318 519.585 428.938 520.048 429.32 520.688C429.451 520.911 432.532 526.232 432.467 531.726C432.458 532.471 432.155 533.182 431.625 533.705C431.094 534.228 430.378 534.521 429.633 534.519Z" fill="white"/>
<g opacity="0.3">
<path d="M464.656 578.121V578.142C463.936 580.212 463.018 582.208 461.912 584.102C457.867 590.851 451.977 593.624 444.701 588.562C425.516 575.21 372.105 550.032 372.876 528.162V528.155C372.883 527.964 372.889 527.766 372.911 527.575C372.941 527.096 373.002 526.619 373.095 526.147C373.25 525.349 373.434 524.572 373.647 523.829C391.24 535.329 448.957 569.753 461.531 534.968C463.192 534.213 463.9 533.591 463.9 533.591C469.327 546.822 469.09 565.645 464.656 578.121Z" fill="#000072"/>
</g>
<path d="M461.905 584.1V584.107C457.86 590.857 451.969 593.628 444.693 588.566C425.508 575.222 372.098 550.037 372.869 528.166V528.159C372.876 527.968 372.882 527.772 372.904 527.579C373.923 526.552 374.912 526.322 374.912 526.322C403.792 503.024 461.891 584.093 461.891 584.093L461.905 584.1Z" fill="#000072"/>
<path d="M451.897 593.699C449.094 593.699 446.162 592.683 443.237 590.651C438.949 587.668 432.962 584.109 426.032 579.987C399.683 564.319 366.893 544.819 370.596 525.671C372.416 516.266 378.342 509.497 387.284 506.611C397.86 503.197 411.022 505.878 418.585 513C428.349 522.187 434.682 521.847 435.327 521.784C439.791 520.657 443.625 521.22 446.72 523.467C450.783 526.414 452.379 531.537 452.991 534.663C459.617 533.739 462.231 531.674 462.26 531.651C462.562 531.388 462.923 531.202 463.312 531.107C463.701 531.013 464.107 531.014 464.496 531.11C464.887 531.205 465.25 531.393 465.554 531.658C465.859 531.922 466.095 532.255 466.244 532.63C474.17 551.95 470.683 581.908 459.455 590.911C457.143 592.77 454.576 593.699 451.897 593.699ZM396.953 510.227C394.204 510.209 391.47 510.62 388.848 511.443C383.825 513.057 377.447 517.018 375.586 526.636C372.559 542.283 406.303 562.348 428.632 575.625C435.647 579.797 441.705 583.402 446.142 586.483C450.004 589.169 453.321 589.323 456.28 586.949C465.2 579.797 468.187 554.351 462.557 537.292C460.267 538.334 456.564 539.524 451.039 539.983C450.702 540.012 450.362 539.972 450.041 539.867C449.719 539.763 449.422 539.595 449.166 539.373C448.91 539.152 448.701 538.882 448.552 538.579C448.402 538.275 448.314 537.945 448.294 537.608C448.294 537.543 447.783 530.492 443.727 527.565C441.863 526.219 439.49 525.951 436.466 526.733L436.319 526.765C435.438 526.944 427.295 528.168 415.101 516.696C410.714 512.564 403.756 510.227 396.953 510.227Z" fill="#000072"/>
<path d="M461.901 585.858C461.636 585.859 461.374 585.801 461.135 585.688C460.896 585.574 460.686 585.408 460.519 585.202C460.161 584.762 424.479 540.598 404.376 528.482C385.264 516.964 374.305 529.199 374.197 529.324L371.527 527.009C371.655 526.862 384.567 512.416 406.202 525.456C424.443 536.449 453.866 571.513 461.478 580.781L462.593 578.359C459.137 573.937 442.19 552.66 418.821 529.984C418.273 529.451 417.853 528.801 417.592 528.082C417.332 527.363 417.237 526.595 417.315 525.835C417.45 524.453 417.353 521.267 415.186 515.47L418.499 514.234C420.794 520.374 421.036 524.118 420.835 526.178C420.808 526.41 420.835 526.645 420.913 526.865C420.991 527.084 421.118 527.284 421.284 527.447C447.623 553.004 465.873 576.814 466.053 577.051C466.248 577.307 466.369 577.611 466.404 577.93C466.439 578.249 466.387 578.572 466.253 578.864L463.501 584.834C463.375 585.107 463.182 585.344 462.938 585.521C462.695 585.699 462.411 585.811 462.112 585.848C462.042 585.855 461.971 585.858 461.901 585.858Z" fill="#000072"/>
<path d="M448.236 539.463C445.448 539.463 442.961 538.669 440.818 537.09C435.183 532.938 434.116 524.839 434.066 524.495L437.576 524.055L435.814 524.274L437.567 524.052C437.577 524.121 438.506 531.013 442.916 534.249C444.96 535.752 447.514 536.243 450.504 535.717L451.125 539.197C450.172 539.37 449.205 539.458 448.236 539.463Z" fill="#000072"/>
</g>
<defs>
<filter id="filter0_f_1008_1066" x="101" y="15" width="844" height="870" filterUnits="userSpaceOnUse" color-interpolation-filters="sRGB">
<feFlood flood-opacity="0" result="BackgroundImageFix"/>
<feBlend mode="normal" in="SourceGraphic" in2="BackgroundImageFix" result="shape"/>
<feGaussianBlur stdDeviation="75" result="effect1_foregroundBlur_1008_1066"/>
</filter>
<filter id="filter1_f_1008_1066" x="0" y="0" width="844" height="870" filterUnits="userSpaceOnUse" color-interpolation-filters="sRGB">
<feFlood flood-opacity="0" result="BackgroundImageFix"/>
<feBlend mode="normal" in="SourceGraphic" in2="BackgroundImageFix" result="shape"/>
<feGaussianBlur stdDeviation="75" result="effect1_foregroundBlur_1008_1066"/>
</filter>
<clipPath id="clip0_1008_1066">
<rect width="314" height="460" fill="white" transform="translate(345 198)"/>
</clipPath>
</defs>
</svg>
