<svg width="171" height="40" viewBox="0 0 171 40" fill="none" xmlns="http://www.w3.org/2000/svg">
<path d="M20 40C31.0457 40 40 31.0457 40 20C40 8.95431 31.0457 0 20 0C8.95431 0 0 8.95431 0 20C0 31.0457 8.95431 40 20 40Z" fill="#6938EF"/>
<path d="M27.1353 7.52356H17.153C15.8892 7.52356 14.8647 8.54804 14.8647 9.81179V19.7941C14.8647 21.0579 15.8892 22.0824 17.153 22.0824H27.1353C28.3991 22.0824 29.4236 21.0579 29.4236 19.7941V9.81179C29.4236 8.54804 28.3991 7.52356 27.1353 7.52356Z" fill="white" stroke="#6938EF" stroke-miterlimit="10"/>
<path d="M15.4705 30.4941C20.2104 30.4941 24.0529 26.6517 24.0529 21.9118C24.0529 17.1719 20.2104 13.3294 15.4705 13.3294C10.7306 13.3294 6.88818 17.1719 6.88818 21.9118C6.88818 26.6517 10.7306 30.4941 15.4705 30.4941Z" fill="white" stroke="#6938EF" stroke-miterlimit="10"/>
<path d="M24.9764 14.0588C24.799 13.7262 24.5266 13.4538 24.194 13.2764C23.7266 12.994 23.1688 12.9014 22.6352 13.0176C22.2183 13.1202 21.8439 13.3506 21.5644 13.6765C21.2849 14.0024 21.1142 14.4076 21.0764 14.8353C21.0764 15.4823 21.5646 15.5706 21.8587 16.6588C21.9999 17.1882 22.1587 17.7941 21.8587 18.2176C21.5587 18.6412 20.8234 18.7 20.0352 18.7353C19.765 18.7546 19.4937 18.7546 19.2234 18.7353L18.6352 18.6941C18.2134 18.6554 17.7883 18.7158 17.394 18.8706C16.4823 19.3588 17.6881 21.8117 16.447 23.3117C16.3411 23.4412 15.8587 24.0059 15.3411 23.9529C14.8234 23.9 14.7528 23.3647 14.1646 23.0412C13.7891 22.8534 13.3673 22.7779 12.95 22.8238C12.5327 22.8697 12.1374 23.0351 11.8117 23.3C10.7823 24.247 11.2234 26.4529 12.3293 26.9412C12.7469 27.1066 13.2118 27.1066 13.6293 26.9412C14.1058 26.747 14.1587 26.4353 14.6705 26.1588C14.794 26.0941 15.5117 25.7059 15.9705 25.9C17.0411 26.3588 15.9293 29.6235 17.4528 30.7588C17.7055 30.9437 18.001 31.0611 18.3117 31.1H28.2352C28.4813 31.0272 28.705 30.8937 28.886 30.7118C29.0669 30.5298 29.1991 30.3053 29.2705 30.0588V26.7117C29.1054 26.5175 28.8794 26.3848 28.6293 26.3353C28.0411 26.2529 27.7999 26.8412 26.9117 27.2117C26.6025 27.3576 26.267 27.4395 25.9253 27.4527C25.5837 27.4658 25.2429 27.4099 24.9234 27.2882C24.5657 27.1065 24.2706 26.8217 24.0764 26.4706C23.7487 25.8927 23.6362 25.2176 23.7587 24.5647C23.7819 24.0201 23.9893 23.4995 24.347 23.0882C24.6296 22.8014 24.9858 22.5979 25.3764 22.5C25.7992 22.3652 26.2535 22.3652 26.6764 22.5C27.2095 22.7352 27.7298 22.9983 28.2352 23.2882C28.3207 23.3411 28.4174 23.3733 28.5176 23.3823C28.6615 23.3754 28.8024 23.3383 28.931 23.2734C29.0597 23.2086 29.1734 23.1174 29.2646 23.0059C29.653 22.4234 29.834 21.7272 29.7785 21.0293C29.723 20.3315 29.4342 19.6726 28.9587 19.1588C28.6752 18.9023 28.3374 18.7133 27.9705 18.6059C25.4117 18.7823 24.5646 18.3412 24.3293 17.8294C23.8823 16.8353 25.5823 15.3706 24.9764 14.0588Z" fill="white" stroke="#6938EF" stroke-miterlimit="10"/>
<path d="M67.432 28.748L64.3 24.32C66.316 22.844 67.504 20.576 67.504 17.876C67.504 13.052 63.76 9.73999 58.324 9.73999H52.132C50.332 9.73999 49 11.072 49 12.872V30.8C49 32.6 50.332 33.932 52.096 33.932C53.86 33.932 55.192 32.6 55.192 30.8V26.12H58.432L62.608 32.384C63.292 33.428 64.228 33.932 65.38 33.932C66.928 33.932 68.296 32.636 68.296 31.124C68.296 30.368 68.008 29.576 67.432 28.748ZM55.192 15.14H58.36C60.088 15.14 61.204 16.256 61.204 17.912C61.204 19.604 60.088 20.72 58.36 20.72H55.192V15.14Z" fill="#6938EF"/>
<path d="M79.5857 15.068C76.9577 15.068 74.6537 15.752 73.1417 16.976C72.2777 17.66 71.8097 18.488 71.8097 19.388C71.8097 20.792 72.9257 21.908 74.4017 21.908C74.9417 21.908 75.3377 21.764 76.0577 21.296C76.9937 20.684 77.8937 20.396 78.9017 20.396C80.6657 20.396 81.6737 21.224 81.6737 22.7V22.988H77.8937C73.4657 22.988 70.8377 25.004 70.8377 28.388C70.8377 31.7 73.3577 33.932 77.0657 33.932C79.0817 33.932 80.8457 33.284 82.1057 32.132C82.5737 33.212 83.6177 33.896 84.8777 33.896C86.6057 33.896 87.8657 32.6 87.8657 30.836V23.06C87.8657 17.948 84.9137 15.068 79.5857 15.068ZM78.9377 29.54C77.7857 29.54 77.1017 29.036 77.1017 28.136C77.1017 27.272 77.7137 26.768 78.7577 26.768H81.6737V26.912C81.6737 28.496 80.5577 29.54 78.9377 29.54Z" fill="#6938EF"/>
<path d="M116.563 15.068C115.411 15.068 114.403 15.68 113.899 16.688L110.263 24.176L107.491 17.444C106.843 15.86 105.835 15.068 104.503 15.068C103.171 15.068 102.163 15.86 101.515 17.444L98.7433 24.176L95.1073 16.688C94.6033 15.68 93.5953 15.068 92.4433 15.068C90.7873 15.068 89.4553 16.4 89.4553 18.056C89.4553 18.596 89.5993 19.136 89.8513 19.712L95.7913 31.988C96.4033 33.248 97.3753 33.932 98.5993 33.932C99.8233 33.932 100.795 33.248 101.407 31.988L104.503 25.328L107.599 31.988C108.211 33.248 109.183 33.932 110.407 33.932C111.631 33.932 112.603 33.248 113.215 31.988L119.155 19.712C119.407 19.136 119.551 18.596 119.551 18.056C119.551 16.4 118.219 15.068 116.563 15.068Z" fill="#6938EF"/>
<path d="M136.753 6.06799C134.953 6.06799 133.657 7.39999 133.657 9.19999V16.724C132.541 15.644 130.993 15.068 129.049 15.068C124.009 15.068 120.409 19.028 120.409 24.536C120.409 30.044 124.009 33.932 129.049 33.932C131.209 33.932 132.865 33.212 134.017 31.88C134.413 33.104 135.493 33.932 136.861 33.932C138.589 33.932 139.849 32.6 139.849 30.836V9.19999C139.849 7.39999 138.517 6.06799 136.753 6.06799ZM130.273 28.316C128.185 28.316 126.745 26.768 126.745 24.5C126.745 22.268 128.221 20.684 130.273 20.684C132.325 20.684 133.765 22.268 133.765 24.536C133.765 26.768 132.361 28.316 130.273 28.316Z" fill="#6938EF"/>
<path d="M151.691 15.068C149.063 15.068 146.759 15.752 145.247 16.976C144.383 17.66 143.915 18.488 143.915 19.388C143.915 20.792 145.031 21.908 146.507 21.908C147.047 21.908 147.443 21.764 148.163 21.296C149.099 20.684 149.999 20.396 151.007 20.396C152.771 20.396 153.779 21.224 153.779 22.7V22.988H149.999C145.571 22.988 142.943 25.004 142.943 28.388C142.943 31.7 145.463 33.932 149.171 33.932C151.187 33.932 152.951 33.284 154.211 32.132C154.679 33.212 155.723 33.896 156.983 33.896C158.711 33.896 159.971 32.6 159.971 30.836V23.06C159.971 17.948 157.019 15.068 151.691 15.068ZM151.043 29.54C149.891 29.54 149.207 29.036 149.207 28.136C149.207 27.272 149.819 26.768 150.863 26.768H153.779V26.912C153.779 28.496 152.663 29.54 151.043 29.54Z" fill="#6938EF"/>
<path d="M166.944 33.932C169.248 33.932 170.94 32.168 170.94 29.9C170.94 27.668 169.248 25.868 166.944 25.868C164.532 25.868 162.84 27.668 162.84 29.9C162.84 32.168 164.532 33.932 166.944 33.932Z" fill="#6938EF"/>
</svg>
